<?xml version="1.0" encoding="utf-8"?>
<!-- Generator: Adobe Illustrator 27.9.0, SVG Export Plug-In . SVG Version: 6.00 Build 0)  -->
<svg version="1.1" id="Слой_1" xmlns="http://www.w3.org/2000/svg" xmlns:xlink="http://www.w3.org/1999/xlink" x="0px" y="0px"
	 viewBox="0 0 148 38" style="enable-background:new 0 0 148 38;" xml:space="preserve">
<style type="text/css">
	.st0{clip-path:url(#SVGID_00000175315110961810103900000016588352515430598562_);fill:#FECE32;}
	.st1{clip-path:url(#SVGID_00000175315110961810103900000016588352515430598562_);fill:#FFFFFF;}
	.st2{fill:#FFFFFF;}
	.st3{fill:#FECE32;}
</style>
<g>
	<defs>
		<rect id="SVGID_1_" x="6.57" y="2" width="31" height="34"/>
	</defs>
	<clipPath id="SVGID_00000096022962533889680320000014917702003675983497_">
		<use xlink:href="#SVGID_1_"  style="overflow:visible;"/>
	</clipPath>
	<path style="clip-path:url(#SVGID_00000096022962533889680320000014917702003675983497_);fill:#FECE32;" d="M22.3,25.18
		c-0.95,0-1.89-0.23-2.73-0.67c-0.85-0.45-1.58-1.09-2.14-1.89l-3.9,2.33c0.15,0.18,0.32,0.33,0.52,0.45l6.95,4.17
		c0.41,0.22,0.86,0.33,1.31,0.33s0.91-0.11,1.31-0.33l6.95-4.17c0.2-0.12,0.37-0.27,0.52-0.45l-3.89-2.37
		c-0.56,0.81-1.29,1.46-2.14,1.92C24.19,24.95,23.25,25.18,22.3,25.18z"/>
	<path style="clip-path:url(#SVGID_00000096022962533889680320000014917702003675983497_);fill:#FECE32;" d="M16.19,18.89
		c0-1.48,0.58-2.91,1.62-4.01c1.04-1.1,2.46-1.8,4.01-1.96V8.43c-0.23,0.05-0.46,0.13-0.67,0.24l-7.24,3.98
		c-0.39,0.25-0.72,0.59-0.96,0.98c-0.24,0.39-0.37,0.83-0.4,1.28v7.96c0,0.23,0.04,0.46,0.11,0.68l4.07-2.24
		C16.37,20.55,16.19,19.73,16.19,18.89z"/>
	<path style="clip-path:url(#SVGID_00000096022962533889680320000014917702003675983497_);fill:#FECE32;" d="M30.77,12.65
		l-6.86-3.98c-0.2-0.11-0.41-0.19-0.63-0.24v4.48c0.93,0.11,1.83,0.43,2.61,0.95c0.78,0.52,1.44,1.21,1.91,2.03
		c0.47,0.82,0.74,1.73,0.79,2.68c0.05,0.94-0.12,1.88-0.49,2.75l3.86,2.24c0.07-0.22,0.11-0.45,0.11-0.68v-7.96
		c-0.02-0.45-0.15-0.89-0.38-1.29C31.45,13.24,31.14,12.9,30.77,12.65z"/>
	<path style="clip-path:url(#SVGID_00000096022962533889680320000014917702003675983497_);fill:#FFFFFF;" d="M35.76,8.66L24.44,2.11
		c-0.66-0.33-1.4-0.51-2.14-0.51c-0.74,0-1.48,0.17-2.14,0.51L8.83,8.66c-0.62,0.41-1.14,0.95-1.51,1.59
		c-0.37,0.64-0.59,1.36-0.63,2.11v13.1c0.04,0.74,0.26,1.47,0.63,2.11c0.37,0.64,0.89,1.19,1.51,1.6l11.33,6.55
		c0.66,0.33,1.4,0.51,2.14,0.51c0.74,0,1.48-0.17,2.14-0.51l11.33-6.55c0.62-0.41,1.14-0.96,1.51-1.6c0.37-0.64,0.59-1.37,0.63-2.11
		v-13.1c-0.04-0.74-0.26-1.46-0.63-2.11C36.9,9.62,36.39,9.07,35.76,8.66z M34.31,23.96c-0.03,0.57-0.2,1.13-0.49,1.62
		s-0.68,0.92-1.16,1.23l-8.72,5.04c-0.51,0.26-1.07,0.39-1.64,0.39c-0.57,0-1.13-0.13-1.64-0.39l-8.71-5.04
		c-0.48-0.31-0.88-0.73-1.16-1.23c-0.29-0.49-0.45-1.05-0.49-1.62V13.88c0.03-0.57,0.2-1.13,0.49-1.62c0.29-0.5,0.68-0.92,1.16-1.23
		l8.7-5.04c0.51-0.26,1.07-0.39,1.64-0.39c0.57,0,1.13,0.13,1.64,0.39l8.72,5.04c0.48,0.31,0.88,0.73,1.17,1.23
		c0.29,0.49,0.46,1.05,0.49,1.62V23.96z"/>
	<path style="clip-path:url(#SVGID_00000096022962533889680320000014917702003675983497_);fill:#FFFFFF;" d="M17.91,18.92
		c0,0.82,0.26,1.62,0.74,2.3c0.48,0.68,1.17,1.21,1.97,1.53c0.8,0.31,1.68,0.4,2.54,0.24c0.85-0.16,1.63-0.55,2.25-1.13
		c0.61-0.58,1.03-1.32,1.2-2.12c0.17-0.8,0.08-1.64-0.25-2.4c-0.33-0.76-0.89-1.4-1.62-1.86c-0.72-0.46-1.57-0.7-2.44-0.7
		c-1.16,0-2.28,0.44-3.1,1.21C18.37,16.77,17.91,17.82,17.91,18.92z"/>
</g>
<path class="st2" d="M47.4,17.48h6.07v2.27H47.4V17.48z M47.62,22.66h6.86V25h-9.76V12.4h9.52v2.34h-6.62V22.66z M62.49,25v-1.89
	l-0.18-0.41v-3.38c0-0.6-0.19-1.07-0.56-1.4c-0.36-0.34-0.92-0.5-1.67-0.5c-0.52,0-1.03,0.08-1.53,0.25
	c-0.49,0.16-0.91,0.37-1.26,0.65l-1.01-1.96c0.53-0.37,1.16-0.66,1.91-0.86c0.74-0.2,1.5-0.31,2.27-0.31c1.48,0,2.62,0.35,3.44,1.04
	c0.82,0.7,1.22,1.78,1.22,3.26V25H62.49z M59.53,25.14c-0.76,0-1.4-0.13-1.94-0.38c-0.54-0.26-0.95-0.62-1.24-1.06
	c-0.29-0.44-0.43-0.94-0.43-1.49c0-0.58,0.14-1.08,0.41-1.51c0.29-0.43,0.74-0.77,1.35-1.01c0.61-0.25,1.41-0.38,2.39-0.38h2.57
	v1.64h-2.27c-0.66,0-1.12,0.11-1.37,0.32c-0.24,0.22-0.36,0.49-0.36,0.81c0,0.36,0.14,0.65,0.41,0.86c0.29,0.2,0.68,0.31,1.17,0.31
	c0.47,0,0.89-0.11,1.26-0.32c0.37-0.23,0.64-0.56,0.81-0.99l0.43,1.3c-0.2,0.62-0.58,1.1-1.12,1.42
	C61.08,24.98,60.39,25.14,59.53,25.14z M70.91,25.14c-0.83,0-1.63-0.1-2.39-0.29c-0.76-0.2-1.36-0.46-1.8-0.76l0.94-2.02
	c0.44,0.28,0.97,0.5,1.57,0.68c0.61,0.17,1.21,0.25,1.8,0.25c0.65,0,1.1-0.08,1.37-0.23c0.28-0.16,0.41-0.37,0.41-0.65
	c0-0.23-0.11-0.4-0.32-0.5c-0.2-0.12-0.48-0.21-0.83-0.27s-0.73-0.12-1.15-0.18c-0.41-0.06-0.82-0.14-1.24-0.23
	c-0.42-0.11-0.8-0.26-1.15-0.47s-0.63-0.48-0.85-0.83c-0.2-0.35-0.31-0.8-0.31-1.35c0-0.61,0.17-1.15,0.52-1.62
	c0.36-0.47,0.88-0.83,1.55-1.1c0.67-0.28,1.48-0.41,2.41-0.41c0.66,0,1.33,0.07,2.02,0.22c0.68,0.14,1.25,0.35,1.71,0.63l-0.94,2
	c-0.47-0.28-0.94-0.46-1.42-0.56c-0.47-0.11-0.92-0.16-1.37-0.16c-0.62,0-1.08,0.08-1.37,0.25c-0.29,0.17-0.43,0.38-0.43,0.65
	c0,0.24,0.1,0.42,0.31,0.54c0.22,0.12,0.5,0.22,0.85,0.29s0.73,0.14,1.13,0.2c0.42,0.05,0.84,0.13,1.26,0.23
	c0.42,0.11,0.8,0.26,1.13,0.47c0.35,0.19,0.63,0.46,0.85,0.81c0.22,0.34,0.32,0.78,0.32,1.33c0,0.6-0.18,1.13-0.54,1.6
	c-0.36,0.46-0.88,0.82-1.57,1.08C72.71,25.01,71.89,25.14,70.91,25.14z M77.22,25v-9.68h2.81V25H77.22z M78.62,13.97
	c-0.52,0-0.94-0.15-1.26-0.45s-0.49-0.67-0.49-1.12c0-0.44,0.16-0.82,0.49-1.12c0.32-0.3,0.74-0.45,1.26-0.45s0.94,0.14,1.26,0.43
	c0.32,0.28,0.49,0.64,0.49,1.08c0,0.47-0.16,0.86-0.49,1.17C79.57,13.82,79.15,13.97,78.62,13.97z M87.44,25.14
	c-1.1,0-2.08-0.22-2.92-0.65c-0.83-0.43-1.47-1.02-1.93-1.76c-0.46-0.76-0.68-1.61-0.68-2.57c0-0.97,0.22-1.83,0.67-2.57
	c0.46-0.76,1.07-1.34,1.85-1.76c0.78-0.43,1.66-0.65,2.65-0.65c0.95,0,1.8,0.2,2.56,0.61c0.77,0.4,1.37,0.97,1.82,1.73
	c0.44,0.74,0.67,1.64,0.67,2.68c0,0.11-0.01,0.23-0.02,0.38c-0.01,0.13-0.02,0.26-0.04,0.38H84.2v-1.64h6.39l-1.08,0.49
	c0-0.5-0.1-0.94-0.31-1.31c-0.2-0.37-0.49-0.66-0.85-0.86C88,17.4,87.58,17.3,87.1,17.3c-0.48,0-0.91,0.11-1.28,0.32
	c-0.36,0.2-0.64,0.5-0.85,0.88c-0.2,0.37-0.31,0.82-0.31,1.33v0.43c0,0.53,0.11,1,0.34,1.4c0.24,0.4,0.57,0.7,0.99,0.92
	c0.43,0.2,0.94,0.31,1.51,0.31c0.52,0,0.97-0.08,1.35-0.23c0.4-0.16,0.76-0.39,1.08-0.7l1.49,1.62c-0.44,0.5-1,0.89-1.67,1.17
	C89.09,25.01,88.31,25.14,87.44,25.14z M93.99,25v-9.68h2.68v2.74l-0.38-0.79c0.29-0.68,0.75-1.2,1.39-1.55
	c0.64-0.36,1.41-0.54,2.32-0.54v2.59c-0.12-0.01-0.23-0.02-0.32-0.02c-0.1-0.01-0.2-0.02-0.31-0.02c-0.77,0-1.39,0.22-1.87,0.67
	c-0.47,0.43-0.7,1.11-0.7,2.03V25H93.99z"/>
<path class="st3" d="M109.05,25l-3.49-9.68h2.65l2.9,8.33h-1.26l3.02-8.33h2.38l2.93,8.33h-1.26l2.99-8.33h2.48L118.88,25h-2.72
	l-2.57-7.15h0.83L111.75,25H109.05z M129.32,25v-1.89l-0.18-0.41v-3.38c0-0.6-0.19-1.07-0.56-1.4c-0.36-0.34-0.92-0.5-1.67-0.5
	c-0.52,0-1.03,0.08-1.53,0.25c-0.49,0.16-0.91,0.37-1.26,0.65l-1.01-1.96c0.53-0.37,1.16-0.66,1.91-0.86
	c0.74-0.2,1.5-0.31,2.27-0.31c1.48,0,2.62,0.35,3.44,1.04c0.82,0.7,1.22,1.78,1.22,3.26V25H129.32z M126.37,25.14
	c-0.76,0-1.4-0.13-1.94-0.38c-0.54-0.26-0.95-0.62-1.24-1.06s-0.43-0.94-0.43-1.49c0-0.58,0.14-1.08,0.41-1.51
	c0.29-0.43,0.74-0.77,1.35-1.01c0.61-0.25,1.41-0.38,2.39-0.38h2.57v1.64h-2.27c-0.66,0-1.12,0.11-1.37,0.32
	c-0.24,0.22-0.36,0.49-0.36,0.81c0,0.36,0.14,0.65,0.41,0.86c0.29,0.2,0.68,0.31,1.17,0.31c0.47,0,0.89-0.11,1.26-0.32
	c0.37-0.23,0.64-0.56,0.81-0.99l0.43,1.3c-0.2,0.62-0.58,1.1-1.12,1.42C127.91,24.98,127.22,25.14,126.37,25.14z M135.54,28.64
	c-0.5,0-1-0.08-1.49-0.23c-0.49-0.16-0.89-0.37-1.21-0.65l1.03-2c0.22,0.19,0.46,0.34,0.74,0.45c0.29,0.11,0.57,0.16,0.85,0.16
	c0.4,0,0.71-0.1,0.94-0.29c0.24-0.18,0.46-0.49,0.65-0.92l0.5-1.19l0.22-0.31l3.47-8.35h2.7l-4.37,10.28
	c-0.31,0.78-0.67,1.39-1.08,1.84c-0.4,0.44-0.84,0.76-1.33,0.94C136.66,28.55,136.12,28.64,135.54,28.64z M137.19,25.38l-4.32-10.06
	h2.9l3.35,8.1L137.19,25.38z"/>
</svg>
