<?xml version="1.0" standalone="no"?>
<!DOCTYPE svg PUBLIC "-//W3C//DTD SVG 1.1//EN" "http://www.w3.org/Graphics/SVG/1.1/DTD/svg11.dtd">
<svg xmlns="http://www.w3.org/2000/svg" width="148" height="38" viewBox="0 0 148 38" fill="none">
<g clip-path="url(#clip0_706_56)">
<g opacity="0.1">
</g>
<path d="M15.7245 25.18C14.7752 25.1842 13.8384 24.9542 12.9911 24.5089C12.1437 24.0636 11.4099 23.4157 10.8498 22.6184L6.94604 24.9509C7.0946 25.129 7.27046 25.2803 7.46656 25.3986L14.4132 29.5639C14.8192 29.7796 15.2686 29.8921 15.7245 29.8921C16.1804 29.8921 16.6297 29.7796 17.0357 29.5639L23.9824 25.3986C24.1785 25.2803 24.3543 25.129 24.5029 24.9509L20.6092 22.5767C20.0524 23.3832 19.3189 24.04 18.4694 24.4928C17.6199 24.9455 16.6789 25.1811 15.7245 25.18Z" fill="#FECE32"/>
<path d="M9.61237 18.8942C9.61593 17.4133 10.1915 15.9856 11.2291 14.8839C12.2666 13.7823 13.6935 13.084 15.2367 12.9225V8.43372C15.0026 8.48014 14.7773 8.56071 14.5689 8.67259L7.32715 12.6537C6.93354 12.9049 6.60625 13.2396 6.37094 13.6316C6.13558 14.0235 5.99859 14.4621 5.97064 14.913V22.8753C5.97386 23.105 6.01248 23.3331 6.08539 23.5521L10.155 21.3127C9.79915 20.5515 9.61432 19.7276 9.61237 18.8942Z" fill="#FECE32"/>
<path d="M24.1931 12.651L17.3325 8.67244C17.1351 8.56061 16.9217 8.4801 16.6998 8.43372V12.9095C17.6319 13.0158 18.5261 13.3407 19.3105 13.8582C20.0949 14.3757 20.7476 15.0713 21.2159 15.889C21.6843 16.7066 21.9553 17.6235 22.0071 18.5659C22.0589 19.5082 21.89 20.4495 21.5141 21.3142L25.3695 23.5521C25.4386 23.3332 25.4752 23.1053 25.4782 22.8758V14.9187C25.4533 14.4664 25.3242 14.0261 25.1012 13.6325C24.8781 13.239 24.5673 12.903 24.1931 12.651Z" fill="#FECE32"/>
<path d="M29.1904 8.66349L17.8647 2.11342C17.2005 1.77979 16.4676 1.60608 15.7245 1.60608C14.9813 1.60608 14.2485 1.77979 13.5843 2.11342L2.25859 8.66349C1.63693 9.06905 1.11934 9.61531 0.747528 10.2581C0.375763 10.901 0.160252 11.6223 0.118408 12.3639V25.464C0.159472 26.2071 0.374592 26.9302 0.746358 27.5748C1.11812 28.2195 1.63615 28.7675 2.25859 29.1746L13.5843 35.7249C14.2485 36.0584 14.9813 36.2321 15.7245 36.2321C16.4676 36.2321 17.2005 36.0584 17.8647 35.7249L29.1904 29.1746C29.8128 28.7675 30.3308 28.2195 30.7026 27.5748C31.0744 26.9302 31.2895 26.2071 31.3306 25.464V12.3639C31.2887 11.6223 31.0732 10.901 30.7014 10.2581C30.3296 9.61531 29.812 9.06905 29.1904 8.66349ZM27.7362 23.9571C27.703 24.5281 27.5365 25.0832 27.2502 25.5781C26.9639 26.073 26.5657 26.4938 26.0875 26.8068L17.3629 31.85C16.8532 32.1077 16.2903 32.2419 15.7194 32.2419C15.1484 32.2419 14.5854 32.1077 14.0758 31.85L5.36142 26.8068C4.88324 26.4938 4.48504 26.073 4.19876 25.5781C3.91244 25.0832 3.74599 24.5281 3.71273 23.9571V13.881C3.74599 13.31 3.91244 12.7549 4.19876 12.2601C4.48504 11.7651 4.88324 11.3443 5.36142 11.0313L14.0656 5.98812C14.5752 5.73047 15.1381 5.59621 15.7091 5.59621C16.2801 5.59621 16.843 5.73047 17.3527 5.98812L26.0773 11.0313C26.5573 11.3432 26.9576 11.7635 27.2457 12.2585C27.5338 12.7534 27.7018 13.3092 27.7362 13.881V23.9571Z" fill="black"/>
<path d="M11.3353 18.919C11.3353 19.7389 11.5927 20.5404 12.0749 21.2221C12.5572 21.9038 13.2428 22.4351 14.0448 22.7489C14.8468 23.0626 15.7293 23.1447 16.5808 22.9848C17.4322 22.8248 18.2143 22.43 18.8281 21.8503C19.4419 21.2705 19.86 20.5319 20.0294 19.7278C20.1987 18.9236 20.1118 18.0902 19.7796 17.3327C19.4474 16.5752 18.8848 15.9278 18.163 15.4723C17.4412 15.0168 16.5926 14.7737 15.7245 14.7737C14.5604 14.7737 13.444 15.2104 12.6209 15.9878C11.7977 16.7653 11.3353 17.8196 11.3353 18.919Z" fill="black"/>
</g>
<path d="M47.4026 17.476H53.4686V19.744H47.4026V17.476ZM47.6186 22.66H54.4766V25H44.7206V12.4H54.2426V14.74H47.6186V22.66ZM62.486 25V23.11L62.306 22.696V19.312C62.306 18.712 62.12 18.244 61.748 17.908C61.388 17.572 60.83 17.404 60.074 17.404C59.558 17.404 59.048 17.488 58.544 17.656C58.052 17.812 57.632 18.028 57.284 18.304L56.276 16.342C56.804 15.97 57.44 15.682 58.184 15.478C58.928 15.274 59.684 15.172 60.452 15.172C61.928 15.172 63.074 15.52 63.89 16.216C64.706 16.912 65.114 17.998 65.114 19.474V25H62.486ZM59.534 25.144C58.778 25.144 58.13 25.018 57.59 24.766C57.05 24.502 56.636 24.148 56.348 23.704C56.06 23.26 55.916 22.762 55.916 22.21C55.916 21.634 56.054 21.13 56.33 20.698C56.618 20.266 57.068 19.93 57.68 19.69C58.292 19.438 59.09 19.312 60.074 19.312H62.648V20.95H60.38C59.72 20.95 59.264 21.058 59.012 21.274C58.772 21.49 58.652 21.76 58.652 22.084C58.652 22.444 58.79 22.732 59.066 22.948C59.354 23.152 59.744 23.254 60.236 23.254C60.704 23.254 61.124 23.146 61.496 22.93C61.868 22.702 62.138 22.372 62.306 21.94L62.738 23.236C62.534 23.86 62.162 24.334 61.622 24.658C61.082 24.982 60.386 25.144 59.534 25.144ZM70.9134 25.144C70.0854 25.144 69.2874 25.048 68.5194 24.856C67.7634 24.652 67.1634 24.4 66.7194 24.1L67.6554 22.084C68.0994 22.36 68.6214 22.588 69.2214 22.768C69.8334 22.936 70.4334 23.02 71.0214 23.02C71.6694 23.02 72.1254 22.942 72.3894 22.786C72.6654 22.63 72.8034 22.414 72.8034 22.138C72.8034 21.91 72.6954 21.742 72.4794 21.634C72.2754 21.514 71.9994 21.424 71.6514 21.364C71.3034 21.304 70.9194 21.244 70.4994 21.184C70.0914 21.124 69.6774 21.046 69.2574 20.95C68.8374 20.842 68.4534 20.686 68.1054 20.482C67.7574 20.278 67.4754 20.002 67.2594 19.654C67.0554 19.306 66.9534 18.856 66.9534 18.304C66.9534 17.692 67.1274 17.152 67.4754 16.684C67.8354 16.216 68.3514 15.85 69.0234 15.586C69.6954 15.31 70.4994 15.172 71.4354 15.172C72.0954 15.172 72.7674 15.244 73.4514 15.388C74.1354 15.532 74.7054 15.742 75.1614 16.018L74.2254 18.016C73.7574 17.74 73.2834 17.554 72.8034 17.458C72.3354 17.35 71.8794 17.296 71.4354 17.296C70.8114 17.296 70.3554 17.38 70.0674 17.548C69.7794 17.716 69.6354 17.932 69.6354 18.196C69.6354 18.436 69.7374 18.616 69.9414 18.736C70.1574 18.856 70.4394 18.952 70.7874 19.024C71.1354 19.096 71.5134 19.162 71.9214 19.222C72.3414 19.27 72.7614 19.348 73.1814 19.456C73.6014 19.564 73.9794 19.72 74.3154 19.924C74.6634 20.116 74.9454 20.386 75.1614 20.734C75.3774 21.07 75.4854 21.514 75.4854 22.066C75.4854 22.666 75.3054 23.2 74.9454 23.668C74.5854 24.124 74.0634 24.484 73.3794 24.748C72.7074 25.012 71.8854 25.144 70.9134 25.144ZM77.2179 25V15.316H80.0259V25H77.2179ZM78.6219 13.966C78.1059 13.966 77.6859 13.816 77.3619 13.516C77.0379 13.216 76.8759 12.844 76.8759 12.4C76.8759 11.956 77.0379 11.584 77.3619 11.284C77.6859 10.984 78.1059 10.834 78.6219 10.834C79.1379 10.834 79.5579 10.978 79.8819 11.266C80.2059 11.542 80.3679 11.902 80.3679 12.346C80.3679 12.814 80.2059 13.204 79.8819 13.516C79.5699 13.816 79.1499 13.966 78.6219 13.966ZM87.4379 25.144C86.3339 25.144 85.3619 24.928 84.5219 24.496C83.6939 24.064 83.0519 23.476 82.5959 22.732C82.1399 21.976 81.9119 21.118 81.9119 20.158C81.9119 19.186 82.1339 18.328 82.5779 17.584C83.0339 16.828 83.6519 16.24 84.4319 15.82C85.2119 15.388 86.0939 15.172 87.0779 15.172C88.0259 15.172 88.8779 15.376 89.6339 15.784C90.4019 16.18 91.0079 16.756 91.4519 17.512C91.8959 18.256 92.1179 19.15 92.1179 20.194C92.1179 20.302 92.1119 20.428 92.0999 20.572C92.0879 20.704 92.0759 20.83 92.0639 20.95H84.1979V19.312H90.5879L89.5079 19.798C89.5079 19.294 89.4059 18.856 89.2019 18.484C88.9979 18.112 88.7159 17.824 88.3559 17.62C87.9959 17.404 87.5759 17.296 87.0959 17.296C86.6159 17.296 86.1899 17.404 85.8179 17.62C85.4579 17.824 85.1759 18.118 84.9719 18.502C84.7679 18.874 84.6659 19.318 84.6659 19.834V20.266C84.6659 20.794 84.7799 21.262 85.0079 21.67C85.2479 22.066 85.5779 22.372 85.9979 22.588C86.4299 22.792 86.9339 22.894 87.5099 22.894C88.0259 22.894 88.4759 22.816 88.8599 22.66C89.2559 22.504 89.6159 22.27 89.9399 21.958L91.4339 23.578C90.9899 24.082 90.4319 24.472 89.7599 24.748C89.0879 25.012 88.3139 25.144 87.4379 25.144ZM93.9874 25V15.316H96.6694V18.052L96.2914 17.26C96.5794 16.576 97.0414 16.06 97.6774 15.712C98.3134 15.352 99.0874 15.172 99.9994 15.172V17.764C99.8794 17.752 99.7714 17.746 99.6754 17.746C99.5794 17.734 99.4774 17.728 99.3694 17.728C98.6014 17.728 97.9774 17.95 97.4974 18.394C97.0294 18.826 96.7954 19.504 96.7954 20.428V25H93.9874Z" fill="black"/>
<path d="M109.051 25L105.559 15.316H108.205L111.103 23.65H109.843L112.867 15.316H115.243L118.177 23.65H116.917L119.905 15.316H122.389L118.879 25H116.161L113.587 17.854H114.415L111.751 25H109.051ZM129.318 25V23.11L129.138 22.696V19.312C129.138 18.712 128.952 18.244 128.58 17.908C128.22 17.572 127.662 17.404 126.906 17.404C126.39 17.404 125.88 17.488 125.376 17.656C124.884 17.812 124.464 18.028 124.116 18.304L123.108 16.342C123.636 15.97 124.272 15.682 125.016 15.478C125.76 15.274 126.516 15.172 127.284 15.172C128.76 15.172 129.906 15.52 130.722 16.216C131.538 16.912 131.946 17.998 131.946 19.474V25H129.318ZM126.366 25.144C125.61 25.144 124.962 25.018 124.422 24.766C123.882 24.502 123.468 24.148 123.18 23.704C122.892 23.26 122.748 22.762 122.748 22.21C122.748 21.634 122.886 21.13 123.162 20.698C123.45 20.266 123.9 19.93 124.512 19.69C125.124 19.438 125.922 19.312 126.906 19.312H129.48V20.95H127.212C126.552 20.95 126.096 21.058 125.844 21.274C125.604 21.49 125.484 21.76 125.484 22.084C125.484 22.444 125.622 22.732 125.898 22.948C126.186 23.152 126.576 23.254 127.068 23.254C127.536 23.254 127.956 23.146 128.328 22.93C128.7 22.702 128.97 22.372 129.138 21.94L129.57 23.236C129.366 23.86 128.994 24.334 128.454 24.658C127.914 24.982 127.218 25.144 126.366 25.144ZM135.536 28.636C135.032 28.636 134.534 28.558 134.042 28.402C133.55 28.246 133.148 28.03 132.836 27.754L133.862 25.756C134.078 25.948 134.324 26.098 134.6 26.206C134.888 26.314 135.17 26.368 135.446 26.368C135.842 26.368 136.154 26.272 136.382 26.08C136.622 25.9 136.838 25.594 137.03 25.162L137.534 23.974L137.75 23.668L141.224 15.316H143.924L139.55 25.594C139.238 26.374 138.878 26.986 138.47 27.43C138.074 27.874 137.63 28.186 137.138 28.366C136.658 28.546 136.124 28.636 135.536 28.636ZM137.192 25.378L132.872 15.316H135.77L139.118 23.416L137.192 25.378Z" fill="#FECE32"/>
<defs>
<clipPath id="clip0_706_56">
<rect width="31" height="34" fill="white" transform="translate(0 2)"/>
</clipPath>
</defs>
</svg>