<?xml version="1.0" standalone="no"?>
<!DOCTYPE svg PUBLIC "-//W3C//DTD SVG 1.1//EN" "http://www.w3.org/Graphics/SVG/1.1/DTD/svg11.dtd">
<svg xmlns="http://www.w3.org/2000/svg" width="240" height="51" viewBox="0 0 240 51" fill="none">
<path d="M33.8093 0.567612V10.9527L43.1637 0.567612H49.1123L40.2728 10.4376L49.7936 24.3948H43.8451L36.8667 14.1925L33.8093 17.582V24.3948H28.6919V0.567612H33.8093Z" fill="#EE273D"/>
<path d="M63.0688 0.0693493C64.3206 0.0693493 65.5111 0.23316 66.6411 0.559973C67.7711 0.886999 68.6986 1.28254 69.4243 1.748C70.1495 2.21286 70.7924 2.67816 71.3514 3.14302C71.911 3.60848 72.3125 4.00191 72.5566 4.32342L72.9387 4.82167L69.6987 8.06126C69.6321 7.97294 69.5407 7.84799 69.4243 7.68775C69.308 7.52707 69.0477 7.2527 68.6434 6.86523C68.2386 6.47775 67.7987 6.13676 67.3224 5.84356C66.8457 5.55013 66.2206 5.27852 65.4451 5.02905C64.6696 4.78005 63.8774 4.6551 63.0688 4.6551C60.8425 4.6551 58.9819 5.40299 57.4862 6.89883C55.9909 8.39403 55.243 10.2545 55.243 12.4809C55.243 14.7079 55.9909 16.5684 57.4862 18.0642C58.9819 19.5594 60.8425 20.3067 63.0688 20.3067C63.9331 20.3067 64.7611 20.1883 65.5528 19.9496C66.3445 19.712 67.001 19.4296 67.5216 19.1026C68.0422 18.7758 68.5022 18.4462 68.901 18.1139C69.2993 17.7812 69.5878 17.4937 69.7647 17.2497L70.031 16.9007L73.1048 20.1412C73.0161 20.2737 72.8808 20.4479 72.6978 20.6644C72.5149 20.8804 72.1101 21.2624 71.4851 21.8108C70.859 22.3589 70.1884 22.8411 69.4741 23.2567C68.7598 23.6717 67.823 24.0511 66.666 24.3948C65.509 24.7379 64.3092 24.9094 63.0688 24.9094C59.4354 24.9094 56.3697 23.6938 53.8722 21.2624C51.3742 18.8316 50.1257 15.9044 50.1257 12.4809C50.1257 9.05863 51.3742 6.134 53.8722 3.70805C56.3697 1.28254 59.4354 0.0693493 63.0688 0.0693493Z" fill="#EE273D"/>
<path d="M97.4298 0.567612V24.3948H92.3288V5.1703H82.2934V24.3948H77.1755V0.567612H97.4298Z" fill="#EE273D"/>
<path d="M108.662 19.8089H121.422V24.3948H103.544V0.567612H121.074V5.1703H108.662V9.93912H118.349V14.5249H108.662V19.8089Z" fill="#EE273D"/>
<path d="M136.028 5.1703H131.275V11.9664H136.028C137.047 11.9664 137.897 11.6394 138.578 10.9861C139.259 10.3325 139.6 9.5294 139.6 8.5769C139.6 7.6239 139.259 6.8181 138.578 6.15896C137.897 5.50047 137.047 5.1703 136.028 5.1703ZM126.158 0.567612H136.193C138.641 0.567612 140.672 1.33493 142.283 2.86925C143.895 4.40357 144.701 6.30291 144.701 8.56824C144.701 10.8342 143.898 12.7331 142.292 14.2674C140.685 15.8015 138.653 16.5684 136.193 16.5684H131.275V24.3948H126.158V0.567612Z" fill="#EE273D"/>
<path d="M146.911 0.567612H165.62V5.1703H158.824V24.3948H153.723V5.1703H146.911V0.567612Z" fill="#EE273D"/>
<path d="M201.453 0.567612V10.9527L210.808 0.567612H216.756L207.917 10.4376L217.437 24.3948H211.489L204.511 14.1925L201.453 17.582V24.3948H196.336V0.567612H201.453Z" fill="#4A4746"/>
<path d="M229.965 0.0693493C231.216 0.0693493 232.406 0.23316 233.536 0.559973C234.666 0.886999 235.594 1.28254 236.32 1.748C237.045 2.21286 237.688 2.67816 238.247 3.14302C238.807 3.60848 239.208 4.00191 239.452 4.32342L239.834 4.82167L236.594 8.06126C236.527 7.97294 236.436 7.84799 236.32 7.68775C236.203 7.52707 235.943 7.2527 235.539 6.86523C235.134 6.47775 234.694 6.13676 234.218 5.84356C233.741 5.55013 233.116 5.27852 232.34 5.02905C231.565 4.78005 230.773 4.6551 229.965 4.6551C227.738 4.6551 225.877 5.40299 224.381 6.89883C222.886 8.39403 222.138 10.2545 222.138 12.4809C222.138 14.7079 222.886 16.5684 224.381 18.0642C225.877 19.5594 227.738 20.3067 229.965 20.3067C230.828 20.3067 231.656 20.1883 232.449 19.9496C233.24 19.712 233.896 19.4296 234.417 19.1026C234.937 18.7758 235.397 18.4462 235.796 18.1139C236.195 17.7812 236.483 17.4937 236.66 17.2497L236.926 16.9007L240 20.1412C239.911 20.2737 239.776 20.4479 239.593 20.6644C239.41 20.8804 239.006 21.2624 238.38 21.8108C237.754 22.3589 237.084 22.8411 236.37 23.2567C235.655 23.6717 234.719 24.0511 233.561 24.3948C232.404 24.7379 231.205 24.9094 229.965 24.9094C226.331 24.9094 223.266 23.6938 220.767 21.2624C218.269 18.8316 217.021 15.9044 217.021 12.4809C217.021 9.05863 218.269 6.134 220.767 3.70805C223.266 1.28254 226.331 0.0693493 229.965 0.0693493Z" fill="#4A4746"/>
<path d="M12.3554 -1.52588e-05C6.0429 -1.52588e-05 0.823387 4.7141 0 10.8043H4.54668C5.31741 7.1986 8.51896 4.49341 12.3554 4.49341C16.1915 4.49341 19.3933 7.1986 20.1642 10.8043H16.6536C15.9807 9.08571 14.3099 7.86321 12.3554 7.86321C9.80889 7.86321 7.73746 9.93469 7.73746 12.4809C7.73746 15.0276 9.80889 17.0992 12.3554 17.0992C14.279 17.0992 15.9302 15.9163 16.6236 14.2397H20.1429C19.3409 17.8044 16.1619 20.469 12.3554 20.469C8.52529 20.469 5.32818 17.7725 4.55111 14.1741H0.00275968C0.833561 20.257 6.04885 24.9624 12.3554 24.9624C19.2375 24.9624 24.8367 19.3635 24.8367 12.4809C24.8367 5.59896 19.2375 -1.52588e-05 12.3554 -1.52588e-05Z" fill="#EE273D"/>
<path d="M180.014 -1.52588e-05C173.702 -1.52588e-05 168.482 4.7141 167.659 10.8043H172.205C172.976 7.1986 176.178 4.49341 180.014 4.49341C183.851 4.49341 187.052 7.1986 187.823 10.8043H184.312C183.64 9.08571 181.968 7.86321 180.014 7.86321C177.468 7.86321 175.396 9.93469 175.396 12.4809C175.396 15.0276 177.468 17.0992 180.014 17.0992C181.938 17.0992 183.589 15.9163 184.283 14.2397H187.802C187 17.8044 183.82 20.469 180.014 20.469C176.184 20.469 172.987 17.7725 172.21 14.1741H167.662C168.492 20.257 173.708 24.9624 180.014 24.9624C186.896 24.9624 192.495 19.3635 192.495 12.4809C192.495 5.59896 186.896 -1.52588e-05 180.014 -1.52588e-05Z" fill="#4A4746"/>
<path d="M9.6237 45.1626C8.77142 45.8484 7.63504 46.2527 6.4454 46.2527C3.56894 46.2527 1.59803 44.2659 1.59803 41.3297C1.59803 38.411 3.51567 36.4066 6.21457 36.4066C7.51075 36.4066 8.46957 36.7231 9.28634 37.3209L9.97882 36.1956C9.09103 35.4396 7.79485 35 6.19681 35C2.30827 35 0 37.7956 0 41.3297C0 45.1626 2.57461 47.6593 6.30335 47.6593C7.84811 47.6593 9.39288 47.1319 10.2274 46.2879L9.6237 45.1626Z" fill="#9E9E9E"/>
<path d="M18.6809 39.5714H17.0651L15.2185 44.5824C15.0764 45.0044 14.9521 45.4088 14.8456 45.7956C14.6858 45.3912 14.5438 45.0044 14.3662 44.6L12.0224 39.5714H10.3178L14.1531 47.4835L13.9756 47.9055C13.4429 49.1714 12.9457 49.6989 12.271 49.6989C11.9514 49.6989 11.6495 49.5582 11.3832 49.4352L10.9216 50.5077C11.3477 50.789 11.8271 51 12.4308 51C13.5672 51 14.3129 50.3143 15.4848 47.4835L18.6809 39.5714Z" fill="#9E9E9E"/>
<path d="M18.4675 49.4176H19.7992V47.4835H26.2624V49.4176H27.5941V46.1648H26.2624V39.5714H20.8113L20.687 41.6637C20.545 43.8264 19.9945 45.4967 19.4619 46.1648H18.4675V49.4176ZM22.0542 42.2088L22.143 40.8901H24.8419V46.1648H20.9711C21.344 45.6725 21.8767 44.2308 22.0542 42.2088Z" fill="#9E9E9E"/>
<path d="M35.4433 45.5143C34.9284 45.989 34.0228 46.3407 32.993 46.3407C31.4305 46.3407 30.3296 45.4615 30.2053 43.967H36.3489C36.4021 43.7209 36.4376 43.4044 36.4376 43.0176C36.4376 40.8374 34.7863 39.3956 32.7266 39.3956C30.0988 39.3956 28.6073 41.2242 28.6073 43.5275C28.6073 46.0242 30.2941 47.6593 32.8864 47.6593C33.9518 47.6593 35.1059 47.3253 35.8872 46.622L35.4433 45.5143ZM32.6556 40.7143C34.0406 40.7143 34.8929 41.5231 34.9639 42.8242H30.1165C30.2763 41.611 31.1996 40.7143 32.6556 40.7143Z" fill="#9E9E9E"/>
<path d="M44.5438 35C43.727 36.0549 42.6261 35.5626 40.7617 36.3538C38.2227 37.4088 37.7965 40.3978 37.7965 42.7363C37.7965 45.778 39.4301 47.6593 42.0224 47.6593C44.455 47.6593 46.124 45.8132 46.124 43.5978C46.124 41.2242 44.7036 39.6593 42.413 39.6593C41.0636 39.6593 39.7674 40.3978 39.2525 41.5055H39.217C39.3235 40.0286 39.7497 38.3582 41.2412 37.6901C42.999 36.8989 44.3307 37.4088 45.3073 36.1077L44.5438 35ZM39.3058 43C39.5543 41.9802 40.5487 40.978 42.0579 40.978C43.7092 40.978 44.6148 42.1209 44.6148 43.6681C44.6148 45.1451 43.5494 46.3407 41.9869 46.3407C40.4066 46.3407 39.3058 45.0396 39.3058 43Z" fill="#9E9E9E"/>
<path d="M54.0211 47.4835H55.4416V39.5714H54.0211V42.8242H49.5821V39.5714H48.1617V47.4835H49.5821V44.1429H54.0211V47.4835Z" fill="#9E9E9E"/>
<path d="M58.4368 41.2418C59.076 40.9077 59.6619 40.6615 60.6385 40.6615C62.2188 40.6615 62.4496 41.6813 62.4496 43.1582C61.9169 42.7714 61.0824 42.6484 60.461 42.6484C58.7386 42.6484 57.4425 43.5451 57.4425 45.1626C57.4425 46.6923 58.4368 47.6066 59.8928 47.6066C61.2067 47.6066 61.9702 47.0615 62.4496 46.4637V47.4835H63.7991V42.6308C63.7991 40.5736 63.0001 39.3956 60.7273 39.3956C59.733 39.3956 58.7742 39.6769 58.0639 40.1165L58.4368 41.2418ZM60.3899 46.3407C59.4666 46.3407 58.9517 45.8484 58.9517 45.0923C58.9517 44.178 59.804 43.7912 60.6563 43.7912C61.3488 43.7912 61.9525 43.967 62.4496 44.3187V45.3209C62.0412 45.7956 61.4375 46.3407 60.3899 46.3407Z" fill="#9E9E9E"/>
<path d="M69.6756 39.5714C67.0122 39.5714 66.1067 40.8549 66.1067 42.2088C66.1067 43.5099 67.0122 44.3011 67.829 44.4945L65.5207 47.4835H67.243L69.1962 44.8462H70.7409V47.4835H72.1614V39.5714H69.6756ZM67.6159 42.244C67.6159 41.5055 68.1131 40.8901 69.4448 40.8901H70.7409V43.5275H69.1074C68.3972 43.5275 67.6159 43.0527 67.6159 42.244Z" fill="#9E9E9E"/>
<path d="M79.9746 44.0374H83.9164C83.7211 45.4967 82.709 46.3407 81.2352 46.3407C80.3297 46.3407 79.3354 46.1121 78.7849 45.6198L78.1102 46.6571C78.8559 47.378 80.0634 47.6593 81.324 47.6593C83.6678 47.6593 85.3724 45.8308 85.3724 43.5275C85.3724 41.0132 83.6323 39.3956 81.1109 39.3956C80.0811 39.3956 78.8204 39.8 78.0747 40.5209L78.6784 41.5758C79.2998 41.0308 80.1344 40.7143 81.1287 40.7143C82.5669 40.7143 83.6678 41.4352 83.8986 42.8945H79.9746V44.0374Z" fill="#9E9E9E"/>
<path d="M94.4147 39.5714H92.5503L89.1767 43.4396L92.7812 47.4835H94.7521L90.9168 43.3516L94.4147 39.5714ZM87.4189 47.4835H88.8393V39.5714H87.4189V47.4835Z" fill="#9E9E9E"/>
<path d="M101.972 45.3209C101.44 45.9187 100.641 46.3407 99.6817 46.3407C98.1014 46.3407 96.8052 45.2681 96.8052 43.5275C96.8052 41.8571 98.1014 40.7143 99.5396 40.7143C100.374 40.7143 101.155 40.9253 101.83 41.5407L102.487 40.433C101.741 39.6945 100.623 39.3956 99.3443 39.3956C97.0006 39.3956 95.296 41.2242 95.296 43.5275C95.296 46.0242 97.0361 47.6593 99.5752 47.6593C100.8 47.6593 101.972 47.2022 102.647 46.3407L101.972 45.3209Z" fill="#9E9E9E"/>
<path d="M110.269 47.4835H111.69V39.5714H104.499V47.4835H105.919V40.8901H110.269V47.4835Z" fill="#9E9E9E"/>
<path d="M120.564 45.5143C120.049 45.989 119.144 46.3407 118.114 46.3407C116.551 46.3407 115.45 45.4615 115.326 43.967H121.47C121.523 43.7209 121.559 43.4044 121.559 43.0176C121.559 40.8374 119.907 39.3956 117.848 39.3956C115.22 39.3956 113.728 41.2242 113.728 43.5275C113.728 46.0242 115.415 47.6593 118.007 47.6593C119.073 47.6593 120.227 47.3253 121.008 46.622L120.564 45.5143ZM117.776 40.7143C119.161 40.7143 120.014 41.5231 120.085 42.8242H115.237C115.397 41.611 116.321 40.7143 117.776 40.7143Z" fill="#9E9E9E"/>
<path d="M123.486 51H124.906V47.1143C125.474 47.4835 126.309 47.6593 127.161 47.6593C129.665 47.6593 131.316 45.8132 131.316 43.4044C131.316 41.0659 129.895 39.3956 127.623 39.3956C126.522 39.3956 125.456 39.8703 124.906 40.5033V39.5714H123.486V51ZM127.214 40.7143C128.866 40.7143 129.807 41.8571 129.807 43.4571C129.807 45.1275 128.741 46.3407 127.037 46.3407C126.273 46.3407 125.616 46.2 124.906 45.7253V41.8044C125.403 41.189 126.273 40.7143 127.214 40.7143Z" fill="#9E9E9E"/>
<path d="M132.028 40.978H134.957V47.4835H136.378V40.978H139.308V39.5714H132.028V40.978Z" fill="#9E9E9E"/>
<path d="M142.28 47.4835L146.897 41.5934V47.4835H148.317V39.5714H146.897L142.28 45.4615V39.5714H140.86V47.4835H142.28Z" fill="#9E9E9E"/>
<path d="M153.545 47.6593C155.516 47.6593 156.937 46.7626 156.937 45.2857C156.937 44.3714 156.386 43.5451 155.268 43.422V43.3868C156.28 43.0352 156.67 42.2967 156.67 41.5231C156.67 40.222 155.623 39.3956 153.67 39.3956C152.409 39.3956 151.166 39.7824 150.509 40.4505L151.06 41.5407C151.592 41.1187 152.356 40.6615 153.457 40.6615C154.486 40.6615 155.161 41.0835 155.161 41.8044C155.161 42.4374 154.575 42.9297 153.776 42.9297H152.516V44.0725H153.865C154.842 44.0725 155.427 44.4418 155.427 45.0923C155.427 45.8835 154.54 46.3934 153.332 46.3934C152.64 46.3934 151.645 46.0769 150.971 45.5319L150.243 46.5868C150.775 47.2198 152.373 47.6593 153.545 47.6593Z" fill="#9E9E9E"/>
<path d="M159.528 41.2418C160.167 40.9077 160.753 40.6615 161.729 40.6615C163.31 40.6615 163.54 41.6813 163.54 43.1582C163.008 42.7714 162.173 42.6484 161.552 42.6484C159.829 42.6484 158.533 43.5451 158.533 45.1626C158.533 46.6923 159.528 47.6066 160.984 47.6066C162.298 47.6066 163.061 47.0615 163.54 46.4637V47.4835H164.89V42.6308C164.89 40.5736 164.091 39.3956 161.818 39.3956C160.824 39.3956 159.865 39.6769 159.155 40.1165L159.528 41.2418ZM161.481 46.3407C160.557 46.3407 160.042 45.8484 160.042 45.0923C160.042 44.178 160.895 43.7912 161.747 43.7912C162.44 43.7912 163.043 43.967 163.54 44.3187V45.3209C163.132 45.7956 162.528 46.3407 161.481 46.3407Z" fill="#9E9E9E"/>
<path d="M172.677 47.4835L177.294 41.5934V47.4835H178.714V39.5714H177.294L172.677 45.4615V39.5714H171.257V47.4835H172.677Z" fill="#9E9E9E"/>
<path d="M184.752 43.5275C184.752 45.9011 186.456 47.6593 189.013 47.6593C191.57 47.6593 193.275 45.9011 193.275 43.5275C193.275 41.1538 191.57 39.3956 189.013 39.3956C186.456 39.3956 184.752 41.1538 184.752 43.5275ZM186.261 43.5275C186.261 41.8571 187.451 40.7143 189.013 40.7143C190.611 40.7143 191.765 41.8747 191.765 43.5275C191.765 45.2154 190.611 46.3407 189.013 46.3407C187.415 46.3407 186.261 45.1802 186.261 43.5275Z" fill="#9E9E9E"/>
<path d="M195.324 47.4835H202.427V49.4176H203.758V46.1648H202.427V39.5714H201.006V46.1648H196.745V39.5714H195.324V47.4835Z" fill="#9E9E9E"/>
<path d="M211.598 45.5143C211.083 45.989 210.177 46.3407 209.148 46.3407C207.585 46.3407 206.484 45.4615 206.36 43.967H212.503C212.557 43.7209 212.592 43.4044 212.592 43.0176C212.592 40.8374 210.941 39.3956 208.881 39.3956C206.253 39.3956 204.762 41.2242 204.762 43.5275C204.762 46.0242 206.449 47.6593 209.041 47.6593C210.106 47.6593 211.261 47.3253 212.042 46.622L211.598 45.5143ZM208.81 40.7143C210.195 40.7143 211.047 41.5231 211.118 42.8242H206.271C206.431 41.611 207.354 40.7143 208.81 40.7143Z" fill="#9E9E9E"/>
<path d="M220.379 47.4835H221.799V39.5714H220.379V42.8242H215.94V39.5714H214.519V47.4835H215.94V44.1429H220.379V47.4835Z" fill="#9E9E9E"/>
<path d="M231.364 39.5714H229.5L226.126 43.4396L229.731 47.4835H231.701L227.866 43.3516L231.364 39.5714ZM224.368 47.4835H225.789V39.5714H224.368V47.4835Z" fill="#9E9E9E"/>
<path d="M233.638 41.2418C234.277 40.9077 234.863 40.6615 235.839 40.6615C237.42 40.6615 237.651 41.6813 237.651 43.1582C237.118 42.7714 236.283 42.6484 235.662 42.6484C233.94 42.6484 232.643 43.5451 232.643 45.1626C232.643 46.6923 233.638 47.6066 235.094 47.6066C236.408 47.6066 237.171 47.0615 237.651 46.4637V47.4835H239V42.6308C239 40.5736 238.201 39.3956 235.928 39.3956C234.934 39.3956 233.975 39.6769 233.265 40.1165L233.638 41.2418ZM235.591 46.3407C234.668 46.3407 234.153 45.8484 234.153 45.0923C234.153 44.178 235.005 43.7912 235.857 43.7912C236.55 43.7912 237.153 43.967 237.651 44.3187V45.3209C237.242 45.7956 236.638 46.3407 235.591 46.3407Z" fill="#9E9E9E"/>
</svg>