<?xml version="1.0" standalone="no"?>
<!DOCTYPE svg PUBLIC "-//W3C//DTD SVG 1.1//EN" "http://www.w3.org/Graphics/SVG/1.1/DTD/svg11.dtd">
<svg xmlns="http://www.w3.org/2000/svg" width="100" height="54" viewBox="0 0 100 54" fill="none">
<path fill-rule="evenodd" clip-rule="evenodd" d="M50.6445 18.6007C45.9625 18.6044 41.2802 18.6032 36.5982 18.6041C36.2012 18.6041 35.8033 18.6041 35.353 18.6041V13.199H45.2422L50.6445 18.6007Z" fill="#F4F4F4"/>
<path fill-rule="evenodd" clip-rule="evenodd" d="M62.7225 18.6356L74.5456 30.4584H73.7469C71.3876 30.4591 69.0277 30.4682 66.6685 30.4376C66.3811 30.4345 66.0254 30.2826 65.8212 30.0804L65.1602 29.425L48.9342 13.199H63.6119C63.9897 13.2044 64.3839 13.2094 64.761 13.199H65.5181C66.4942 13.199 67.2929 12.4006 67.2929 11.4252L67.2933 8.53879C67.2983 8.23223 67.2964 7.97607 67.2929 7.6777L67.2933 7.21485C67.2933 7.06929 67.275 6.92719 67.2413 6.79108C67.2236 6.71704 67.2009 6.64552 67.1738 6.57746C66.9164 5.91392 66.2699 5.44131 65.5184 5.44131H64.9879H52.5333C48.8129 5.43753 45.0841 5.43375 41.1765 5.44131L35.738 0.00219727C45.8405 0.00408771 55.9424 0.000936973 66.0446 0.00345756C66.7579 0.00408771 67.4319 0.0967193 68.0583 0.27127V0.264338C68.1751 0.299311 68.2898 0.337435 68.4039 0.377765C70.0193 0.924732 71.2786 2.04482 71.996 3.57072C72.4271 4.43181 72.6703 5.40192 72.6703 6.42591V6.73689C72.6873 7.2284 72.6886 7.72149 72.6785 8.2149C72.6794 9.09553 72.6791 9.97521 72.6785 10.8558C72.6788 11.192 72.6876 11.5332 72.6703 11.8694V12.2107C72.6703 15.7436 69.7798 18.6344 66.2466 18.6344L64.8486 18.6341L62.7231 18.6353L62.7225 18.6356Z" fill="#F4F4F4"/>
<path fill-rule="evenodd" clip-rule="evenodd" d="M30.0649 23.8914C30.3217 24.554 30.9667 25.0263 31.7169 25.0263C39.974 25.0263 48.129 25.076 56.4079 25.0931C56.7312 25.0943 57.1458 25.1832 57.3616 25.3927C58.971 26.9492 60.541 28.5482 62.1224 30.1352C62.1832 30.1963 62.2683 30.2779 62.4371 30.454C61.8908 30.4537 61.3832 30.454 60.9478 30.454C51.029 30.4537 41.1108 30.4572 31.192 30.4547C28.6821 30.454 26.3811 29.2987 25.2503 26.894C24.663 25.7216 24.589 24.8202 24.5735 23.5555C24.5685 23.1349 24.5606 22.7158 24.5675 22.2936C24.5679 21.3988 24.5675 20.504 24.5682 19.6098C24.5716 14.0712 24.5871 8.5325 24.5455 2.99383C24.5345 1.41499 25.601 0.0551378 27.4335 0H30.8807L32.0427 0.000630146L37.4903 5.44793C35.3141 5.44667 33.1379 5.44478 30.9616 5.44415C30.6579 5.44415 30.3536 5.44415 29.9849 5.44415C29.9707 5.72614 29.9493 5.9511 29.9493 6.17638C29.9474 11.015 29.9468 15.8535 29.9481 20.6918C29.9481 21.1168 29.857 23.3756 30.0643 23.8914H30.0649Z" fill="#F4F4F4"/>
<g clip-path="url(#clip0_223:140)">
<path fill-rule="evenodd" clip-rule="evenodd" d="M33.104 49.1995C33.104 49.6851 33.1849 50.0898 33.3468 50.454C33.5087 50.8182 33.7515 51.142 34.0348 51.4253C34.3181 51.7086 34.6823 51.9109 35.087 52.0323C35.4917 52.1942 35.9369 52.2347 36.4225 52.2347C36.9081 52.2347 37.3533 52.1537 37.758 52.0323C38.1627 51.8704 38.5269 51.6681 38.8102 51.4253C39.0935 51.142 39.3363 50.8182 39.4982 50.454C39.6601 50.0898 39.741 49.6446 39.741 49.1995C39.741 48.7138 39.6601 48.3091 39.4982 47.9449C39.3363 47.5807 39.0935 47.2569 38.8102 47.0141C38.5269 46.7713 38.1627 46.5689 37.758 46.4071C37.3533 46.2857 36.9081 46.2047 36.4225 46.2047C35.9369 46.2047 35.4917 46.2857 35.087 46.4071C34.6823 46.5285 34.3181 46.7308 34.0348 47.0141C33.7515 47.2569 33.5087 47.5807 33.3468 47.9449C33.1849 48.3091 33.104 48.7543 33.104 49.1995ZM31.2424 49.1995C31.2424 48.5115 31.3638 47.864 31.6066 47.2974C31.8495 46.7308 32.2137 46.2452 32.6588 45.8405C33.104 45.4358 33.6706 45.112 34.3181 44.8692C34.9656 44.6669 35.694 44.5455 36.463 44.5455C37.2319 44.5455 37.9603 44.6669 38.5674 44.8692C39.2149 45.112 39.741 45.3953 40.2266 45.8405C40.6718 46.2452 41.036 46.7308 41.2788 47.2974C41.5216 47.864 41.6431 48.5115 41.6431 49.1995C41.6431 49.8874 41.5216 50.5349 41.2788 51.1015C41.036 51.6681 40.6718 52.1942 40.2266 52.5989C39.7815 53.0036 39.2149 53.3273 38.5674 53.5702C37.9199 53.813 37.2319 53.9344 36.463 53.9344C35.694 53.9344 34.9656 53.813 34.3181 53.5702C33.6706 53.3273 33.1445 53.0036 32.6588 52.5989C32.2137 52.1942 31.8495 51.6681 31.6066 51.1015C31.3638 50.5349 31.2424 49.8874 31.2424 49.1995ZM25.5362 49.6042C25.9004 49.6042 26.1837 49.5637 26.467 49.4827C26.7503 49.4018 26.9526 49.2804 27.1145 49.1185C27.2764 48.9566 27.4383 48.7948 27.5192 48.5924C27.6002 48.3901 27.6406 48.1473 27.6406 47.864C27.6406 47.3783 27.4788 46.9736 27.1145 46.6904C26.7503 46.4071 26.2242 46.2857 25.5362 46.2857H22.7034V49.6042H25.5362ZM20.8822 44.6669H25.4957C26.1837 44.6669 26.7908 44.7478 27.3169 44.8692C27.843 45.0311 28.2477 45.2335 28.6119 45.5167C28.9357 45.8 29.2189 46.1238 29.3808 46.5285C29.5427 46.9332 29.6236 47.3783 29.6236 47.864C29.6236 48.1877 29.5832 48.5115 29.5022 48.8352C29.4213 49.159 29.2999 49.4423 29.138 49.6851C28.9761 49.9279 28.7738 50.1707 28.4905 50.3731C28.2477 50.5754 27.9239 50.7373 27.6002 50.8587L29.5832 53.7725H27.3169L25.6172 51.1825H25.4957H22.7034V53.7725H20.8418V44.6669H20.8822ZM9.59126 44.6669H11.4529V49.6851C11.4529 50.0898 11.4933 50.454 11.6147 50.7778C11.7361 51.1015 11.898 51.3848 12.1408 51.5872C12.3836 51.83 12.6265 51.9918 12.9907 52.0728C13.3144 52.1942 13.7191 52.2347 14.1643 52.2347C14.6095 52.2347 14.9737 52.1942 15.2974 52.0728C15.6212 51.9514 15.9045 51.7895 16.1473 51.5872C16.3901 51.3848 16.552 51.1015 16.6329 50.7778C16.7543 50.454 16.7948 50.0898 16.7948 49.6851V44.6669H18.6159V49.9279C18.6159 50.5349 18.4945 51.0611 18.2922 51.5467C18.0898 52.0323 17.8066 52.437 17.4019 52.8012C17.0376 53.1655 16.552 53.4083 15.9854 53.6106C15.4189 53.813 14.7713 53.8939 14.0834 53.8939C13.3549 53.8939 12.7479 53.813 12.1813 53.6106C11.6147 53.4083 11.1696 53.1655 10.7649 52.8012C10.3602 52.437 10.0769 52.0323 9.87454 51.5467C9.6722 51.0611 9.59126 50.4945 9.59126 49.9279C9.59126 49.9279 9.59126 44.6669 9.59126 44.6669ZM0 44.6669H7.77013V46.2857H1.86159V48.1068H7.08215V49.6446H1.86159V52.1942H7.89154V53.813H0C0 53.813 0 44.6669 0 44.6669Z" fill="#F4F4F4"/>
<path fill-rule="evenodd" clip-rule="evenodd" d="M85.2693 52.1942C85.8358 52.1942 86.3215 52.1133 86.7262 51.9918C87.1309 51.8704 87.4951 51.6681 87.7784 51.3848C88.0617 51.142 88.264 50.8182 88.3854 50.454C88.5068 50.0898 88.5878 49.6851 88.5878 49.1995C88.5878 48.7543 88.5068 48.3496 88.3854 47.9854C88.264 47.6211 88.0212 47.3379 87.7784 47.0546C87.4951 46.8118 87.1713 46.6094 86.7262 46.488C86.3215 46.3666 85.8358 46.2857 85.2693 46.2857H83.3267V52.1942C83.3267 52.1942 85.2693 52.1942 85.2693 52.1942ZM81.4651 44.6669H84.8241C85.7954 44.6669 86.6452 44.7883 87.3737 44.9906C88.1021 45.193 88.7092 45.5167 89.1543 45.881C89.64 46.2857 89.9637 46.7308 90.2065 47.2974C90.4494 47.864 90.5708 48.471 90.5708 49.159C90.5708 49.8065 90.4494 50.4135 90.247 50.9801C90.0042 51.5467 89.6804 52.0323 89.1948 52.437C88.7092 52.8417 88.1426 53.1655 87.4141 53.4083C86.6857 53.6511 85.8358 53.7725 84.8646 53.7725H81.5056L81.4651 44.6669ZM76.6493 50.7373L74.6663 46.6094L72.7642 50.7373H76.6493ZM73.695 44.6669H75.6375L80.0487 53.7725H78.1062L77.3777 52.2347H72.0358L71.3478 53.7725H69.4052L73.695 44.6669ZM59.9354 49.1995C59.9354 49.6851 60.0163 50.0898 60.1782 50.454C60.3401 50.8182 60.5829 51.142 60.8662 51.4253C61.1495 51.7086 61.5137 51.9109 61.9184 52.0323C62.3231 52.1942 62.7683 52.2347 63.2539 52.2347C63.7395 52.2347 64.1847 52.1537 64.5894 52.0323C64.9941 51.8704 65.3583 51.6681 65.6416 51.4253C65.9249 51.142 66.1677 50.8182 66.3296 50.454C66.4914 50.0898 66.5724 49.6446 66.5724 49.1995C66.5724 48.7138 66.4914 48.3091 66.3296 47.9449C66.1677 47.5807 65.9249 47.2569 65.6416 47.0141C65.3583 46.7713 64.9941 46.5689 64.5894 46.4071C64.1847 46.2857 63.7395 46.2047 63.2539 46.2047C62.7683 46.2047 62.3231 46.2857 61.9184 46.4071C61.5137 46.5285 61.1495 46.7308 60.8662 47.0141C60.5829 47.2569 60.3401 47.5807 60.1782 47.9449C60.0163 48.3091 59.9354 48.7543 59.9354 49.1995ZM58.0738 49.1995C58.0738 48.5115 58.1952 47.864 58.438 47.2974C58.6808 46.7308 59.0451 46.2452 59.4902 45.8405C59.9354 45.4358 60.502 45.112 61.1495 44.8692C61.797 44.6264 62.485 44.5455 63.2944 44.5455C64.0633 44.5455 64.7917 44.6669 65.3988 44.8692C66.0463 45.112 66.5724 45.3953 67.058 45.8405C67.5032 46.2452 67.8674 46.7308 68.1102 47.2974C68.353 47.864 68.4744 48.5115 68.4744 49.1995C68.4744 49.8874 68.353 50.5349 68.1102 51.1015C67.8674 51.6681 67.5032 52.1942 67.058 52.5989C66.6129 53.0036 66.0463 53.3273 65.3988 53.5702C64.7513 53.813 64.0633 53.9344 63.2944 53.9344C62.5254 53.9344 61.797 53.813 61.1495 53.5702C60.502 53.3273 59.9759 53.0036 59.4902 52.5989C59.0451 52.1942 58.6808 51.6681 58.438 51.1015C58.2357 50.5349 58.0738 49.8874 58.0738 49.1995ZM52.3676 49.6042C52.7318 49.6042 53.0151 49.5637 53.2984 49.4827C53.5412 49.4018 53.784 49.2804 53.9459 49.1185C54.1078 48.9566 54.2697 48.7948 54.3506 48.5924C54.4316 48.3901 54.472 48.1473 54.472 47.864C54.472 47.3379 54.3101 46.9736 53.9459 46.6904C53.5817 46.4071 53.0556 46.2857 52.3676 46.2857H49.5347V49.6042H52.3676V49.6042ZM47.7136 44.6669H52.3676C53.0556 44.6669 53.6626 44.7478 54.1887 44.8692C54.7148 45.0311 55.1195 45.2335 55.4838 45.5167C55.8075 45.8 56.0908 46.1238 56.2527 46.5285C56.4146 46.9332 56.4955 47.3783 56.4955 47.864C56.4955 48.1877 56.455 48.5115 56.3741 48.8352C56.2931 49.159 56.1717 49.4423 56.0099 49.6851C55.848 49.9279 55.6456 50.1707 55.3623 50.3731C55.1195 50.5754 54.7958 50.7373 54.472 50.8587L56.455 53.7725H54.1887L52.489 51.1825H52.4486H49.6562V53.7725H47.7946L47.7136 44.6669Z" fill="#F4F4F4"/>
<path fill-rule="evenodd" clip-rule="evenodd" d="M98.4623 47.2569C97.2482 46.0023 95.2248 45.9214 93.9297 46.6094C93.1608 47.0141 93.3227 47.783 93.8488 48.0258C95.1438 48.5924 96.9245 48.2686 98.179 48.7138C99.2312 49.1185 100.041 49.8064 100 50.9801C99.9597 52.1941 98.9075 53.3678 97.4506 53.732C94.4154 54.4604 92.3919 53.1654 91.5825 52.1941L92.8371 50.9396C93.1608 51.4657 94.0512 52.356 95.7509 52.3156C96.1556 52.3156 96.6412 52.2346 97.1268 52.0727C97.7339 51.8704 98.3814 51.4657 98.0981 50.6563C97.9362 50.1707 97.3292 50.0897 96.8435 50.0088C95.3866 49.766 93.7274 50.1302 92.4324 49.0375C91.1374 47.9044 91.5421 45.8809 92.999 45.112C94.8605 44.1003 98.1386 44.505 99.5955 46.0023L98.4623 47.2569Z" fill="#F4F4F4"/>
</g>
<defs>
<clipPath id="clip0_223:140">
<rect width="100" height="9.38891" fill="white" transform="translate(0 44.5455)"/>
</clipPath>
</defs>
</svg>