<?xml version="1.0" encoding="UTF-8"?>
<!DOCTYPE svg PUBLIC "-//W3C//DTD SVG 1.1//EN" "http://www.w3.org/Graphics/SVG/1.1/DTD/svg11.dtd">
<!-- Creator: CorelDRAW -->
<svg xmlns="http://www.w3.org/2000/svg" xml:space="preserve" width="289.224mm" height="173.529mm" version="1.1" style="shape-rendering:geometricPrecision; text-rendering:geometricPrecision; image-rendering:optimizeQuality; fill-rule:evenodd; clip-rule:evenodd"
viewBox="0 0 7251.05 4350.5"
 xmlns:xlink="http://www.w3.org/1999/xlink"
 xmlns:xodm="http://www.corel.com/coreldraw/odm/2003">
 <defs>
  <style type="text/css">
   <![CDATA[
    .fil0 {fill:#333335}
    .fil2 {fill:#F6E63E}
    .fil3 {fill:#2B2A29;fill-rule:nonzero}
    .fil1 {fill:url(#id0)}
   ]]>
  </style>
  <linearGradient id="id0" gradientUnits="userSpaceOnUse" x1="3626.22" y1="24.58" x2="3626.23" y2="3430.65">
   <stop offset="0" style="stop-opacity:1; stop-color:#FAAF00"/>
   <stop offset="1" style="stop-opacity:1; stop-color:#FF4A00"/>
  </linearGradient>
 </defs>
 <g id="Слой_x0020_1">
  <metadata id="CorelCorpID_0Corel-Layer"/>
  <g id="_1649464329984">
   <path class="fil0" d="M3625.19 0c-165.31,251.21 -447.69,664.85 -717.83,987.41 -416.8,497.67 -667.65,1183.65 -463.11,1654.42 190.01,437.32 589.87,746.91 1180.94,794.09l0 -3435.92z"/>
   <path class="fil1" d="M3625.19 0c0,0 11.26,535.8 193.34,819.94 182.07,284.14 467.01,427.22 431.15,1001.03 0,0 223.45,-485.53 11.03,-904.85 0,0 512.97,528.96 598.63,1020.7 85.66,491.74 -63.76,1321.46 -1234.16,1499.1l0 -3435.92z"/>
   <polygon class="fil2" points="3537.87,1503.9 3923.95,1503.9 3697.4,2110.15 4121.78,2110.15 3438.95,3268.39 3604.12,2461.13 3234.75,2461.13 "/>
  </g>
  <path fill="#FFFFFF" d="M-0 4350.5l0 -497.56 473.45 0 0 67.5 -390.52 0 0 162.96 222.74 0 0 66.53 -222.74 0 0 200.57 -82.93 0zm697.32 -497.56l0 428.13 362.56 0 0 -428.13 81.96 0 0 379.6c0,45.96 -8.04,77.14 -24.27,93.37 -16.23,16.39 -46.76,24.59 -91.6,24.59l-295.22 0c-45,0 -75.7,-8.36 -91.93,-24.91 -16.23,-16.71 -24.43,-47.73 -24.43,-93.05l0 -379.6 82.93 0zm703.91 497.56l0 -497.56 479.24 0 0 66.53 -396.31 0 0 138.85 242.03 0 0 65.57 -242.03 0 0 158.14 400.17 0 0 68.46 -483.09 0zm680.76 0l0 -497.56 82.93 0 0 428.13 377.03 0 0 69.43 -459.95 0zm990.13 0l0 -497.56 479.24 0 0 66.53 -396.31 0 0 138.85 242.03 0 0 65.57 -242.03 0 0 158.14 400.17 0 0 68.46 -483.09 0zm680.76 0l0 -497.56 52.23 0 372.2 332.83c8.52,7.55 17.52,16.55 27.16,27.32 9.48,10.61 19.29,22.34 29.41,35.2 -2.57,-15.91 -4.34,-32.62 -5.62,-50.14 -1.29,-17.36 -1.93,-41.46 -1.93,-72.16l0 -273.05 76.18 0 0 497.56 -46.61 0 -382.17 -346.01c-1.77,-1.61 -4.66,-4.02 -8.36,-7.55 -18.96,-16.87 -32.95,-33.11 -41.95,-48.37 1.93,14.94 3.21,31.01 4.18,48.21 0.97,17.04 1.45,37.29 1.45,60.43l0 293.29 -76.18 0zm807.89 0l0 -497.56 479.24 0 0 66.53 -396.31 0 0 138.85 242.03 0 0 65.57 -242.03 0 0 158.14 400.17 0 0 68.46 -483.09 0zm1049.43 -432.95l-285.74 0 0 174.53 285.74 0c20.73,0 34.87,-3.7 42.43,-11.25 7.55,-7.55 11.25,-20.73 11.25,-39.53l0 -72.48c0,-18.8 -3.86,-31.98 -11.57,-39.7 -7.71,-7.71 -21.69,-11.57 -42.1,-11.57zm-368.67 432.95l0 -497.56 401.13 0c37.29,0 64.12,7.55 80.52,22.82 16.39,15.27 24.59,39.86 24.59,73.77l0 111.05c0,33.59 -8.2,58.02 -24.59,73.28 -16.39,15.27 -43.23,22.82 -80.52,22.82l-73.12 0 227.24 193.82 -123.43 0 -202.49 -193.82 -146.41 0 0 193.82 -82.93 0zm1200.66 -430.06l-389.56 0 0 360.63 389.56 0 0 -145.6 -201.53 0 0 -63.64 284.45 0 0 160.87c0,45.48 -8.2,76.5 -24.43,93.05 -16.39,16.55 -47.25,24.75 -92.41,24.75l-321.74 0c-45.64,0 -76.5,-8.36 -92.57,-24.91 -16.23,-16.71 -24.27,-47.73 -24.27,-92.89l0 -262.12c0,-45.16 8.04,-76.02 24.27,-92.73 16.07,-16.55 46.93,-24.91 92.57,-24.91l321.74 0c44.68,0 75.21,8.04 91.92,24.27 16.55,16.07 24.91,45.32 24.91,87.75l0 12.21 -82.93 16.55 0 -73.28zm476.18 430.06l0 -216.96 -252.63 -280.6 103.17 0 194.62 221.78 186.42 -221.78 101.09 0 -249.74 278.67 0 218.89 -82.93 0z"/>
 </g>
</svg>
