<?xml version="1.0" standalone="no"?>
<!DOCTYPE svg PUBLIC "-//W3C//DTD SVG 1.1//EN" "http://www.w3.org/Graphics/SVG/1.1/DTD/svg11.dtd">
<svg xmlns="http://www.w3.org/2000/svg" width="324" height="270" viewBox="0 0 324 270" fill="none">
<path d="M20.307 256.017C26.696 256.017 32.4 253.419 35.975 248.987L32.78 245.701C29.89 248.834 25.631 250.515 20.992 250.515C13.386 250.515 7.073 246.083 6.085 237.754H38.637C40.234 222.013 29.738 214.754 19.699 214.754C9.735 214.754 0 222.013 0 235.385C0 248.605 9.659 256.017 20.307 256.017ZM6.085 232.864C7.073 224.535 13.234 220.332 19.775 220.332C26.392 220.332 32.552 224.688 33.008 232.864H6.085Z" fill="white"/>
<path d="M34.613 270H36.515C46.478 270 52.487 266.332 52.487 254.336V215.518H46.098V253.877C46.098 262.206 42.219 264.04 36.363 264.04H34.613V270ZM46.098 206.96H52.487V201H46.098V206.96Z" fill="white"/>
<path d="M96.531 215.518H90.142V237.983C90.142 246.007 85.199 250.133 78.886 250.133C72.573 250.133 67.858 246.007 67.858 237.983V215.518H61.469V238.9C61.469 250.821 68.618 256.017 76.908 256.017C83.753 256.017 88.089 252.578 90.142 248.757V255.252H96.531V215.518Z" fill="white"/>
<path d="M144.454 255.252V201H138.065V223.007H137.837C135.936 218.804 130.384 214.754 123.006 214.754C113.423 214.754 103.612 221.784 103.612 235.385C103.612 248.987 113.423 256.017 123.006 256.017C130.384 256.017 135.936 251.967 137.837 247.764H138.065V255.252H144.454ZM110.001 235.385C110.001 225.528 117.074 220.638 124.071 220.638C131.22 220.638 138.294 225.605 138.294 235.385C138.294 245.166 131.22 250.133 124.071 250.133C117.074 250.133 110.001 245.243 110.001 235.385Z" fill="white"/>
<path d="M153.42 255.252H159.809V215.518H153.42V255.252ZM153.42 206.96H159.809V201H153.42V206.96Z" fill="white"/>
<path d="M187.428 256.017C194.273 256.017 200.738 252.654 204.313 246.236L199.445 243.332C196.935 247.611 192.448 250.133 187.504 250.133C180.355 250.133 173.282 244.784 173.282 235.385C173.282 225.987 180.355 220.638 187.504 220.638C192.448 220.638 196.935 223.159 199.445 227.439L204.313 224.535C200.738 218.04 194.273 214.754 187.428 214.754C177.161 214.754 166.893 222.09 166.893 235.385C166.893 248.681 177.161 256.017 187.428 256.017Z" fill="white"/>
<path d="M228.252 256.017C235.63 256.017 241.182 251.967 243.083 247.764H243.311V255.252H249.7V215.518H243.311V223.007H243.083C241.182 218.804 235.63 214.754 228.252 214.754C218.669 214.754 208.858 221.784 208.858 235.385C208.858 248.987 218.669 256.017 228.252 256.017ZM215.247 235.385C215.247 225.528 222.32 220.638 229.317 220.638C236.466 220.638 243.54 225.605 243.54 235.385C243.54 245.166 236.466 250.133 229.317 250.133C222.32 250.133 215.247 245.243 215.247 235.385Z" fill="white"/>
<path d="M258.666 255.252H265.055V235.309C265.055 226.445 270.455 220.867 277.832 220.867C278.745 220.867 279.353 220.944 280.038 221.096V215.06C279.429 214.831 278.669 214.754 277.756 214.754C270.455 214.754 266.5 219.645 265.055 225.375V215.518H258.666V255.252Z" fill="white"/>
<path d="M294.566 269.771H300.879L307.192 255.252L324 215.518H317.383L304.225 247.306L291.068 215.518H284.451L301.107 254.87L294.566 269.771Z" fill="white"/>
<path d="M160.892 87.2913C161.609 87.7033 162.492 87.7053 163.211 87.2973L233.518 47.4093C235.07 46.5283 237 47.6423 237 49.4193L236.932 85.3052C236.932 86.1242 236.497 86.8813 235.788 87.2973L162.105 130.802C161.383 131.227 160.487 131.232 159.76 130.816L132.732 114.666C132.009 114.253 131.564 113.488 131.564 112.66V75.7743C131.564 73.9923 133.505 72.8793 135.057 73.7713L160.892 87.2913Z" fill="white"/>
<path d="M129.141 59.2972C128.417 59.7122 127.524 59.7102 126.802 59.2902L94.944 40.7743C93.391 39.8713 93.411 37.6332 94.98 36.7582L160.357 0.29625C161.065 -0.09875 161.928 -0.09875 162.636 0.29625L228.037 36.7703C229.611 37.6483 229.625 39.8953 228.062 40.7923L196.01 59.2033C195.291 59.6163 194.405 59.6172 193.685 59.2062L162.576 41.4403C161.856 41.0293 160.971 41.0303 160.252 41.4423L129.141 59.2972Z" fill="white"/>
<path d="M122.603 66.7442C123.323 67.1572 123.767 67.9212 123.767 68.7482V118.439C123.767 119.256 124.201 120.013 124.908 120.43L160.317 141.287C161.045 141.716 161.949 141.718 162.68 141.294L233.496 100.665C235.048 99.7622 237 100.875 237 102.662V139.471C237 140.317 236.535 141.096 235.788 141.502L162.613 180.717C161.917 181.094 161.076 181.094 160.38 180.717L88.212 141.526C87.465 141.12 87 140.341 87 139.495V50.3162C87 48.5352 88.94 47.4212 90.492 48.3122L122.603 66.7442Z" fill="white"/>
</svg>