<?xml version="1.0" standalone="no"?>
<!DOCTYPE svg PUBLIC "-//W3C//DTD SVG 1.1//EN" "http://www.w3.org/Graphics/SVG/1.1/DTD/svg11.dtd">
<svg xmlns="http://www.w3.org/2000/svg" width="208" height="55" viewBox="0 0 208 55" fill="none">
<path d="M27.3693 13.5692L24.6709 11.9959L21.9725 13.5692V24.3852H16.9612V10.4227L24.6709 6.09629L32.1878 10.4227V16.1257L37.5846 19.2721V10.4227L39.7047 9.04611L24.6709 0L9.82981 9.04611L11.95 10.4227V24.3852H6.93869V13.5692L4.24031 11.9959L0 14.9457L1.73467 16.1257V37.3644L0 38.7409L4.24031 41.8874L6.93869 40.3142V29.4982H21.9725V40.3142L24.6709 41.8874L27.3693 40.3142V29.4982H32.1878V43.6573L24.6709 47.7871L16.9612 43.6573V37.3644L11.95 34.8079V43.6573L9.82981 45.2305L24.6709 54.08L39.7047 45.2305L37.5846 43.6573V29.4982H42.4031V40.3142L45.2942 41.8874L49.92 38.7409L47.7998 37.3644V16.1257L49.92 14.9457L45.2942 11.9959L42.4031 13.5692V24.3852H27.3693V13.5692Z" fill="url(#paint0_linear_1_33)"/>
<path d="M63.7867 35.7341V44.3021H64.6122V41.072H66.8884C68.5577 41.072 69.7049 39.9913 69.7049 38.4001C69.7049 36.8088 68.5637 35.7341 66.8945 35.7341H63.7867ZM64.6122 36.4584H66.7002C68.0538 36.4584 68.8551 37.1828 68.8551 38.4001C68.8551 39.6173 68.0478 40.3476 66.7002 40.3476H64.6122V36.4584Z" fill="#FFFBFB"/>
<path d="M72.1195 44.3021H72.9207V40.3357C72.9207 39.3026 73.5156 38.5901 74.4443 38.5901C74.7235 38.5901 74.9542 38.6316 75.0634 38.6791V37.9013C74.9602 37.8716 74.766 37.836 74.5536 37.836C73.7402 37.836 73.121 38.2813 72.8965 39.0413H72.8722V37.9072H72.1195V44.3021Z" fill="#FFFBFB"/>
<path d="M79.4751 44.3733C81.2718 44.3733 82.4494 43.0967 82.4494 41.1017C82.4494 39.1066 81.2718 37.836 79.4751 37.836C77.6784 37.836 76.5069 39.1066 76.5069 41.1017C76.5069 43.0967 77.6784 44.3733 79.4751 44.3733ZM79.4751 43.6667C78.1518 43.6667 77.3263 42.6989 77.3263 41.1017C77.3263 39.5104 78.1518 38.5366 79.4751 38.5366C80.8044 38.5366 81.6299 39.5045 81.6299 41.1017C81.6299 42.6989 80.8044 43.6667 79.4751 43.6667Z" fill="#FFFBFB"/>
<path d="M85.1432 44.3021H85.9505V38.5663H87.2798V37.9072H85.9505V37.1888C85.9566 36.5 86.2419 36.2269 86.8246 36.2269C86.9885 36.2269 87.1645 36.2447 87.298 36.2744V35.6153C87.1342 35.5797 86.9581 35.5619 86.7578 35.5619C85.6713 35.5619 85.1432 36.0547 85.1432 37.1769V37.9072H84.2327V38.5663H85.1432V44.3021Z" fill="#FFFBFB"/>
<path d="M91.8857 38.5307C93.0694 38.5307 93.8706 39.3857 93.8827 40.6564H89.8159C89.8887 39.3857 90.7142 38.5307 91.8857 38.5307ZM93.8402 42.4911C93.646 43.1917 92.948 43.6786 91.9646 43.6786C90.6657 43.6786 89.8159 42.788 89.8159 41.3392V41.2976H94.7204V40.9532C94.7204 39.0532 93.6157 37.836 91.8979 37.836C90.1376 37.836 88.9843 39.1363 88.9843 41.1195C88.9843 43.1324 90.1376 44.3733 91.9464 44.3733C93.3668 44.3733 94.4412 43.5836 94.6354 42.4911H93.8402Z" fill="#FFFBFB"/>
<path d="M96.9529 39.6291C96.9529 40.4723 97.5114 40.9948 98.6404 41.2739L99.7451 41.547C100.631 41.7608 100.965 42.0576 100.965 42.598C100.965 43.2749 100.285 43.7142 99.3081 43.7142C98.3187 43.7142 97.6692 43.2333 97.5721 42.503H96.7587C96.8497 43.5896 97.8573 44.3733 99.2595 44.3733C100.728 44.3733 101.779 43.6252 101.779 42.5445C101.779 41.6361 101.281 41.1729 99.9697 40.8523L98.9681 40.6148C98.1366 40.4129 97.7481 40.1101 97.7481 39.5876C97.7481 38.9404 98.4036 38.501 99.2777 38.501C100.2 38.501 100.801 38.9819 100.88 39.7063H101.651C101.584 38.6079 100.625 37.836 99.302 37.836C97.9545 37.836 96.9529 38.5722 96.9529 39.6291Z" fill="#FFFBFB"/>
<path d="M104.011 39.6291C104.011 40.4723 104.569 40.9948 105.699 41.2739L106.803 41.547C107.689 41.7608 108.023 42.0576 108.023 42.598C108.023 43.2749 107.343 43.7142 106.366 43.7142C105.377 43.7142 104.727 43.2333 104.63 42.503H103.817C103.908 43.5896 104.915 44.3733 106.318 44.3733C107.787 44.3733 108.837 43.6252 108.837 42.5445C108.837 41.6361 108.339 41.1729 107.028 40.8523L106.026 40.6148C105.195 40.4129 104.806 40.1101 104.806 39.5876C104.806 38.9404 105.462 38.501 106.336 38.501C107.258 38.501 107.859 38.9819 107.938 39.7063H108.709C108.642 38.6079 107.683 37.836 106.36 37.836C105.013 37.836 104.011 38.5722 104.011 39.6291Z" fill="#FFFBFB"/>
<path d="M111.263 44.3021H112.065V37.9072H111.263V44.3021ZM111.664 36.6425C111.961 36.6425 112.204 36.3991 112.204 36.1141C112.204 35.8172 111.961 35.5797 111.664 35.5797C111.367 35.5797 111.118 35.8172 111.118 36.1141C111.118 36.3991 111.367 36.6425 111.664 36.6425Z" fill="#FFFBFB"/>
<path d="M117.454 44.3733C119.25 44.3733 120.428 43.0967 120.428 41.1017C120.428 39.1066 119.25 37.836 117.454 37.836C115.657 37.836 114.485 39.1066 114.485 41.1017C114.485 43.0967 115.657 44.3733 117.454 44.3733ZM117.454 43.6667C116.13 43.6667 115.305 42.6989 115.305 41.1017C115.305 39.5104 116.13 38.5366 117.454 38.5366C118.783 38.5366 119.608 39.5045 119.608 41.1017C119.608 42.6989 118.783 43.6667 117.454 43.6667Z" fill="#FFFBFB"/>
<path d="M122.794 44.3021H123.595V40.5435C123.595 39.3501 124.336 38.5366 125.501 38.5366C126.612 38.5366 127.243 39.1838 127.243 40.312V44.3021H128.044V40.1873C128.044 38.7385 127.164 37.836 125.726 37.836C124.67 37.836 123.935 38.3051 123.571 39.1007H123.547V37.9072H122.794V44.3021Z" fill="#FFFBFB"/>
<path d="M132.79 43.6846C131.879 43.6846 131.26 43.2155 131.26 42.5267C131.26 41.8083 131.843 41.3926 132.942 41.3214L134.854 41.1907V41.8973C134.854 42.9067 133.961 43.6846 132.79 43.6846ZM132.632 44.3733C133.634 44.3733 134.52 43.8567 134.872 43.0789H134.89V44.3021H135.655V39.9438C135.655 38.6554 134.702 37.836 133.203 37.836C131.831 37.836 130.799 38.6316 130.732 39.7538H131.503C131.649 38.9938 132.286 38.5366 133.197 38.5366C134.253 38.5366 134.854 39.0769 134.854 40.0092V40.5554L132.845 40.686C131.279 40.7929 130.441 41.4283 130.441 42.5208C130.441 43.6252 131.327 44.3733 132.632 44.3733Z" fill="#FFFBFB"/>
<path d="M138.367 44.3021H139.168V35.36H138.367V44.3021Z" fill="#FFFBFB"/>
<path d="M146.268 36.3753V37.9072H145.333V38.5663H146.268V42.7286C146.268 43.8805 146.705 44.3377 147.785 44.3377C147.955 44.3377 148.307 44.3199 148.392 44.2961V43.6252C148.344 43.6311 148.028 43.6489 147.943 43.6489C147.336 43.6489 147.069 43.3639 147.069 42.6989V38.5663H148.362V37.9072H147.069V36.3753H146.268Z" fill="#FFFBFB"/>
<path d="M153.144 38.5307C154.327 38.5307 155.129 39.3857 155.141 40.6564H151.074C151.147 39.3857 151.972 38.5307 153.144 38.5307ZM155.098 42.4911C154.904 43.1917 154.206 43.6786 153.223 43.6786C151.924 43.6786 151.074 42.788 151.074 41.3392V41.2976H155.978V40.9532C155.978 39.0532 154.874 37.836 153.156 37.836C151.396 37.836 150.242 39.1363 150.242 41.1195C150.242 43.1324 151.396 44.3733 153.204 44.3733C154.625 44.3733 155.699 43.5836 155.893 42.4911H155.098Z" fill="#FFFBFB"/>
<path d="M160.433 43.6846C159.522 43.6846 158.903 43.2155 158.903 42.5267C158.903 41.8083 159.486 41.3926 160.584 41.3214L162.496 41.1907V41.8973C162.496 42.9067 161.604 43.6846 160.433 43.6846ZM160.275 44.3733C161.276 44.3733 162.162 43.8567 162.515 43.0789H162.533V44.3021H163.298V39.9438C163.298 38.6554 162.345 37.836 160.845 37.836C159.473 37.836 158.442 38.6316 158.375 39.7538H159.146C159.291 38.9938 159.929 38.5366 160.839 38.5366C161.895 38.5366 162.496 39.0769 162.496 40.0092V40.5554L160.487 40.686C158.921 40.7929 158.083 41.4283 158.083 42.5208C158.083 43.6252 158.97 44.3733 160.275 44.3733Z" fill="#FFFBFB"/>
<path d="M165.949 44.3021H166.75V40.401C166.75 39.3026 167.448 38.5366 168.419 38.5366C169.318 38.5366 169.931 39.1482 169.931 40.0626V44.3021H170.732V40.306C170.732 39.2729 171.412 38.5366 172.389 38.5366C173.348 38.5366 173.913 39.1423 173.913 40.1398V44.3021H174.72V39.9617C174.72 38.6672 173.882 37.836 172.608 37.836C171.624 37.836 170.847 38.3882 170.538 39.1779H170.52C170.271 38.3704 169.579 37.836 168.632 37.836C167.703 37.836 167.005 38.3466 166.726 39.1007H166.702V37.9072H165.949V44.3021Z" fill="#FFFBFB"/>
<path d="M76.9706 27.3333V11.8344H73.7955V18.1285H66.9617V11.8344H63.7867V27.3333H66.9617V20.803H73.7955V27.3333H76.9706Z" fill="#DDDDDD"/>
<path d="M89.8811 15.5078H86.8112V22.2422C86.8112 23.8426 85.9175 24.8952 84.4877 24.8952C83.0684 24.8952 82.2904 24.0359 82.2904 22.4355V15.5078H79.2204V23.0907C79.2204 25.8404 80.8711 27.5052 83.3733 27.5052C85.129 27.5052 86.2645 26.6781 86.8532 25.1959H86.9163V27.3333H89.8811V15.5078Z" fill="#DDDDDD"/>
<path d="M91.7735 18.9878C91.7735 20.717 92.8985 21.8663 95.0748 22.3711L97.209 22.8652C98.2603 23.123 98.6599 23.4452 98.6599 24.0574C98.6599 24.8307 97.9134 25.3141 96.6938 25.3141C95.4217 25.3141 94.6332 24.7555 94.486 23.7567H91.4897C91.6474 26.0337 93.5608 27.5374 96.6097 27.5374C99.6376 27.5374 101.709 26.023 101.709 23.7244C101.709 21.963 100.784 21.05 98.4601 20.513L96.2838 20.0296C95.243 19.7826 94.7383 19.3852 94.7383 18.7944C94.7383 18.0318 95.4743 17.527 96.5782 17.527C97.7557 17.527 98.5232 18.1178 98.5863 19.0522H101.425C101.383 16.7967 99.4799 15.3037 96.6202 15.3037C93.687 15.3037 91.7735 16.7644 91.7735 18.9878Z" fill="#DDDDDD"/>
<path d="M104.127 12.8763V15.5078H102.56V17.8815H104.127V24.1433C104.127 26.4526 105.178 27.3763 107.859 27.3763C108.479 27.3763 109.026 27.3118 109.342 27.2474V24.9274C109.152 24.9596 108.847 24.9811 108.574 24.9811C107.638 24.9811 107.197 24.5407 107.197 23.6278V17.8815H109.342V15.5078H107.197V12.8763H104.127Z" fill="#DDDDDD"/>
<path d="M111.192 27.3333H114.262V11.0933H111.192V27.3333Z" fill="#DDDDDD"/>
<path d="M121.59 17.6452C123.009 17.6452 123.997 18.6548 124.05 20.2015H119.056C119.161 18.687 120.191 17.6452 121.59 17.6452ZM124.092 23.7244C123.798 24.6374 122.883 25.1959 121.726 25.1959C120.107 25.1959 119.024 24.0467 119.024 22.3389V22.1455H127.015V21.1789C127.015 17.5807 124.891 15.3037 121.558 15.3037C118.162 15.3037 115.997 17.7096 115.997 21.4689C115.997 25.2281 118.152 27.5374 121.674 27.5374C124.491 27.5374 126.584 26.0122 126.92 23.7244H124.092Z" fill="#DDDDDD"/>
<path d="M128.665 27.3333H131.735V20.717C131.735 19.063 132.65 18.0748 134.206 18.0748C134.658 18.0748 135.079 18.15 135.341 18.2574V15.4863C135.121 15.4111 134.805 15.3681 134.448 15.3681C133.081 15.3681 132.082 16.163 131.693 17.6237H131.63V15.5078H128.665V27.3333Z" fill="#DDDDDD"/>
<path d="M139.463 17.8815L140.903 11.8344H138.033L136.96 17.8815H139.463Z" fill="#DDDDDD"/>
<path d="M141.271 18.9878C141.271 20.717 142.396 21.8663 144.572 22.3711L146.706 22.8652C147.758 23.123 148.157 23.4452 148.157 24.0574C148.157 24.8307 147.411 25.3141 146.191 25.3141C144.919 25.3141 144.131 24.7555 143.983 23.7567H140.987C141.145 26.0337 143.058 27.5374 146.107 27.5374C149.135 27.5374 151.206 26.023 151.206 23.7244C151.206 21.963 150.281 21.05 147.958 20.513L145.781 20.0296C144.74 19.7826 144.236 19.3852 144.236 18.7944C144.236 18.0318 144.972 17.527 146.076 17.527C147.253 17.527 148.021 18.1178 148.084 19.0522H150.922C150.88 16.7967 148.977 15.3037 146.118 15.3037C143.184 15.3037 141.271 16.7644 141.271 18.9878Z" fill="#DDDDDD"/>
<path d="M157.083 22.9189C157.178 25.8296 159.501 27.6018 163.15 27.6018C166.913 27.6018 169.3 25.7007 169.3 22.6933C169.3 20.3304 167.975 18.9985 164.937 18.3326L163.097 17.9352C161.352 17.527 160.616 16.99 160.616 16.0341C160.616 14.8848 161.667 14.1222 163.234 14.1222C164.821 14.1222 165.946 14.917 166.051 16.2274H169.027C168.974 13.4241 166.756 11.5659 163.223 11.5659C159.838 11.5659 157.42 13.4563 157.42 16.3133C157.42 18.5796 158.797 20.0296 161.594 20.6418L163.57 21.0822C165.399 21.5011 166.125 22.0596 166.125 23.0692C166.125 24.2078 164.968 25.0348 163.276 25.0348C161.594 25.0348 160.29 24.197 160.143 22.9189H157.083Z" fill="#DDDDDD"/>
<path d="M171.119 27.3333H174.189V20.6204C174.189 19.0307 175.082 17.9459 176.596 17.9459C178.058 17.9459 178.815 18.8804 178.815 20.427V27.3333H181.885V19.7718C181.885 17.033 180.402 15.3359 177.837 15.3359C176.071 15.3359 174.851 16.1307 174.199 17.6237H174.136V11.0933H171.119V27.3333Z" fill="#DDDDDD"/>
<path d="M189.202 27.5374C192.713 27.5374 194.911 25.2496 194.911 21.4152C194.911 17.6237 192.692 15.3037 189.202 15.3037C185.722 15.3037 183.493 17.6344 183.493 21.4152C183.493 25.2389 185.69 27.5374 189.202 27.5374ZM189.202 25.1207C187.583 25.1207 186.605 23.7674 186.605 21.4152C186.605 19.0952 187.583 17.7096 189.202 17.7096C190.81 17.7096 191.788 19.0844 191.788 21.4152C191.788 23.7674 190.821 25.1207 189.202 25.1207Z" fill="#DDDDDD"/>
<path d="M203.248 15.3681C201.618 15.3681 200.262 16.1952 199.652 17.527H199.589V15.5078H196.561V31.2H199.631V25.3463H199.694C200.325 26.6889 201.618 27.473 203.29 27.473C206.192 27.473 208 25.1744 208 21.4152C208 17.6559 206.181 15.3681 203.248 15.3681ZM202.228 24.9381C200.662 24.9381 199.621 23.5526 199.621 21.4259C199.621 19.31 200.662 17.903 202.228 17.903C203.816 17.903 204.856 19.2885 204.856 21.4152C204.856 23.5633 203.816 24.9381 202.228 24.9381Z" fill="#DDDDDD"/>
<defs>
<linearGradient id="paint0_linear_1_33" x1="24.96" y1="0" x2="24.96" y2="54.08" gradientUnits="userSpaceOnUse">
<stop stop-color="#79BA5B"/>
<stop offset="1" stop-color="#679331"/>
</linearGradient>
</defs>
</svg>