<?xml version="1.0" encoding="utf-8"?>
<!-- Generator: Adobe Illustrator 27.9.0, SVG Export Plug-In . SVG Version: 6.00 Build 0)  -->
<svg version="1.1" id="Layer_1" xmlns="http://www.w3.org/2000/svg" xmlns:xlink="http://www.w3.org/1999/xlink" x="0px" y="0px"
	 viewBox="0 0 11505 11270" style="enable-background:new 0 0 11505 11270;" xml:space="preserve">
<style type="text/css">
	.st0{fill-rule:evenodd;clip-rule:evenodd;fill:#88CA0C;}
	.st1{fill-rule:evenodd;clip-rule:evenodd;fill:#FFFFFF;}
</style>
<g>
	<path class="st0" d="M8456.64,2623.29l-1441.3-1416.51C6665.92,863.5,6209.67,679.14,5751.75,674.5
		c-457.23,4.64-913.48,189-1262.9,532.29L3046.53,2623.29c-707.15,695.17-707.15,1821.98,0,2517.2l183.55,178.86
		c323.31,318.62,2011.37,1045.92,2162.93,1107V3675.73c0-84.21-58.91-159.91-138.95-191.05l-899.17-351.25
		c-74.89,62.75-170.9,100.87-276.88,100.87c-237.43,0-431.12-193.35-431.12-431.8c0-238.46,193.69-431.46,431.12-431.46
		c221.29,0,401.52,165.06,428.48,378.56l875.53,342.09c118.8,46.43,244.12,70.37,369.74,71.86
		c126.94-1.49,252.43-25.43,371.23-71.86l874.72-342.09c26.11-213.49,208-378.56,428.48-378.56
		c238.24,0,431.93,193.01,431.93,431.46c0,238.46-193.69,431.8-431.93,431.8c-105.17,0-202.85-38.12-276.88-100.87l-899.21,351.25
		c-79.19,31.14-138.1,106.83-138.1,191.05v2750.63c150.75-61.08,1837.96-788.38,2162.93-1107l181.72-178.86
		C9163.95,4445.28,9163.95,3318.47,8456.64,2623.29z M5751.75,2557.91c-287.19,0-520.32-233.3-520.32-521
		c0-287.7,233.13-520.96,520.32-520.96c287.87,0,521.13,233.26,521.13,520.96C6272.88,2324.6,6039.62,2557.91,5751.75,2557.91z"/>
	<rect x="1179.27" y="7266.31" class="st1" width="299.51" height="1874.6"/>
	<polygon class="st1" points="2560.84,9140.91 2261.18,9140.91 2261.18,7530.72 1710.57,7533.36 1710.57,7266.32 3114.77,7266.32 
		3114.77,7533.36 2560.84,7530.72 	"/>
	<path class="st1" d="M5289.5,7861.48c0,85.19-15.97,164.59-46.39,237.82c-30.29,73.35-74.08,137.08-131.28,191.81
		c-55.59,54.91-124.64,98.01-205.53,129.32c-79.87,31.44-170.04,47.24-270.19,47.24h-328.29v673.24h-301.37V7266.32h645.64
		c100.32,0,189.51,15.46,268.53,46.09c79.23,30.63,145.77,72.71,199.69,126.64c55.55,53.54,97.67,116.29,126.3,188.66
		C5275.18,7700.08,5289.5,7777.99,5289.5,7861.48z M4989.66,7861.48c0-100.14-30.29-179.84-86.68-239.44
		c-57.25-59.04-141.42-88.69-250.89-88.69h-344.27v667.57h328.29c110.28,0,197.01-30.29,260.22-90.35
		C4957.71,8050.35,4989.66,7967.16,4989.66,7861.48z"/>
	<path class="st1" d="M6935.47,9140.91h-311.64l-164.08-461.75h-725.8l-161.57,461.75h-310.66l683.55-1874.59h306.48
		L6935.47,9140.91z M6228.96,8022.75L6101,7577.79h-4.98l-127.96,444.96l-138.95,397.68h538.8L6228.96,8022.75z"/>
	<path class="st1" d="M8509.71,7839.2c0,129.79-36.93,242.29-111.13,338.13c-74.08,95.33-173.41,162.38-298.01,201.65l442.92,761.92
		h-323.31l-416.81-717.67H7477.6v717.67h-300.52V7266.32h686.87c101.98,0,193.69,14.78,274.53,44.43
		c80.04,29.6,148.11,70.71,202.85,122.29c54.74,52.22,96.01,112.8,124.64,182.53C8495.4,7684.96,8509.71,7759.67,8509.71,7839.2z
		 M8209.2,7839.2c0-92.69-28.58-166.72-85.83-222.31c-58.1-55.55-143.94-83.53-259.41-83.53H7477.6v622.8h378.04
		c111.99,0,197.82-28.58,260.05-86C8178.91,8012.91,8209.2,7935.56,8209.2,7839.2z"/>
	<path class="st1" d="M9132.86,9140.91h-300.69v-1874.6h300.69V9140.91z M9513.42,8145.05l812.32,995.86h-356.07l-731.64-903.86
		V8064.5l718.13-798.17h344.27L9513.42,8145.05z"/>
	<path class="st1" d="M1369.12,10145.72c-84.17,0-137.93,19.64-137.93,92.86c0,47.58,26.45,74.71,120.12,81.36
		c113.18,8.82,163.4,49.58,163.4,137.12c0,100.49-76.55,138.44-191.85,138.44c-42.09,0-97.84-7.5-134.09-19.13l13.8-43.28
		c28.63,10.82,82.38,17.64,119.65,17.64c83.53,0,141.25-19.64,141.25-92.99c0-46.77-25.94-84.85-119.78-91.54
		c-113.18-8.14-164.42-39.44-164.42-126.3c0-101,73.91-138.27,189.04-138.27c41.4,0,93.5,7.5,130.43,18.32l-13.8,44.09
		C1463.47,10153.22,1407.75,10145.72,1369.12,10145.72z"/>
	<polygon class="st1" points="1813.74,10586 1764.16,10586 1764.16,10153.9 1600.25,10153.9 1600.25,10113.14 1977.48,10113.14 
		1977.48,10153.9 1813.74,10153.9 	"/>
	<path class="st1" d="M2307.61,10440.11h-230.66c-16.61,48.22-33.1,96.31-48.56,145.89h-48.43
		c54.27-158.08,112.84-314.79,178.56-472.87h83.36c53.72,159.4,120.76,341.92,177.84,472.87h-54.74
		C2346.2,10540.42,2326.73,10491.69,2307.61,10440.11z M2188.63,10151.05c-34.29,84.21-66.41,166.25-96.52,248.3h200.67
		c-29.31-80.04-58.4-165.4-84.68-248.3H2188.63z"/>
	<path class="st1" d="M2741.2,10113.14c105.34,0,134.14,64.41,134.14,137.12c0,66.36-32.46,124.76-136.14,124.76
		c33.78,11.5,93.71,91.54,165.57,210.98h-60.91c-75.69-132.26-137.93-204.97-173.37-204.97h-91.33V10586h-48.94v-472.87H2741.2z
		 M2579.16,10153.9v184.53h158.71c55.42,0,83.36-34.63,83.36-89.03c0-61.72-28.28-95.5-80.04-95.5H2579.16z"/>
	<polygon class="st1" points="3174.83,10586 3124.91,10586 3124.91,10153.9 2960.83,10153.9 2960.83,10113.14 3338.06,10113.14 
		3338.06,10153.9 3174.83,10153.9 	"/>
	<polygon class="st1" points="3728.25,10113.14 3728.25,10543.28 3972.2,10543.28 3972.2,10586 3679.01,10586 3679.01,10113.14 	"/>
	<path class="st1" d="M4061.05,10347.25c0-192.67,67.69-245.61,214.47-245.61c147.08,0,215.16,52.95,215.16,245.61
		c0,195.35-67.43,248.25-215.16,248.25C4128.1,10595.5,4061.05,10542.59,4061.05,10347.25z M4113.79,10348.57
		c0,164.89,41.28,204.17,161.74,204.17c121.44,0,163.06-39.28,163.06-204.17c0-173.71-41.62-205.66-163.06-205.66
		C4155.06,10142.91,4113.79,10174.86,4113.79,10348.57z"/>
	<path class="st1" d="M4829.62,10101.64c42.09,0,95.67,7.5,132.26,18.32l-15.63,44.09c-28.46-11.63-79.36-18.32-115.99-18.32
		c-119.31,0-164.21,25.64-164.21,199.35c0,173.07,44.9,205.66,164.21,205.66c36.63,0,87.53-6.82,115.99-17.64l15.63,43.28
		c-36.59,11.63-90.18,19.13-132.26,19.13c-146.45,0-216.48-57.72-216.48-250.42C4613.15,10151.9,4683.18,10101.64,4829.62,10101.64z
		"/>
	<path class="st1" d="M5352.58,10440.11h-230.62c-17.17,48.22-33.14,96.31-48.94,145.89h-48.09
		c54.27-158.08,112.5-314.79,178.39-472.87h83.53c53.42,159.4,120.8,341.92,177.54,472.87h-55.08
		C5391.17,10540.42,5371.71,10491.69,5352.58,10440.11z M5233.1,10151.05c-34.12,84.21-66.71,166.25-96.35,248.3h200.67
		c-29.09-80.04-58.4-165.4-84.85-248.3H5233.1z"/>
	<polygon class="st1" points="5623.79,10113.14 5623.79,10543.28 5868.21,10543.28 5868.21,10586 5574.89,10586 5574.89,10113.14 	
		"/>
	<path class="st1" d="M6587.88,10371.53H6464.4v-39.27h172.73v247.61c-36.93,11.46-102.66,15.63-144.57,15.63
		c-146.79,0-216.99-57.72-216.99-250.42c0-193.18,70.2-243.44,216.99-243.44c41.91,0,95.33,7.5,131.92,18.32l-15.46,42.6
		c-28.28-10.65-79.53-17.46-115.82-17.46c-119.78,0-164.55,26.28-164.55,199.99c0,173.07,44.77,207.02,164.55,207.02
		c36.29,0,74.54-6.18,94.69-11.67V10371.53z"/>
	<path class="st1" d="M6772.24,10347.25c0-192.67,68.07-245.61,214.47-245.61c147.43,0,215.16,52.95,215.16,245.61
		c0,195.35-67.05,248.25-215.16,248.25C6839.63,10595.5,6772.24,10542.59,6772.24,10347.25z M6825.15,10348.57
		c0,164.89,41.45,204.17,161.57,204.17c121.31,0,163.4-39.28,163.4-204.17c0-173.71-42.08-205.66-163.4-205.66
		C6866.59,10142.91,6825.15,10174.86,6825.15,10348.57z"/>
	<path class="st1" d="M7868.12,10371.53h-123.83v-39.27h172.73v247.61c-36.93,11.46-102.66,15.63-145.08,15.63
		c-146.45,0-216.14-57.72-216.14-250.42c0-193.18,69.69-243.44,216.14-243.44c42.43,0,96.18,7.5,132.26,18.32l-15.29,42.6
		c-28.79-10.65-79.36-17.46-115.99-17.46c-119.61,0-164.04,26.28-164.04,199.99c0,173.07,44.43,207.02,164.04,207.02
		c36.63,0,74.54-6.18,95.2-11.67V10371.53z"/>
	<polygon class="st1" points="8127.03,10113.14 8127.03,10543.28 8371.1,10543.28 8371.1,10586 8078.08,10586 8078.08,10113.14 	"/>
	<path class="st1" d="M8460.13,10347.25c0-192.67,67.73-245.61,214.3-245.61c146.79,0,214.81,52.95,214.81,245.61
		c0,195.35-67.05,248.25-214.81,248.25C8527.18,10595.5,8460.13,10542.59,8460.13,10347.25z M8512.7,10348.57
		c0,164.89,41.45,204.17,161.74,204.17c121.48,0,163.23-39.28,163.23-204.17c0-173.71-41.74-205.66-163.23-205.66
		C8554.14,10142.91,8512.7,10174.86,8512.7,10348.57z"/>
	<path class="st1" d="M9390.78,10452.25c0,88.17-42.13,133.75-118.16,133.75H9038v-472.87h226.83
		c94.65,0,112.79,52.91,112.79,111.99c0,56.23-9.5,99-93.67,106.49C9373.61,10335.62,9390.78,10387.84,9390.78,10452.25z
		 M9327.7,10231.09c0-47.41-13.29-77.19-62.87-77.19H9086.6v158.71h178.22C9314.07,10312.62,9327.7,10273.21,9327.7,10231.09z
		 M9338.34,10451.57c0-56.91-20.45-98.99-69.05-98.99h-182.7v192.66h185.38C9322.2,10545.24,9338.34,10506.64,9338.34,10451.57z"/>
	<path class="st1" d="M9810.4,10440.11h-230.62c-17.12,48.22-33.1,96.31-48.9,145.89h-48.26
		c54.05-158.08,112.62-314.79,178.52-472.87h83.53c53.75,159.4,120.29,341.92,177.88,472.87h-55.08
		C9848.99,10540.42,9829.23,10491.69,9810.4,10440.11z M9691.26,10151.05c-34.08,84.21-66.54,166.25-96.31,248.3h200.67
		c-29.48-80.04-58.44-165.4-85.19-248.3H9691.26z"/>
	<polygon class="st1" points="10081.95,10113.14 10081.95,10543.28 10325.73,10543.28 10325.73,10586 10032.71,10586 
		10032.71,10113.14 	"/>
</g>
</svg>
