<?xml version="1.0" encoding="utf-8"?>
<!-- Generator: Adobe Illustrator 27.9.0, SVG Export Plug-In . SVG Version: 6.00 Build 0)  -->
<svg version="1.1" id="Слой_1" xmlns="http://www.w3.org/2000/svg" xmlns:xlink="http://www.w3.org/1999/xlink" x="0px" y="0px"
	 viewBox="0 0 330 59" style="enable-background:new 0 0 330 59;" xml:space="preserve">
<style type="text/css">
	.st0{fill:#FFFFFF;}
	.st1{fill:#FD0000;}
	.st2{fill-rule:evenodd;clip-rule:evenodd;fill:#FFFFFF;}
	.st3{fill:#FD0000;stroke:#FFFFFF;stroke-width:3;}
</style>
<path class="st0" d="M93.48,33.13v-2.3c0.77,0.11,1.33-0.05,1.69-0.47c0.36-0.43,0.54-1.22,0.54-2.38v-7.45h8.57v12.6h-2.47V22.91
	h-3.64v5c0,2.17-0.5,3.64-1.49,4.41C95.83,32.99,94.77,33.26,93.48,33.13z M117.22,31.49c-1.27,1.26-2.82,1.89-4.64,1.89
	s-3.37-0.63-4.64-1.89c-1.26-1.28-1.89-2.84-1.89-4.66c0-1.84,0.63-3.38,1.89-4.64c1.27-1.27,2.82-1.91,4.64-1.91
	s3.37,0.64,4.64,1.91c1.27,1.26,1.91,2.81,1.91,4.64C119.13,28.67,118.49,30.22,117.22,31.49z M109.68,29.8
	c0.77,0.77,1.73,1.15,2.9,1.15s2.13-0.38,2.9-1.15c0.78-0.78,1.17-1.77,1.17-2.97c0-1.2-0.39-2.19-1.17-2.97
	c-0.78-0.78-1.75-1.17-2.9-1.17s-2.12,0.39-2.9,1.17c-0.78,0.78-1.17,1.77-1.17,2.97C108.51,28.03,108.9,29.02,109.68,29.8z
	 M120.87,20.53h7.16v2.38h-4.68v10.22h-2.48V20.53z M139.19,33.13h-2.48v-7.69l-5.4,7.69h-1.89v-12.6h2.48v7.7l5.4-7.7h1.89V33.13z
	 M147.5,33.38c-1.88,0-3.45-0.63-4.7-1.89c-1.24-1.25-1.85-2.8-1.85-4.66c0-1.87,0.62-3.43,1.85-4.66c1.25-1.26,2.81-1.89,4.7-1.89
	c1.14,0,2.19,0.27,3.15,0.81c0.97,0.53,1.73,1.25,2.27,2.16l-2.14,1.24c-0.31-0.56-0.76-1-1.33-1.31c-0.58-0.32-1.22-0.49-1.94-0.49
	c-1.22,0-2.21,0.38-2.97,1.15c-0.74,0.78-1.12,1.78-1.12,2.99c0,1.2,0.37,2.19,1.12,2.97c0.76,0.77,1.75,1.15,2.97,1.15
	c0.72,0,1.37-0.16,1.94-0.47c0.59-0.32,1.03-0.76,1.33-1.31l2.14,1.24c-0.54,0.91-1.3,1.64-2.27,2.18
	C149.69,33.12,148.64,33.38,147.5,33.38z M153.46,20.53h9.27v2.38h-3.4v10.22h-2.48V22.91h-3.38V20.53z M173.89,33.13h-2.48v-7.69
	l-5.4,7.69h-1.89v-12.6h2.48v7.7l5.4-7.7h1.89V33.13z M182.8,26.11v-5.58h2.48v12.6h-2.48v-4.61c-0.77,0.32-1.59,0.49-2.47,0.49
	c-1.26,0-2.31-0.35-3.15-1.06c-0.82-0.72-1.22-1.69-1.22-2.92v-4.5h2.48v4.18c0,0.6,0.17,1.07,0.52,1.42
	c0.36,0.34,0.83,0.5,1.42,0.5C181.24,26.63,182.04,26.46,182.8,26.11z M190.1,27.93v2.83h5.31v2.38h-7.79v-12.6h7.7v2.38h-5.22v2.68
	h4.77v2.34H190.1z M203.05,33.38c-1.88,0-3.45-0.63-4.7-1.89c-1.24-1.25-1.85-2.8-1.85-4.66c0-1.87,0.62-3.43,1.85-4.66
	c1.25-1.26,2.81-1.89,4.7-1.89c1.14,0,2.19,0.27,3.15,0.81c0.97,0.53,1.73,1.25,2.27,2.16l-2.14,1.24c-0.31-0.56-0.76-1-1.33-1.31
	c-0.58-0.32-1.22-0.49-1.94-0.49c-1.22,0-2.21,0.38-2.97,1.15c-0.74,0.78-1.12,1.78-1.12,2.99c0,1.2,0.37,2.19,1.12,2.97
	c0.76,0.77,1.75,1.15,2.97,1.15c0.72,0,1.37-0.16,1.94-0.47c0.59-0.32,1.03-0.76,1.33-1.31l2.14,1.24c-0.54,0.91-1.3,1.64-2.27,2.18
	C205.24,33.12,204.19,33.38,203.05,33.38z M215,26.65l4.84,6.48h-2.86l-4.5-5.9v5.9H210v-12.6h2.48v5.56l4.32-5.56h2.86L215,26.65z
	 M230.84,33.13h-2.48v-7.69l-5.4,7.69h-1.89v-12.6h2.48v7.7l5.4-7.7h1.89V33.13z M235.67,27.93v2.83h5.31v2.38h-7.79v-12.6h7.7v2.38
	h-5.22v2.68h4.77v2.34H235.67z"/>
<path class="st1" d="M247.23,20.53h4.7c1.2,0,2.22,0.41,3.06,1.22c0.83,0.82,1.24,1.82,1.24,3.01s-0.41,2.19-1.24,3.01
	c-0.84,0.82-1.86,1.22-3.06,1.22h-2.21v4.14h-2.48V20.53z M249.71,26.67h2.21c0.53,0,0.97-0.18,1.31-0.54
	c0.35-0.37,0.52-0.83,0.52-1.37c0-0.55-0.17-1.01-0.52-1.37c-0.35-0.36-0.79-0.54-1.31-0.54h-2.21V26.67z M260.33,27.93v2.83h5.31
	v2.38h-7.79v-12.6h7.7v2.38h-5.22v2.68h4.77v2.34H260.33z M279.54,30.76V20.53h2.48v12.6h-14.63v-12.6h2.48v10.22h3.6V20.53h2.47
	v10.22H279.54z M286.85,27.93v2.83h5.31v2.38h-7.79v-12.6h7.7v2.38h-5.22v2.68h4.77v2.34H286.85z M301.08,25.54v-5h2.47v12.6h-2.47
	v-5.22h-4.68v5.22h-2.48v-12.6h2.48v5H301.08z M315.66,33.13h-2.48v-7.69l-5.4,7.69h-1.89v-12.6h2.48v7.7l5.4-7.7h1.89V33.13z
	 M321.85,20.53h5.04v12.6h-2.48v-4.37h-1.42l-2.9,4.37h-2.79l3.08-4.64c-0.8-0.29-1.46-0.78-1.96-1.48c-0.5-0.7-0.76-1.46-0.76-2.3
	c0-1.15,0.41-2.14,1.22-2.95S320.68,20.53,321.85,20.53z M321.85,26.58h2.56v-3.73h-2.56c-0.47,0-0.87,0.18-1.21,0.54
	c-0.34,0.36-0.5,0.8-0.5,1.31c0,0.52,0.17,0.96,0.5,1.33C320.98,26.4,321.38,26.58,321.85,26.58z"/>
<path class="st2" d="M43.81,53.66c14.82,0,26.83-12.01,26.83-26.83S58.63,0,43.81,0C28.99,0,16.98,12.01,16.98,26.83
	S28.99,53.66,43.81,53.66z M43.81,46.53c10.88,0,19.7-8.82,19.7-19.7c0-10.88-8.82-19.7-19.7-19.7c-10.88,0-19.7,8.82-19.7,19.7
	C24.11,37.71,32.93,46.53,43.81,46.53z"/>
<path class="st3" d="M85.31,15.83l-0.19-2.96C47.98,9.77,15.67,26.82,4.08,35.79l-1.1,0.85l0.77,1.16l10.59,16.02l1.17,1.77
	l1.28-1.7c8.35-11.09,21.45-19.77,34.57-26.11C64.46,21.45,77.42,17.52,85.31,15.83z"/>
</svg>
