<?xml version="1.0" standalone="no"?>
<!DOCTYPE svg PUBLIC "-//W3C//DTD SVG 20010904//EN"
 "http://www.w3.org/TR/2001/REC-SVG-20010904/DTD/svg10.dtd">
<svg version="1.0" xmlns="http://www.w3.org/2000/svg"
 width="2560.000000pt" height="845.000000pt" viewBox="0 0 2560.000000 845.000000"
 preserveAspectRatio="xMidYMid meet">

<g transform="translate(0.000000,845.000000) scale(0.100000,-0.100000)"
fill="#000000" stroke="none">
<path d="M12150 5410 l0 -1370 220 0 220 0 0 1370 0 1370 -220 0 -220 0 0
-1370z"/>
<path d="M12930 6585 l0 -195 405 0 405 0 0 -1175 0 -1175 220 0 220 0 0 1175
0 1175 405 0 405 0 0 195 0 195 -1030 0 -1030 0 0 -195z"/>
<path d="M16290 5411 l0 -1371 220 0 220 0 0 490 0 490 255 0 c377 0 517 21
684 100 184 89 319 218 401 384 75 151 93 231 93 406 0 116 -4 160 -20 220
-34 120 -61 184 -113 263 -116 178 -280 292 -510 355 l-95 26 -567 4 -568 3 0
-1370z m1131 956 c214 -72 321 -246 306 -496 -13 -225 -122 -370 -327 -437
-46 -15 -103 -18 -362 -22 l-308 -4 0 492 0 492 323 -5 c257 -3 331 -7 368
-20z"/>
<path d="M19122 6753 c-50 -143 -985 -2700 -989 -2705 -2 -5 99 -8 225 -8
l229 0 98 283 c54 155 107 306 117 335 l19 52 533 0 533 0 118 -335 119 -335
228 0 228 0 -11 28 c-9 23 -954 2609 -981 2685 l-10 27 -223 0 -223 0 -10 -27z
m338 -774 c54 -189 141 -465 193 -614 l95 -270 -390 -3 c-215 -1 -393 -1 -395
1 -2 2 42 133 97 291 56 159 135 406 176 549 110 382 115 399 120 394 2 -2 49
-159 104 -348z"/>
<path d="M20930 5410 l0 -1370 220 0 220 0 0 525 0 525 239 0 239 0 304 -522
304 -523 233 -3 c205 -2 233 -1 227 13 -3 8 -145 255 -316 550 -170 294 -310
538 -310 542 0 4 33 20 74 36 138 51 294 172 375 291 44 63 97 179 116 251 23
87 30 258 15 352 -28 177 -110 333 -238 454 -115 109 -222 167 -388 209 -137
35 -228 40 -776 40 l-538 0 0 -1370z m1217 953 c125 -42 206 -113 260 -229 24
-51 28 -74 31 -174 3 -98 1 -125 -18 -179 -50 -149 -162 -248 -322 -286 -49
-11 -137 -15 -395 -15 l-333 0 0 456 0 456 358 -4 c330 -4 362 -6 419 -25z"/>
<path d="M23360 5410 l0 -1370 215 0 215 0 0 1370 0 1370 -215 0 -215 0 0
-1370z"/>
<path d="M24476 6194 l-526 -585 0 -124 0 -124 533 -660 532 -660 258 0 c142
-1 257 3 255 7 -1 5 -266 330 -587 724 -321 394 -583 719 -583 723 0 3 246
280 545 614 300 334 557 621 572 639 l27 32 -250 0 -249 0 -527 -586z"/>
<path d="M12390 2779 c-174 -14 -259 -93 -260 -240 0 -142 66 -197 268 -223
134 -17 195 -43 223 -96 41 -75 11 -173 -64 -209 -62 -30 -194 -38 -302 -18
-44 8 -83 12 -86 8 -4 -3 -10 -20 -13 -37 l-7 -32 68 -13 c37 -8 120 -14 183
-13 139 1 214 25 271 85 88 91 72 279 -29 342 -53 33 -92 45 -191 57 -173 22
-220 50 -228 137 -10 101 43 157 167 175 66 10 196 1 266 -18 16 -4 22 1 31
30 6 20 8 38 5 40 -32 18 -205 33 -302 25z"/>
<path d="M16190 2408 c0 -219 4 -398 10 -418 5 -20 22 -50 37 -67 l28 -33 29
24 28 24 -26 38 -26 39 0 387 0 388 -40 0 -40 0 0 -382z"/>
<path d="M18402 2393 l3 -398 28 -47 c15 -26 31 -49 35 -52 5 -3 21 6 38 19
l29 23 -25 34 -25 33 -3 393 -3 392 -40 0 -40 0 3 -397z"/>
<path d="M23090 2408 c0 -219 4 -398 10 -418 5 -20 22 -50 37 -67 l28 -33 29
24 28 24 -26 38 -26 39 0 387 0 388 -40 0 -40 0 0 -382z"/>
<path d="M24070 2370 c0 -483 -14 -428 120 -456 113 -22 232 -16 291 17 85 47
113 120 113 289 1 139 -18 210 -66 257 -50 49 -97 64 -198 64 -81 0 -109 -6
-172 -39 -5 -2 -8 62 -8 142 l0 146 -40 0 -40 0 0 -420z m360 82 c64 -32 75
-67 75 -232 0 -163 -10 -196 -68 -226 -42 -22 -147 -28 -222 -12 l-60 13 -3
204 c-2 199 -2 205 20 228 28 30 67 41 153 42 48 1 81 -4 105 -17z"/>
<path d="M25432 2393 l3 -398 28 -47 c15 -26 31 -49 35 -52 5 -3 21 5 37 18
l29 23 -25 34 -24 34 -3 393 -3 392 -40 0 -40 0 3 -397z"/>
<path d="M19196 2765 c-96 -34 -131 -91 -130 -210 1 -105 18 -139 87 -169 l51
-23 -40 -6 c-98 -16 -156 -98 -157 -220 0 -86 25 -153 71 -185 68 -49 240 -67
355 -37 64 17 90 31 159 88 l48 39 37 -61 c38 -61 38 -61 86 -61 36 0 46 3 41
13 -4 6 -31 48 -59 92 l-51 80 28 45 c37 57 64 132 73 198 l7 52 -40 0 -40 0
-11 -61 c-5 -33 -22 -86 -36 -117 l-26 -57 -22 30 c-41 57 -128 143 -158 155
-38 16 -37 26 5 34 37 7 80 37 96 67 6 10 15 42 20 71 23 120 -32 221 -133
247 -63 15 -213 13 -261 -4z m237 -69 c58 -24 72 -49 72 -131 0 -64 -3 -77
-25 -100 -41 -44 -75 -56 -154 -57 -125 0 -169 42 -170 160 0 73 22 110 75
129 47 16 163 16 202 -1z m-16 -392 c43 -25 104 -89 154 -160 l29 -42 -46 -42
c-74 -68 -121 -85 -244 -85 -83 0 -112 4 -138 18 -52 28 -72 71 -72 152 0 117
43 169 153 185 69 10 113 3 164 -26z"/>
<path d="M20523 2770 c-168 -34 -243 -164 -243 -425 0 -242 64 -373 205 -422
39 -14 82 -18 195 -18 80 0 166 4 193 8 l47 8 0 225 0 224 -150 0 -150 0 0
-35 0 -35 110 0 110 0 0 -154 0 -153 -32 -7 c-84 -17 -194 -18 -258 -2 -122
31 -166 109 -177 311 -10 193 24 323 96 370 67 45 217 52 377 19 29 -5 32 -3
43 27 6 18 9 34 6 37 -25 25 -280 40 -372 22z"/>
<path d="M21330 2766 c-138 -37 -202 -131 -220 -325 -11 -120 3 -281 32 -358
27 -74 88 -134 159 -159 77 -27 291 -27 368 0 142 49 201 171 201 416 0 135
-18 231 -57 302 -55 100 -145 138 -326 137 -62 0 -132 -6 -157 -13z m324 -81
c98 -49 131 -151 123 -375 -6 -166 -22 -224 -76 -273 -53 -48 -99 -61 -216
-61 -155 -1 -210 27 -257 129 -21 47 -23 63 -23 240 0 185 1 192 27 247 44 95
102 119 268 115 91 -2 123 -6 154 -22z"/>
<path d="M12820 2725 l0 -35 145 0 145 0 0 -385 0 -385 45 0 45 0 0 385 0 385
145 0 145 0 0 35 0 35 -335 0 -335 0 0 -35z"/>
<path d="M13680 2578 c-100 -252 -240 -636 -240 -656 0 -2 19 -2 42 0 l41 3
42 125 42 125 208 0 209 0 49 -127 50 -128 49 0 48 0 -16 38 c-71 167 -270
699 -289 775 -7 27 -9 27 -85 27 l-79 0 -71 -182z m164 113 c3 -5 39 -106 80
-225 l73 -216 -178 0 c-118 0 -179 4 -179 10 0 6 34 97 76 203 42 106 80 202
85 215 9 22 33 30 43 13z"/>
<path d="M14360 2340 l0 -420 40 0 40 0 0 180 0 180 101 0 100 0 56 -52 c49
-47 213 -277 213 -299 0 -5 25 -9 55 -9 30 0 55 3 55 6 0 19 -162 246 -217
305 l-65 69 40 0 c24 0 60 11 93 28 75 39 99 87 99 196 0 94 -20 147 -69 189
-49 41 -90 47 -323 47 l-218 0 0 -420z m450 334 c46 -28 65 -70 65 -149 0 -80
-16 -113 -68 -145 -28 -18 -51 -20 -199 -20 l-168 0 0 165 0 165 171 0 c140 0
176 -3 199 -16z"/>
<path d="M15060 2725 l0 -35 150 0 150 0 0 -385 0 -385 43 0 44 0 -5 385 -5
385 152 0 151 0 0 35 0 35 -340 0 -340 0 0 -35z"/>
<path d="M16659 2539 c-154 -16 -211 -100 -211 -313 0 -240 73 -326 276 -326
133 0 195 32 241 125 29 58 30 64 30 200 0 136 -1 142 -30 200 -23 47 -40 65
-74 84 -51 28 -138 39 -232 30z m177 -84 c58 -24 79 -83 79 -230 0 -136 -19
-198 -71 -232 -43 -28 -201 -26 -241 3 -55 40 -68 84 -68 229 0 149 13 192 67
225 41 25 179 28 234 5z"/>
<path d="M17380 2540 c-100 -13 -165 -61 -201 -150 -19 -47 -19 -280 0 -333
17 -50 64 -103 115 -130 34 -18 58 -22 146 -22 58 0 124 6 147 13 l41 12 -11
36 c-9 29 -14 34 -31 29 -68 -19 -131 -27 -178 -21 -123 16 -162 77 -162 251
0 145 20 195 90 227 40 17 60 19 133 15 47 -3 98 -9 112 -12 24 -6 28 -4 34
25 9 40 -1 47 -75 55 -30 4 -66 8 -80 9 -14 2 -50 0 -80 -4z"/>
<path d="M17838 2537 c-37 -7 -70 -16 -74 -19 -3 -4 -2 -19 3 -35 9 -25 14
-27 44 -23 19 3 85 5 147 5 l114 0 28 -31 c19 -22 30 -48 35 -84 4 -28 5 -53
3 -55 -2 -3 -43 1 -91 7 -102 14 -215 1 -256 -29 -51 -39 -64 -68 -69 -152 -6
-102 18 -160 82 -194 36 -19 56 -22 161 -22 86 1 138 6 183 19 l63 19 -3 241
c-3 235 -4 242 -27 280 -16 25 -39 45 -68 58 -55 24 -186 32 -275 15z m293
-314 c5 -5 8 -58 7 -119 l-3 -109 -50 -11 c-71 -17 -179 -17 -220 0 -45 19
-55 42 -55 124 0 76 20 116 63 126 37 8 248 -1 258 -11z"/>
<path d="M22569 2540 c-59 -10 -100 -32 -132 -69 -43 -51 -52 -95 -52 -246 0
-152 9 -195 52 -246 41 -48 97 -71 188 -76 76 -5 103 0 178 32 14 6 17 2 17
-29 0 -56 -34 -112 -83 -138 -35 -18 -58 -22 -132 -21 -51 0 -110 7 -137 15
l-46 16 -10 -38 -9 -38 46 -12 c152 -39 313 -18 382 51 65 65 70 98 67 455
l-3 309 -65 16 c-83 21 -202 30 -261 19z m211 -81 l50 -11 0 -193 c0 -124 -4
-203 -11 -219 -19 -40 -73 -60 -164 -60 -152 -1 -189 48 -189 249 0 144 20
206 76 230 40 17 167 19 238 4z"/>
<path d="M23559 2539 c-111 -12 -166 -55 -195 -156 -24 -81 -16 -291 13 -354
41 -91 114 -129 247 -129 133 0 195 32 241 125 29 58 30 64 30 200 0 130 -2
144 -26 196 -25 53 -58 86 -104 103 -36 14 -138 21 -206 15z m177 -84 c58 -24
78 -83 79 -230 0 -108 -2 -125 -25 -170 -35 -70 -71 -87 -177 -83 -94 3 -126
20 -158 84 -17 33 -20 59 -20 169 0 149 13 192 67 225 41 25 179 28 234 5z"/>
<path d="M24868 2537 c-37 -7 -70 -16 -74 -19 -3 -4 -2 -19 4 -35 6 -20 15
-27 28 -25 10 2 71 6 134 8 125 5 148 -1 181 -46 10 -14 21 -49 25 -77 l7 -53
-49 8 c-64 9 -199 9 -247 -1 -88 -19 -134 -101 -125 -222 7 -81 33 -125 90
-151 59 -26 245 -26 336 1 l63 18 -3 241 c-3 235 -4 242 -27 280 -16 25 -39
45 -68 58 -55 24 -186 32 -275 15z m293 -314 c5 -5 8 -58 7 -119 l-3 -109 -50
-11 c-71 -17 -179 -17 -220 0 -45 19 -55 42 -55 124 0 76 20 116 63 126 37 8
248 -1 258 -11z"/>
</g>
</svg>
