<?xml version="1.0" standalone="no"?>
<!DOCTYPE svg PUBLIC "-//W3C//DTD SVG 1.1//EN" "http://www.w3.org/Graphics/SVG/1.1/DTD/svg11.dtd">
<svg xmlns="http://www.w3.org/2000/svg" xmlns:xlink="http://www.w3.org/1999/xlink" version="1.1" id="Слой_1" x="0px" y="0px" viewBox="0 0 284.9 162" style="enable-background:new 0 0 284.9 162;" xml:space="preserve" width="284.8999938964844" height="162">
<style type="text/css">
	.st0{fill:#3B3B3B;}
	.st1{fill:#DA291C;}
	.st2{fill:#323131;}
</style>
<title>Ресурс 56</title>
<g>
	<g id="Слой_1-2">
		<path class="st0" d="M17.8,117.7l11.9-10.8h3.5v29.1h-7.7v-15l-7.6,7l-7.6-6.9v14.9H2.4v-29.1h3.5L17.8,117.7z"/>
		<path class="st0" d="M52.9,106.9c8,0,14.6,6.5,14.6,14.5c0,8-6.5,14.6-14.5,14.6c-8,0-14.6-6.5-14.6-14.5    C38.4,113.5,44.9,107,52.9,106.9z M52.9,114.5c-3.9,0-7,3.1-7,7s3.1,7,7,7s7-3.1,7-7l0,0c0-3.8-3-7-6.9-7    C53,114.5,52.9,114.5,52.9,114.5z"/>
		<path class="st0" d="M94.2,136.1l-13.8-13.8v13.8h-7.7v-29.1h3.1l13.8,13.8v-13.8h7.7v29.1H94.2z"/>
		<path class="st0" d="M102.6,106.9h23v7.6h-7.7v21.6h-7.7v-21.6h-7.6V106.9z"/>
		<path class="st0" d="M148.3,136.1v-29.1h12.9c4.7,0.1,8.6,3.9,8.6,8.7c0,1.9-0.7,3.8-1.9,5.2c3.7,2.9,4.4,8.2,1.5,11.9    c-1.6,2.1-4.1,3.3-6.8,3.3H148.3z M159.7,118.3c1.4,0,2.5-1.1,2.5-2.5c0-1.4-1.1-2.5-2.5-2.5H156v5.1H159.7z M161.1,129.8    c1.4,0,2.5-1.1,2.5-2.5c0-1.4-1.1-2.5-2.5-2.5H156v5L161.1,129.8z"/>
		<path class="st0" d="M175.8,106.9h7.6v21.4H194v7.7h-18.2V106.9z"/>
		<path class="st0" d="M197.5,136.1l13.6-29.1h3.5l13.7,29.1h-7.6l-1.8-3.8h-11.9l-1.7,3.8H197.5z M209.9,125.8h5.9l-3-6.4    L209.9,125.8z"/>
		<path class="st0" d="M253.6,136.1l-13.8-13.8v13.8h-7.6v-29.1h3.1l13.8,13.8v-13.8h7.7v29.1H253.6z"/>
		<path class="st0" d="M279.4,116.6c-1.3-1.3-3.1-2-4.9-1.9c-3.8,0-6.8,3.1-6.8,6.8s3.1,6.8,6.8,6.8c1.8,0.1,3.6-0.7,4.9-1.9    l5.4,5.4c-5.7,5.7-14.9,5.8-20.6,0.1c-5.7-5.7-5.8-14.9-0.1-20.6c2.7-2.8,6.5-4.3,10.3-4.3c3.8,0,7.5,1.5,10.3,4.2L279.4,116.6z"/>
		<path class="st1" d="M197.7,71.2l12-10.9h3.5v29.4h-7.8V74.6l-7.7,7l-7.7-7v15.1h-7.8V60.3h3.5L197.7,71.2z"/>
		<path class="st1" d="M219.1,89.8V60.3h13c4.8,0.1,8.6,4,8.7,8.7c0,1.9-0.7,3.8-1.9,5.3c3.8,2.9,4.4,8.3,1.5,12.1    c-1.6,2.1-4.2,3.3-6.8,3.3H219.1z M230.5,71.8c1.4,0,2.5-1.1,2.5-2.6c0-1.4-1.1-2.5-2.5-2.5h-3.7v5.1H230.5z M232,83.4    c1.4,0,2.6-1.1,2.6-2.5v0c0-1.4-1.2-2.5-2.6-2.5h-5.2v5.1H232z"/>
		<path class="st1" d="M265.8,70.1c-1.3-1.3-3.1-2-5-1.9c-3.8,0.1-6.8,3.4-6.6,7.2c0.1,3.6,3,6.5,6.6,6.6c1.9,0,3.6-0.7,5-2l5.5,5.4    c-5.7,5.8-15,5.8-20.8,0.1s-5.8-15-0.1-20.8c2.8-2.8,6.5-4.4,10.4-4.3c3.9,0,7.6,1.5,10.4,4.3L265.8,70.1z"/>
		<path class="st1" d="M277.1,60.3h7.7v29.4h-7.7V60.3z"/>
		<path class="st2" d="M11.6,158.8c-0.3,1-0.9,1.8-1.7,2.4C9,161.8,8,162,6.9,162c-1.4,0.1-2.8-0.5-3.8-1.5c-1.9-2.4-1.9-5.8,0-8.3    c1-1,2.4-1.6,3.8-1.5c1,0,2,0.2,2.9,0.7c0.8,0.5,1.4,1.2,1.6,2.1l-2.1,0.9c-0.1-0.5-0.4-1-0.8-1.4c-0.4-0.3-1-0.5-1.5-0.4    c-0.8,0-1.7,0.3-2.2,1c-0.6,0.8-0.9,1.8-0.8,2.8c-0.1,1,0.2,2,0.8,2.8c0.5,0.7,1.3,1,2.2,1c1.2,0.1,2.3-0.7,2.5-1.9L11.6,158.8z"/>
		<path class="st2" d="M14.4,152.3c1-1,2.4-1.6,3.8-1.5c1.4-0.1,2.8,0.5,3.8,1.5c1.9,2.4,1.9,5.8,0,8.3c-1,1-2.4,1.6-3.8,1.5    c-1.4,0.1-2.8-0.5-3.9-1.5C12.5,158.1,12.5,154.7,14.4,152.3z M18.2,152.6c-0.8,0-1.6,0.3-2.1,1c-1,1.7-1,3.9,0,5.6    c0.5,0.7,1.3,1,2.1,1c0.8,0,1.6-0.3,2.1-1c1-1.7,1-3.9,0-5.6C19.9,153,19.1,152.6,18.2,152.6L18.2,152.6z"/>
		<path class="st2" d="M37.7,150.9v10.9h-2v-5.7l0.1-3.2l0,0l-3,8.9h-1.9l-3-8.9l0,0l0.1,3.2v5.7h-2.1v-10.9h3.3l2,6l0.7,2.5l0,0    l0.7-2.4l2-6L37.7,150.9z"/>
		<path class="st2" d="M52.4,150.9v10.9h-2v-5.7l0.1-3.2l0,0l-3,8.9h-2l-3-8.9l0,0l0.1,3.2v5.7h-2.1v-10.9h3.3l2,6l0.7,2.5l0,0    l0.7-2.4l2-6L52.4,150.9z"/>
		<path class="st2" d="M56.1,152.3c2.2-2,5.5-2,7.7,0c1.9,2.4,1.9,5.8,0,8.3c-2.2,2-5.5,2-7.7,0C54.2,158.1,54.2,154.7,56.1,152.3z     M60,152.6c-0.8,0-1.6,0.3-2.1,1c-1,1.7-1,3.9,0,5.6c1,1.2,2.8,1.3,4,0.3c0.1-0.1,0.2-0.2,0.3-0.3c1-1.7,1-3.9,0-5.6    C61.6,153,60.8,152.6,60,152.6L60,152.6z"/>
		<path class="st2" d="M71.8,150.9c1.5-0.1,2.9,0.4,4,1.4c1.9,2.4,1.9,5.7,0,8.1c-1.1,1-2.5,1.5-4,1.4h-4.2v-10.9H71.8z M71.6,160    c0.9,0.1,1.8-0.3,2.4-0.9c1.1-1.6,1.1-3.8,0-5.4c-0.6-0.7-1.5-1-2.3-0.9h-1.9v7.3L71.6,160z"/>
		<path class="st2" d="M81.7,150.9v10.9h-2.3v-10.9H81.7z"/>
		<path class="st2" d="M93.2,150.9v1.8h-3.7v9.1h-2.3v-9.1h-3.7v-1.8H93.2z"/>
		<path class="st2" d="M97.4,150.9v10.9h-2.3v-10.9H97.4z"/>
		<path class="st2" d="M102.5,160h6.1v1.8h-8.4v-10.9h8.2v1.8h-5.9v2.7h4.7v1.8h-4.7L102.5,160z"/>
		<path class="st2" d="M114.7,150.8c0.9,0,1.8,0.2,2.6,0.5c0.8,0.4,1.4,0.9,1.9,1.6l-1.6,1.5c-0.5-1.2-1.7-1.9-3-1.8    c-0.5,0-1.1,0.1-1.5,0.4c-0.3,0.2-0.6,0.6-0.5,1c0,0.4,0.2,0.7,0.6,0.9c0.6,0.3,1.3,0.5,2,0.6c1.1,0.1,2.2,0.5,3.1,1.2    c0.6,0.5,1,1.3,0.9,2.1c0,1-0.4,1.9-1.2,2.4c-1,0.6-2.1,0.9-3.2,0.9c-1,0-2-0.1-3-0.5c-0.7-0.3-1.4-0.9-1.9-1.5l1.4-1.6    c0.3,0.6,0.8,1.1,1.4,1.4c0.6,0.3,1.3,0.4,2,0.4c1.4,0,2.2-0.4,2.2-1.3c0-0.3-0.2-0.6-0.5-0.8c-0.6-0.3-1.2-0.5-1.9-0.6    c-1.2-0.2-2.3-0.6-3.3-1.2c-0.7-0.5-1-1.3-1-2.1c0-1,0.4-1.9,1.2-2.5C112.3,151,113.5,150.7,114.7,150.8z"/>
		<path class="st1" d="M135.5,160.4l-0.3,1.6c-0.5,0-1-0.1-1.4-0.2c-0.5-0.2-1-0.5-1.4-0.9c-0.9,0.8-2,1.2-3.2,1.1    c-1,0-1.9-0.2-2.7-0.8c-0.7-0.5-1-1.3-1-2.1c0-1.4,0.8-2.4,2.4-3.1c-0.4-0.4-0.7-0.9-0.9-1.4c-0.2-0.4-0.3-0.8-0.3-1.2    c0-0.7,0.3-1.4,0.8-1.9c0.6-0.6,1.4-0.8,2.2-0.8c0.8,0,1.6,0.2,2.2,0.7c0.5,0.4,0.8,1.1,0.8,1.8c0,0.6-0.2,1.2-0.5,1.7    c-0.5,0.6-1.1,1-1.8,1.3l0.9,1.1l1.2,1.4c0.4-0.8,0.5-1.7,0.5-2.5l1.6,0.1c0.1,1.2-0.3,2.5-1.1,3.4c0.3,0.3,0.6,0.5,0.9,0.6    C134.9,160.4,135.2,160.4,135.5,160.4z M127.5,158.9c0,0.4,0.2,0.8,0.5,1.1c0.4,0.3,0.9,0.4,1.4,0.4c0.7,0,1.4-0.2,2-0.5    c-0.4-0.4-0.8-0.9-1.2-1.3c-0.8-0.8-1.2-1.3-1.4-1.5c-0.4,0.2-0.8,0.6-1.1,0.9C127.6,158.3,127.5,158.6,127.5,158.9L127.5,158.9z     M129.8,152.4c-0.3,0-0.6,0.1-0.8,0.3c-0.2,0.2-0.3,0.5-0.3,0.8c0,0.3,0.1,0.5,0.2,0.8c0.2,0.4,0.5,0.7,0.8,1.1    c0.4-0.2,0.7-0.6,1-0.9c0.2-0.3,0.3-0.7,0.3-1C130.9,152.7,130.6,152.4,129.8,152.4L129.8,152.4z"/>
		<path class="st0" d="M144.3,150.9v10.9H142v-10.9H144.3z"/>
		<path class="st0" d="M156.5,150.9v10.9h-2.6l-3.8-6.4l-0.9-1.8l0,0l0.1,1.9v6.3h-2.1v-10.9h2.6l3.8,6.4l0.9,1.9l0,0l-0.1-1.9v-6.3    H156.5z"/>
		<path class="st0" d="M168.8,150.9l-4,10.9h-2.7l-4-10.9h2.4l2.3,6.9l0.6,2.1l0.6-2.1l2.3-7L168.8,150.9z"/>
		<path class="st0" d="M172.8,160h6.1v1.8h-8.4v-10.9h8.2v1.8h-5.9v2.7h4.6v1.8h-4.6V160z"/>
		<path class="st0" d="M185,150.8c0.9,0,1.8,0.2,2.6,0.5c0.8,0.4,1.4,0.9,1.9,1.6l-1.6,1.5c-0.5-1.1-1.7-1.9-2.9-1.8    c-0.5,0-1.1,0.1-1.5,0.4c-0.3,0.2-0.6,0.6-0.5,1c0,0.4,0.2,0.7,0.6,0.9c0.6,0.3,1.3,0.5,2,0.6c1.1,0.1,2.2,0.5,3.1,1.2    c0.6,0.5,1,1.3,0.9,2.1c0,1-0.4,1.9-1.2,2.4c-1,0.6-2.1,0.9-3.3,0.8c-1,0-2-0.1-3-0.5c-0.8-0.3-1.4-0.9-1.9-1.5l1.4-1.6    c0.3,0.6,0.8,1.1,1.4,1.4c0.6,0.3,1.3,0.4,2,0.4c1.4,0,2.2-0.4,2.2-1.3c0-0.3-0.2-0.6-0.5-0.8c-0.6-0.3-1.2-0.5-1.9-0.6    c-1.2-0.2-2.3-0.6-3.3-1.2c-0.7-0.5-1-1.3-1-2.1c0-1,0.4-1.9,1.2-2.5C182.6,151,183.8,150.7,185,150.8z"/>
		<path class="st0" d="M199.9,150.9v1.8h-3.7v9.1H194v-9.1h-3.7v-1.8H199.9z"/>
		<path class="st0" d="M213.7,150.9v10.9h-2.1v-5.7l0.1-3.2l0,0l-3,8.9h-1.9l-3-8.9l0,0l0.1,3.2v5.7h-2.1v-10.9h3.3l2,6l0.7,2.5l0,0    l0.7-2.4l1.9-6L213.7,150.9z"/>
		<path class="st0" d="M218.8,160h6.2v1.8h-8.4v-10.9h8.2v1.8h-5.9v2.7h4.6v1.8h-4.6L218.8,160z"/>
		<path class="st0" d="M236.4,150.9v10.9h-2.6l-3.8-6.4l-1-1.8l0,0l0.1,1.9v6.3h-2v-10.9h2.6l3.8,6.4l0.9,1.9l0,0l-0.1-1.9v-6.3    H236.4z"/>
		<path class="st0" d="M247.9,150.9v1.8h-3.7v9.1H242v-9.1h-3.7v-1.8H247.9z"/>
		<path class="st0" d="M253.4,150.8c0.9,0,1.8,0.2,2.6,0.5c0.8,0.4,1.4,0.9,1.9,1.6l-1.6,1.5c-0.5-1.2-1.7-1.9-3-1.8    c-0.5,0-1.1,0.1-1.5,0.4c-0.3,0.2-0.6,0.6-0.5,1c0,0.4,0.2,0.7,0.6,0.9c0.6,0.3,1.3,0.5,2,0.6c1.1,0.1,2.2,0.5,3.1,1.2    c0.6,0.5,1,1.3,0.9,2.1c0,1-0.4,1.9-1.2,2.4c-1,0.6-2.1,0.9-3.2,0.9c-1,0-2-0.1-3-0.5c-0.7-0.3-1.4-0.9-1.9-1.5l1.4-1.6    c0.3,0.6,0.8,1.1,1.4,1.4c0.6,0.3,1.3,0.4,2,0.4c1.4,0,2.2-0.4,2.2-1.3c0-0.3-0.2-0.6-0.5-0.8c-0.6-0.3-1.2-0.5-1.9-0.6    c-1.2-0.2-2.3-0.6-3.2-1.2c-0.7-0.5-1-1.3-1-2.1c0-1,0.4-1.9,1.2-2.5C251.1,151,252.2,150.7,253.4,150.8z"/>
		<path class="st0" d="M271.8,161.9l-0.9-2.7h-4.2l-0.9,2.7h-2.3l4-10.9h2.7l4,10.9L271.8,161.9z M267.3,157.5h3.1l-1-3.1l-0.5-1.6    l0,0l-0.5,1.6L267.3,157.5z"/>
		<path class="st0" d="M279.7,156.1h5.2v5.8h-1.7l0-1.3c-0.7,1-2,1.6-3.2,1.5c-1.4,0.1-2.7-0.5-3.7-1.5c-1.9-2.4-1.9-5.8,0-8.3    c1-1,2.4-1.6,3.9-1.5c1,0,2,0.2,2.9,0.6c0.8,0.5,1.4,1.2,1.8,2l-2.1,0.9c-0.1-0.5-0.5-1-0.9-1.3c-0.5-0.3-1-0.5-1.6-0.4    c-0.9,0-1.7,0.3-2.2,1c-0.6,0.8-0.9,1.8-0.8,2.8c-0.1,1,0.2,2,0.8,2.8c0.6,0.7,1.4,1,2.3,1c0.7,0,1.3-0.2,1.9-0.6    c0.5-0.4,0.8-1,0.7-1.6v-0.3h-3.2L279.7,156.1z"/>
		<path class="st1" d="M73.9,73.9v-9.5H89V49.3h15.1V34.1h15.1v-6.5L87.4,0.2L3.2,88.5l37-0.2h33.7L73.9,73.9z M88,6.4l24.2,20.9    l-21-5.3v14.3L83,24.6l-4,13.5l-2.4-13.7l-19.1,14L88,6.4z"/>
		<path class="st1" d="M172.6,0L144,27.8h-0.1v0.7h-15.2v15.1h-15.1v15.1H98.5v15.1H83.3v14.4h86.1l-0.1-17.9V53.8h10.6V42.6h14.7    v-11h20.4L172.6,0z M175.4,16.9l-6.8,6.4l1.5-7l-14.7,8.5l17.3-17.2l14,13.3L175.4,16.9z"/>
		<path class="st1" d="M227.9,1v35.6h56.7V1H227.9z M270.7,23.2h-10.4v10.1h-8.1V23.2h-10.4v-8.1h10.4V4.3h8.1v10.7h10.4L270.7,23.2    z"/>
	</g>
</g>
</svg>