<?xml version="1.0" encoding="utf-8"?>
<!-- Generator: Adobe Illustrator 27.9.0, SVG Export Plug-In . SVG Version: 6.00 Build 0)  -->
<svg version="1.1" id="Слой_1" xmlns="http://www.w3.org/2000/svg" xmlns:xlink="http://www.w3.org/1999/xlink" x="0px" y="0px"
	 viewBox="0 0 203 62" style="enable-background:new 0 0 203 62;" xml:space="preserve">
<style type="text/css">
	.st0{fill:#0C85FC;}
	.st1{fill:#136CC2;}
	.st2{fill:#B4B4E9;}
	.st3{fill:#FFFFFF;}
</style>
<path class="st0" d="M17.85,13c0-2.76,2.24-5,5-5H49c2.76,0,5,2.24,5,5v26.15c0,2.76-2.24,5-5,5H17.85V13z"/>
<path class="st1" d="M17.85,31.29c0-2.76,2.24-5,5-5h12.85v12.85c0,2.76-2.24,5-5,5H17.85V31.29z"/>
<path class="st2" d="M17.85,44.15h17.85V57c0,2.76-2.24,5-5,5h-7.85c-2.76,0-5-2.24-5-5V44.15z"/>
<path class="st2" d="M0,31.29c0-2.76,2.24-5,5-5h12.85v17.85H5c-2.76,0-5-2.24-5-5V31.29z"/>
<path class="st3" d="M68.38,35V9.8h3.85l15.8,19.4h-1.91V9.8h4.64V35h-3.85l-15.8-19.4h1.91V35H68.38z M109.34,35.36
	c-1.97,0-3.78-0.32-5.44-0.97s-3.1-1.55-4.32-2.7c-1.22-1.18-2.17-2.54-2.84-4.1c-0.67-1.58-1.01-3.31-1.01-5.18
	s0.34-3.59,1.01-5.15c0.67-1.58,1.62-2.95,2.84-4.1c1.22-1.18,2.66-2.09,4.32-2.74c1.66-0.65,3.46-0.97,5.4-0.97
	c1.97,0,3.77,0.32,5.4,0.97c1.66,0.65,3.1,1.56,4.32,2.74c1.22,1.15,2.17,2.52,2.84,4.1c0.67,1.56,1.01,3.28,1.01,5.15
	s-0.34,3.6-1.01,5.18c-0.67,1.58-1.62,2.95-2.84,4.1c-1.22,1.15-2.66,2.05-4.32,2.7C113.07,35.04,111.28,35.36,109.34,35.36z
	 M109.3,31.26c1.27,0,2.45-0.22,3.53-0.65c1.08-0.43,2.02-1.04,2.81-1.84c0.79-0.82,1.4-1.75,1.84-2.81
	c0.46-1.08,0.68-2.27,0.68-3.56s-0.23-2.47-0.68-3.53c-0.43-1.08-1.04-2.02-1.84-2.81c-0.79-0.82-1.73-1.44-2.81-1.87
	c-1.08-0.43-2.26-0.65-3.53-0.65c-1.27,0-2.45,0.22-3.53,0.65c-1.06,0.43-1.99,1.06-2.81,1.87c-0.79,0.79-1.42,1.73-1.87,2.81
	c-0.43,1.06-0.65,2.23-0.65,3.53c0,1.27,0.22,2.45,0.65,3.53c0.46,1.08,1.08,2.03,1.87,2.84c0.79,0.79,1.73,1.4,2.81,1.84
	C106.85,31.04,108.03,31.26,109.3,31.26z M127.83,35V9.8h11.81c3.02,0,5.33,0.6,6.91,1.8c1.58,1.18,2.38,2.76,2.38,4.75
	c0,1.34-0.31,2.5-0.94,3.46c-0.62,0.94-1.46,1.67-2.52,2.2c-1.03,0.5-2.16,0.76-3.38,0.76l0.65-1.3c1.42,0,2.69,0.26,3.82,0.79
	c1.13,0.5,2.02,1.25,2.66,2.23c0.67,0.98,1.01,2.21,1.01,3.67c0,2.16-0.83,3.84-2.48,5.04c-1.66,1.2-4.12,1.8-7.38,1.8H127.83z
	 M132.51,31.33h7.56c1.75,0,3.1-0.29,4.03-0.86c0.94-0.58,1.4-1.5,1.4-2.77c0-1.25-0.47-2.16-1.4-2.74c-0.94-0.6-2.28-0.9-4.03-0.9
	h-7.92v-3.64h6.98c1.63,0,2.88-0.29,3.74-0.86c0.89-0.58,1.33-1.44,1.33-2.59c0-1.18-0.44-2.05-1.33-2.63
	c-0.86-0.58-2.11-0.86-3.74-0.86h-6.62V31.33z M166.06,35.36c-3.46,0-6.17-0.97-8.14-2.92c-1.94-1.94-2.92-4.75-2.92-8.42V9.8h4.68
	v14.04c0,2.59,0.55,4.48,1.66,5.65c1.13,1.18,2.71,1.76,4.75,1.76c2.04,0,3.61-0.59,4.72-1.76c1.1-1.18,1.66-3.06,1.66-5.65V9.8
	h4.61v14.22c0,3.67-0.98,6.48-2.95,8.42C172.18,34.39,169.49,35.36,166.06,35.36z M191.44,35.36c-1.97,0-3.85-0.28-5.65-0.83
	c-1.8-0.58-3.23-1.31-4.28-2.2l1.62-3.64c1.01,0.79,2.26,1.45,3.74,1.98c1.49,0.53,3.01,0.79,4.57,0.79c1.32,0,2.39-0.14,3.2-0.43
	c0.82-0.29,1.42-0.67,1.8-1.15c0.38-0.5,0.58-1.07,0.58-1.69c0-0.77-0.28-1.38-0.83-1.84c-0.55-0.48-1.27-0.85-2.16-1.12
	c-0.86-0.29-1.84-0.55-2.92-0.79c-1.06-0.24-2.12-0.52-3.2-0.83c-1.06-0.34-2.03-0.76-2.92-1.26c-0.86-0.53-1.57-1.22-2.12-2.09
	c-0.55-0.86-0.83-1.97-0.83-3.31c0-1.37,0.36-2.62,1.08-3.74c0.74-1.15,1.86-2.06,3.35-2.74c1.51-0.7,3.42-1.04,5.72-1.04
	c1.51,0,3.01,0.19,4.5,0.58s2.78,0.94,3.89,1.66l-1.48,3.64c-1.13-0.67-2.29-1.16-3.49-1.48c-1.2-0.34-2.35-0.5-3.46-0.5
	c-1.3,0-2.35,0.16-3.17,0.47c-0.79,0.31-1.38,0.72-1.76,1.22c-0.36,0.5-0.54,1.08-0.54,1.73c0,0.77,0.26,1.39,0.79,1.87
	c0.55,0.46,1.26,0.82,2.12,1.08c0.89,0.26,1.87,0.53,2.95,0.79c1.08,0.24,2.15,0.52,3.2,0.83c1.08,0.31,2.05,0.72,2.92,1.22
	c0.89,0.5,1.6,1.19,2.12,2.05c0.55,0.86,0.83,1.96,0.83,3.28c0,1.34-0.37,2.59-1.12,3.74c-0.72,1.13-1.84,2.04-3.35,2.74
	C195.65,35.02,193.74,35.36,191.44,35.36z"/>
<path class="st3" d="M66.62,55v-8.4h1.14v7.41h5.14V46.6h1.14V55H66.62z M74.31,57.03V54.9L74.6,55h-1.71v-0.99h2.5v3.02H74.31z
	 M81.15,55.08c-0.87,0-1.64-0.18-2.3-0.54c-0.66-0.37-1.18-0.88-1.55-1.52c-0.37-0.65-0.56-1.39-0.56-2.22s0.18-1.57,0.53-2.21
	c0.36-0.64,0.85-1.14,1.47-1.5c0.63-0.37,1.33-0.56,2.11-0.56c0.79,0,1.49,0.18,2.1,0.54c0.62,0.35,1.1,0.85,1.46,1.5
	c0.35,0.64,0.53,1.38,0.53,2.22c0,0.05-0.01,0.11-0.02,0.18c0,0.05,0,0.11,0,0.18H77.6V50.3h6.7l-0.45,0.34
	c0-0.61-0.13-1.15-0.4-1.62c-0.26-0.48-0.61-0.85-1.06-1.12c-0.45-0.27-0.97-0.4-1.55-0.4c-0.58,0-1.09,0.13-1.55,0.4
	s-0.82,0.64-1.07,1.12c-0.26,0.48-0.38,1.03-0.38,1.65v0.18c0,0.64,0.14,1.21,0.42,1.7c0.29,0.48,0.68,0.86,1.18,1.14
	c0.51,0.27,1.09,0.4,1.74,0.4c0.51,0,0.99-0.09,1.42-0.27c0.45-0.18,0.83-0.46,1.15-0.83l0.64,0.74c-0.37,0.45-0.84,0.79-1.41,1.02
	C82.44,54.96,81.83,55.08,81.15,55.08z M87.44,55v-8.4h1.14v3.71h5.3V46.6h1.14V55h-1.14v-3.71h-5.3V55H87.44z M99.84,55v-7.71
	l0.29,0.3h-3.47V46.6h7.5v0.99h-3.47l0.29-0.3V55H99.84z M110.14,55.08c-0.73,0-1.38-0.17-1.97-0.5c-0.59-0.34-1.06-0.83-1.41-1.46
	c-0.34-0.64-0.51-1.42-0.51-2.34s0.17-1.69,0.51-2.32c0.34-0.64,0.81-1.13,1.39-1.46c0.59-0.33,1.25-0.5,1.98-0.5
	c0.8,0,1.51,0.18,2.14,0.54c0.64,0.35,1.14,0.85,1.5,1.5c0.36,0.64,0.54,1.38,0.54,2.22c0,0.85-0.18,1.6-0.54,2.24
	c-0.36,0.64-0.86,1.14-1.5,1.5C111.65,54.9,110.94,55.08,110.14,55.08z M105.8,58.1V46.6h1.09v2.53l-0.11,1.68l0.16,1.7v5.6H105.8z
	 M110.06,54.07c0.6,0,1.13-0.13,1.6-0.4c0.47-0.28,0.84-0.66,1.12-1.15c0.28-0.5,0.42-1.08,0.42-1.73s-0.14-1.22-0.42-1.71
	c-0.28-0.49-0.65-0.87-1.12-1.15c-0.47-0.28-1-0.42-1.6-0.42c-0.6,0-1.14,0.14-1.62,0.42c-0.47,0.28-0.84,0.66-1.12,1.15
	c-0.27,0.49-0.4,1.06-0.4,1.71s0.13,1.23,0.4,1.73c0.28,0.49,0.65,0.87,1.12,1.15C108.92,53.94,109.46,54.07,110.06,54.07z
	 M126.18,55v-1.86l-0.05-0.3v-3.1c0-0.71-0.2-1.26-0.61-1.65c-0.39-0.38-0.99-0.58-1.78-0.58c-0.54,0-1.06,0.09-1.55,0.27
	c-0.49,0.18-0.91,0.42-1.25,0.72l-0.51-0.85c0.43-0.36,0.94-0.64,1.54-0.83c0.6-0.2,1.23-0.3,1.89-0.3c1.09,0,1.92,0.27,2.51,0.82
	c0.6,0.53,0.9,1.35,0.9,2.45V55H126.18z M123.28,55.08c-0.63,0-1.18-0.1-1.65-0.3c-0.46-0.21-0.81-0.5-1.06-0.86
	c-0.25-0.37-0.37-0.8-0.37-1.28c0-0.44,0.1-0.83,0.3-1.18c0.21-0.36,0.55-0.65,1.02-0.86c0.48-0.22,1.12-0.34,1.92-0.34h2.9v0.85
	h-2.86c-0.81,0-1.38,0.14-1.7,0.43c-0.31,0.29-0.46,0.65-0.46,1.07c0,0.48,0.19,0.86,0.56,1.15c0.37,0.29,0.9,0.43,1.57,0.43
	c0.64,0,1.19-0.14,1.65-0.43c0.47-0.3,0.81-0.73,1.02-1.28l0.26,0.78c-0.21,0.55-0.59,1-1.12,1.33
	C124.74,54.91,124.08,55.08,123.28,55.08z M136.45,55l-3.46-4.16l0.94-0.56l3.86,4.72H136.45z M130.29,55v-8.4h1.14V55H130.29z
	 M131.07,51.26v-0.98h2.7v0.98H131.07z M134.03,50.92l-1.06-0.16l3.34-4.16h1.23L134.03,50.92z M144.65,55v-1.86l-0.05-0.3v-3.1
	c0-0.71-0.2-1.26-0.61-1.65c-0.4-0.38-0.99-0.58-1.78-0.58c-0.54,0-1.06,0.09-1.55,0.27c-0.49,0.18-0.91,0.42-1.25,0.72l-0.51-0.85
	c0.43-0.36,0.94-0.64,1.54-0.83c0.6-0.2,1.23-0.3,1.89-0.3c1.09,0,1.93,0.27,2.51,0.82c0.6,0.53,0.9,1.35,0.9,2.45V55H144.65z
	 M141.75,55.08c-0.63,0-1.18-0.1-1.65-0.3c-0.46-0.21-0.81-0.5-1.06-0.86c-0.25-0.37-0.37-0.8-0.37-1.28c0-0.44,0.1-0.83,0.3-1.18
	c0.21-0.36,0.55-0.65,1.02-0.86c0.48-0.22,1.12-0.34,1.92-0.34h2.9v0.85h-2.86c-0.81,0-1.38,0.14-1.7,0.43
	c-0.31,0.29-0.46,0.65-0.46,1.07c0,0.48,0.19,0.86,0.56,1.15c0.37,0.29,0.9,0.43,1.57,0.43c0.64,0,1.19-0.14,1.65-0.43
	c0.47-0.3,0.81-0.73,1.02-1.28l0.26,0.78c-0.21,0.55-0.59,1-1.12,1.33C143.21,54.91,142.55,55.08,141.75,55.08z M154.52,54.46v-6.86
	h-4.05l-0.1,1.87c-0.02,0.57-0.06,1.12-0.11,1.66c-0.04,0.54-0.12,1.05-0.24,1.5c-0.11,0.45-0.26,0.82-0.46,1.1
	c-0.2,0.28-0.46,0.44-0.78,0.48l-1.14-0.21c0.33,0.01,0.6-0.11,0.82-0.35c0.21-0.26,0.38-0.6,0.5-1.04c0.12-0.44,0.2-0.93,0.26-1.49
	c0.05-0.57,0.1-1.14,0.13-1.73l0.11-2.8h6.21v7.86H154.52z M147.29,57.03v-3.02h9.68v3.02h-1.07V55h-7.54v2.03H147.29z
	 M162.78,55.08c-0.88,0-1.64-0.18-2.3-0.54c-0.66-0.37-1.18-0.88-1.55-1.52c-0.37-0.65-0.56-1.39-0.56-2.22s0.18-1.57,0.53-2.21
	c0.36-0.64,0.85-1.14,1.47-1.5c0.63-0.37,1.33-0.56,2.11-0.56c0.79,0,1.49,0.18,2.1,0.54c0.62,0.35,1.1,0.85,1.46,1.5
	c0.35,0.64,0.53,1.38,0.53,2.22c0,0.05-0.01,0.11-0.02,0.18c0,0.05,0,0.11,0,0.18h-7.31V50.3h6.7l-0.45,0.34
	c0-0.61-0.13-1.15-0.4-1.62c-0.26-0.48-0.61-0.85-1.06-1.12c-0.45-0.27-0.97-0.4-1.55-0.4c-0.58,0-1.09,0.13-1.55,0.4
	c-0.46,0.27-0.82,0.64-1.07,1.12s-0.38,1.03-0.38,1.65v0.18c0,0.64,0.14,1.21,0.42,1.7c0.29,0.48,0.68,0.86,1.18,1.14
	c0.51,0.27,1.09,0.4,1.74,0.4c0.51,0,0.99-0.09,1.42-0.27c0.45-0.18,0.83-0.46,1.15-0.83l0.64,0.74c-0.37,0.45-0.84,0.79-1.41,1.02
	C164.06,54.96,163.45,55.08,162.78,55.08z M169.07,55v-8.4h1.15l3.81,6.45h-0.48l3.87-6.45h1.06V55h-1.04v-7.1l0.21,0.1l-3.62,5.98
	h-0.51l-3.65-6.05l0.24-0.05V55H169.07z M181.71,55v-8.4h1.14v6.67l5.62-6.67h1.01V55h-1.14v-6.69l-5.6,6.69H181.71z M198.15,55
	v-3.02l0.21,0.24h-2.85c-1.08,0-1.92-0.23-2.53-0.7s-0.91-1.15-0.91-2.05c0-0.96,0.33-1.67,0.98-2.14c0.65-0.48,1.52-0.72,2.61-0.72
	h3.54V55H198.15z M192.01,55l2.3-3.23h1.18L193.24,55H192.01z M198.15,51.64v-4.38l0.21,0.34h-2.67c-0.78,0-1.39,0.15-1.82,0.45
	c-0.43,0.3-0.64,0.78-0.64,1.46c0,1.25,0.8,1.87,2.38,1.87h2.75L198.15,51.64z"/>
</svg>
