<?xml version="1.0" standalone="no"?>
<!DOCTYPE svg PUBLIC "-//W3C//DTD SVG 1.1//EN" "http://www.w3.org/Graphics/SVG/1.1/DTD/svg11.dtd">
<svg xmlns="http://www.w3.org/2000/svg" width="203" height="62" viewBox="0 0 203 62" fill="none">
<path d="M17.8547 13C17.8547 10.2386 20.0933 8 22.8547 8H48.9999C51.7613 8 53.9999 10.2386 53.9999 13V39.1452C53.9999 41.9066 51.7613 44.1452 48.9999 44.1452H17.8547V13Z" fill="#0C85FC"/>
<path d="M17.8547 31.2903C17.8547 28.5289 20.0933 26.2903 22.8547 26.2903H35.7096V39.1452C35.7096 41.9066 33.471 44.1452 30.7096 44.1452H17.8547V31.2903Z" fill="#136CC2"/>
<path d="M17.8547 44.1452H35.7096V57C35.7096 59.7614 33.471 62 30.7096 62H22.8547C20.0933 62 17.8547 59.7614 17.8547 57V44.1452Z" fill="#B4B4E9"/>
<path d="M0 31.2903C0 28.5289 2.23858 26.2903 5 26.2903H17.8548V44.1452H5C2.23858 44.1452 0 41.9066 0 39.1452V31.2903Z" fill="#B4B4E9"/>
<path d="M68.384 35V9.8H72.236L88.04 29.204H86.132V9.8H90.776V35H86.924L71.12 15.596H73.028V35H68.384ZM109.337 35.36C107.369 35.36 105.557 35.036 103.901 34.388C102.245 33.74 100.805 32.84 99.5805 31.688C98.3565 30.512 97.4085 29.144 96.7365 27.584C96.0645 26 95.7285 24.272 95.7285 22.4C95.7285 20.528 96.0645 18.812 96.7365 17.252C97.4085 15.668 98.3565 14.3 99.5805 13.148C100.805 11.972 102.245 11.06 103.901 10.412C105.557 9.764 107.357 9.44 109.301 9.44C111.269 9.44 113.069 9.764 114.701 10.412C116.357 11.06 117.797 11.972 119.021 13.148C120.245 14.3 121.193 15.668 121.865 17.252C122.537 18.812 122.873 20.528 122.873 22.4C122.873 24.272 122.537 26 121.865 27.584C121.193 29.168 120.245 30.536 119.021 31.688C117.797 32.84 116.357 33.74 114.701 34.388C113.069 35.036 111.281 35.36 109.337 35.36ZM109.301 31.256C110.573 31.256 111.749 31.04 112.829 30.608C113.909 30.176 114.845 29.564 115.637 28.772C116.429 27.956 117.041 27.02 117.473 25.964C117.929 24.884 118.157 23.696 118.157 22.4C118.157 21.104 117.929 19.928 117.473 18.872C117.041 17.792 116.429 16.856 115.637 16.064C114.845 15.248 113.909 14.624 112.829 14.192C111.749 13.76 110.573 13.544 109.301 13.544C108.029 13.544 106.853 13.76 105.773 14.192C104.717 14.624 103.781 15.248 102.965 16.064C102.173 16.856 101.549 17.792 101.093 18.872C100.661 19.928 100.445 21.104 100.445 22.4C100.445 23.672 100.661 24.848 101.093 25.928C101.549 27.008 102.173 27.956 102.965 28.772C103.757 29.564 104.693 30.176 105.773 30.608C106.853 31.04 108.029 31.256 109.301 31.256ZM127.833 35V9.8H139.641C142.665 9.8 144.969 10.4 146.553 11.6C148.137 12.776 148.929 14.36 148.929 16.352C148.929 17.696 148.617 18.848 147.993 19.808C147.369 20.744 146.529 21.476 145.473 22.004C144.441 22.508 143.313 22.76 142.089 22.76L142.737 21.464C144.153 21.464 145.425 21.728 146.553 22.256C147.681 22.76 148.569 23.504 149.217 24.488C149.889 25.472 150.225 26.696 150.225 28.16C150.225 30.32 149.397 32 147.741 33.2C146.085 34.4 143.625 35 140.361 35H127.833ZM132.513 31.328H140.073C141.825 31.328 143.169 31.04 144.105 30.464C145.041 29.888 145.509 28.964 145.509 27.692C145.509 26.444 145.041 25.532 144.105 24.956C143.169 24.356 141.825 24.056 140.073 24.056H132.153V20.42H139.137C140.769 20.42 142.017 20.132 142.881 19.556C143.769 18.98 144.213 18.116 144.213 16.964C144.213 15.788 143.769 14.912 142.881 14.336C142.017 13.76 140.769 13.472 139.137 13.472H132.513V31.328ZM166.056 35.36C162.6 35.36 159.888 34.388 157.92 32.444C155.976 30.5 155.004 27.692 155.004 24.02V9.8H159.684V23.84C159.684 26.432 160.236 28.316 161.34 29.492C162.468 30.668 164.052 31.256 166.092 31.256C168.132 31.256 169.704 30.668 170.808 29.492C171.912 28.316 172.464 26.432 172.464 23.84V9.8H177.072V24.02C177.072 27.692 176.088 30.5 174.12 32.444C172.176 34.388 169.488 35.36 166.056 35.36ZM191.438 35.36C189.47 35.36 187.586 35.084 185.786 34.532C183.986 33.956 182.558 33.224 181.502 32.336L183.122 28.7C184.13 29.492 185.378 30.152 186.866 30.68C188.354 31.208 189.878 31.472 191.438 31.472C192.758 31.472 193.826 31.328 194.642 31.04C195.458 30.752 196.058 30.368 196.442 29.888C196.826 29.384 197.018 28.82 197.018 28.196C197.018 27.428 196.742 26.816 196.19 26.36C195.638 25.88 194.918 25.508 194.03 25.244C193.166 24.956 192.194 24.692 191.114 24.452C190.058 24.212 188.99 23.936 187.91 23.624C186.854 23.288 185.882 22.868 184.994 22.364C184.13 21.836 183.422 21.14 182.87 20.276C182.318 19.412 182.042 18.308 182.042 16.964C182.042 15.596 182.402 14.348 183.122 13.22C183.866 12.068 184.982 11.156 186.47 10.484C187.982 9.788 189.89 9.44 192.194 9.44C193.706 9.44 195.206 9.632 196.694 10.016C198.182 10.4 199.478 10.952 200.582 11.672L199.106 15.308C197.978 14.636 196.814 14.144 195.614 13.832C194.414 13.496 193.262 13.328 192.158 13.328C190.862 13.328 189.806 13.484 188.99 13.796C188.198 14.108 187.61 14.516 187.226 15.02C186.866 15.524 186.686 16.1 186.686 16.748C186.686 17.516 186.95 18.14 187.478 18.62C188.03 19.076 188.738 19.436 189.602 19.7C190.49 19.964 191.474 20.228 192.554 20.492C193.634 20.732 194.702 21.008 195.758 21.32C196.838 21.632 197.81 22.04 198.674 22.544C199.562 23.048 200.27 23.732 200.798 24.596C201.35 25.46 201.626 26.552 201.626 27.872C201.626 29.216 201.254 30.464 200.51 31.616C199.79 32.744 198.674 33.656 197.162 34.352C195.65 35.024 193.742 35.36 191.438 35.36Z" fill="black"/>
<path d="M66.616 55V46.6H67.752V54.008H72.888V46.6H74.024V55H66.616ZM74.312 57.032V54.904L74.6 55H72.888V54.008H75.384V57.032H74.312ZM81.1535 55.08C80.2788 55.08 79.5108 54.8987 78.8495 54.536C78.1882 54.1627 77.6708 53.656 77.2975 53.016C76.9242 52.3653 76.7375 51.624 76.7375 50.792C76.7375 49.96 76.9135 49.224 77.2655 48.584C77.6282 47.944 78.1188 47.4427 78.7375 47.08C79.3668 46.7067 80.0708 46.52 80.8495 46.52C81.6388 46.52 82.3375 46.7013 82.9455 47.064C83.5642 47.416 84.0495 47.9173 84.4015 48.568C84.7535 49.208 84.9295 49.9493 84.9295 50.792C84.9295 50.8453 84.9242 50.904 84.9135 50.968C84.9135 51.0213 84.9135 51.08 84.9135 51.144H77.6015V50.296H84.3055L83.8575 50.632C83.8575 50.024 83.7242 49.4853 83.4575 49.016C83.2015 48.536 82.8495 48.1627 82.4015 47.896C81.9535 47.6293 81.4362 47.496 80.8495 47.496C80.2735 47.496 79.7562 47.6293 79.2975 47.896C78.8388 48.1627 78.4815 48.536 78.2255 49.016C77.9695 49.496 77.8415 50.0453 77.8415 50.664V50.84C77.8415 51.48 77.9802 52.0453 78.2575 52.536C78.5455 53.016 78.9402 53.3947 79.4415 53.672C79.9535 53.9387 80.5348 54.072 81.1855 54.072C81.6975 54.072 82.1722 53.9813 82.6095 53.8C83.0575 53.6187 83.4415 53.3413 83.7615 52.968L84.4015 53.704C84.0282 54.152 83.5588 54.4933 82.9935 54.728C82.4388 54.9627 81.8255 55.08 81.1535 55.08ZM87.4441 55V46.6H88.5801V50.312H93.8761V46.6H95.0121V55H93.8761V51.288H88.5801V55H87.4441ZM99.841 55V47.288L100.129 47.592H96.657V46.6H104.161V47.592H100.689L100.977 47.288V55H99.841ZM110.14 55.08C109.414 55.08 108.758 54.9147 108.172 54.584C107.585 54.2427 107.116 53.7573 106.764 53.128C106.422 52.488 106.252 51.7093 106.252 50.792C106.252 49.8747 106.422 49.1013 106.764 48.472C107.105 47.832 107.569 47.3467 108.156 47.016C108.742 46.6853 109.404 46.52 110.14 46.52C110.94 46.52 111.654 46.7013 112.284 47.064C112.924 47.416 113.425 47.9173 113.788 48.568C114.15 49.208 114.332 49.9493 114.332 50.792C114.332 51.6453 114.15 52.392 113.788 53.032C113.425 53.672 112.924 54.1733 112.284 54.536C111.654 54.8987 110.94 55.08 110.14 55.08ZM105.804 58.104V46.6H106.892V49.128L106.78 50.808L106.94 52.504V58.104H105.804ZM110.06 54.072C110.657 54.072 111.19 53.9387 111.66 53.672C112.129 53.3947 112.502 53.0107 112.78 52.52C113.057 52.0187 113.196 51.4427 113.196 50.792C113.196 50.1413 113.057 49.5707 112.78 49.08C112.502 48.5893 112.129 48.2053 111.66 47.928C111.19 47.6507 110.657 47.512 110.06 47.512C109.462 47.512 108.924 47.6507 108.444 47.928C107.974 48.2053 107.601 48.5893 107.324 49.08C107.057 49.5707 106.924 50.1413 106.924 50.792C106.924 51.4427 107.057 52.0187 107.324 52.52C107.601 53.0107 107.974 53.3947 108.444 53.672C108.924 53.9387 109.462 54.072 110.06 54.072ZM126.176 55V53.144L126.128 52.84V49.736C126.128 49.0213 125.925 48.472 125.52 48.088C125.125 47.704 124.533 47.512 123.744 47.512C123.2 47.512 122.682 47.6027 122.192 47.784C121.701 47.9653 121.285 48.2053 120.944 48.504L120.432 47.656C120.858 47.2933 121.37 47.016 121.968 46.824C122.565 46.6213 123.194 46.52 123.856 46.52C124.944 46.52 125.781 46.792 126.368 47.336C126.965 47.8693 127.264 48.6853 127.264 49.784V55H126.176ZM123.28 55.08C122.65 55.08 122.101 54.9787 121.632 54.776C121.173 54.5627 120.821 54.2747 120.576 53.912C120.33 53.5387 120.208 53.112 120.208 52.632C120.208 52.1947 120.309 51.8 120.512 51.448C120.725 51.0853 121.066 50.7973 121.536 50.584C122.016 50.36 122.656 50.248 123.456 50.248H126.352V51.096H123.488C122.677 51.096 122.112 51.24 121.792 51.528C121.482 51.816 121.328 52.1733 121.328 52.6C121.328 53.08 121.514 53.464 121.888 53.752C122.261 54.04 122.784 54.184 123.456 54.184C124.096 54.184 124.645 54.04 125.104 53.752C125.573 53.4533 125.914 53.0267 126.128 52.472L126.384 53.256C126.17 53.8107 125.797 54.2533 125.264 54.584C124.741 54.9147 124.08 55.08 123.28 55.08ZM136.448 55L132.992 50.84L133.936 50.28L137.792 55H136.448ZM130.288 55V46.6H131.424V55H130.288ZM131.072 51.256V50.28H133.776V51.256H131.072ZM134.032 50.92L132.976 50.76L136.32 46.6H137.552L134.032 50.92ZM144.645 55V53.144L144.597 52.84V49.736C144.597 49.0213 144.394 48.472 143.989 48.088C143.594 47.704 143.002 47.512 142.213 47.512C141.669 47.512 141.151 47.6027 140.661 47.784C140.17 47.9653 139.754 48.2053 139.413 48.504L138.901 47.656C139.327 47.2933 139.839 47.016 140.437 46.824C141.034 46.6213 141.663 46.52 142.325 46.52C143.413 46.52 144.25 46.792 144.837 47.336C145.434 47.8693 145.733 48.6853 145.733 49.784V55H144.645ZM141.749 55.08C141.119 55.08 140.57 54.9787 140.101 54.776C139.642 54.5627 139.29 54.2747 139.045 53.912C138.799 53.5387 138.677 53.112 138.677 52.632C138.677 52.1947 138.778 51.8 138.981 51.448C139.194 51.0853 139.535 50.7973 140.005 50.584C140.485 50.36 141.125 50.248 141.924 50.248H144.821V51.096H141.957C141.146 51.096 140.581 51.24 140.261 51.528C139.951 51.816 139.797 52.1733 139.797 52.6C139.797 53.08 139.983 53.464 140.357 53.752C140.73 54.04 141.253 54.184 141.924 54.184C142.565 54.184 143.114 54.04 143.573 53.752C144.042 53.4533 144.383 53.0267 144.597 52.472L144.853 53.256C144.639 53.8107 144.266 54.2533 143.733 54.584C143.21 54.9147 142.549 55.08 141.749 55.08ZM154.517 54.456V47.592H150.469L150.373 49.464C150.351 50.0293 150.314 50.584 150.261 51.128C150.218 51.672 150.138 52.1733 150.021 52.632C149.914 53.08 149.759 53.448 149.557 53.736C149.354 54.0133 149.093 54.1733 148.773 54.216L147.637 54.008C147.967 54.0187 148.239 53.9013 148.453 53.656C148.666 53.4 148.831 53.0533 148.949 52.616C149.066 52.1787 149.151 51.6827 149.205 51.128C149.258 50.5627 149.301 49.9867 149.333 49.4L149.445 46.6H155.653V54.456H154.517ZM147.285 57.032V54.008H156.965V57.032H155.893V55H148.357V57.032H147.285ZM162.779 55.08C161.904 55.08 161.136 54.8987 160.475 54.536C159.813 54.1627 159.296 53.656 158.923 53.016C158.549 52.3653 158.363 51.624 158.363 50.792C158.363 49.96 158.539 49.224 158.891 48.584C159.253 47.944 159.744 47.4427 160.363 47.08C160.992 46.7067 161.696 46.52 162.475 46.52C163.264 46.52 163.963 46.7013 164.571 47.064C165.189 47.416 165.675 47.9173 166.027 48.568C166.379 49.208 166.555 49.9493 166.555 50.792C166.555 50.8453 166.549 50.904 166.539 50.968C166.539 51.0213 166.539 51.08 166.539 51.144H159.227V50.296H165.931L165.483 50.632C165.483 50.024 165.349 49.4853 165.083 49.016C164.827 48.536 164.475 48.1627 164.027 47.896C163.579 47.6293 163.061 47.496 162.475 47.496C161.899 47.496 161.381 47.6293 160.923 47.896C160.464 48.1627 160.107 48.536 159.851 49.016C159.595 49.496 159.467 50.0453 159.467 50.664V50.84C159.467 51.48 159.605 52.0453 159.883 52.536C160.171 53.016 160.565 53.3947 161.067 53.672C161.579 53.9387 162.16 54.072 162.811 54.072C163.323 54.072 163.797 53.9813 164.235 53.8C164.683 53.6187 165.067 53.3413 165.387 52.968L166.027 53.704C165.653 54.152 165.184 54.4933 164.619 54.728C164.064 54.9627 163.451 55.08 162.779 55.08ZM169.069 55V46.6H170.221L174.029 53.048H173.549L177.421 46.6H178.477V55H177.437V47.896L177.645 47.992L174.029 53.976H173.517L169.869 47.928L170.109 47.88V55H169.069ZM181.71 55V46.6H182.846V53.272L188.462 46.6H189.47V55H188.334V48.312L182.734 55H181.71ZM198.149 55V51.976L198.357 52.216H195.509C194.432 52.216 193.589 51.9813 192.981 51.512C192.373 51.0427 192.069 50.36 192.069 49.464C192.069 48.504 192.395 47.7893 193.045 47.32C193.696 46.84 194.565 46.6 195.653 46.6H199.189V55H198.149ZM192.005 55L194.309 51.768H195.493L193.237 55H192.005ZM198.149 51.64V47.256L198.357 47.592H195.685C194.907 47.592 194.299 47.7413 193.861 48.04C193.435 48.3387 193.221 48.824 193.221 49.496C193.221 50.744 194.016 51.368 195.605 51.368H198.357L198.149 51.64Z" fill="black"/>
</svg>