<?xml version="1.0" standalone="no"?>
<!DOCTYPE svg PUBLIC "-//W3C//DTD SVG 1.1//EN" "http://www.w3.org/Graphics/SVG/1.1/DTD/svg11.dtd">
<svg xmlns="http://www.w3.org/2000/svg" width="90" height="106" viewBox="0 0 90 106" fill="none">
<g clip-path="url(#clip0_747_329)">
<path d="M24.4087 60.8317V85.2232H65.2704V60.8317H24.4087ZM52.8726 75.305H47.2541V80.6241H42.4405V75.305H36.822V70.7352H42.4405V65.4014H47.2541V70.7352H52.8726V75.305Z" fill="#A2242C"/>
<path d="M36.8201 70.7452V75.3146H52.8601V70.7452H36.8201Z" fill="white"/>
<path d="M47.2299 65.4062H42.4199V80.6439H47.2299V65.4062Z" fill="white"/>
<path d="M42.6262 31.4885C48.5852 25.0527 54.668 26.8894 52.4547 16.354C52.9035 18.4111 51.2319 23.3041 48.6781 24.5237C44.0347 19.1899 52.6714 15.1345 51.6963 10.1386C57.16 14.3263 57.5779 21.7613 53.9096 24.2739C56.2313 22.8045 60.9366 22.3637 65.2704 22.6723V0H24.4087V15.5165C36.1255 17.6324 42.2393 27.58 42.6262 31.4885Z" fill="#1F6155"/>
<path d="M28.5877 20.5711C37.6423 28.8142 35.8469 33.4134 35.4754 34.7799C33.1259 34.5466 30.8775 33.7499 28.9416 32.4647C27.0056 31.1795 25.4458 29.448 24.4087 27.433V58.0546H32.6739C33.3371 58.0601 33.9925 57.9188 34.5883 57.6421C35.184 57.3654 35.7037 56.9608 36.1062 56.4604C36.5087 55.96 36.7829 55.3775 36.9072 54.759C37.0314 54.1405 37.0022 53.5031 36.822 52.8971C32.6894 38.2035 48.7245 33.575 28.5877 20.5711Z" fill="#1F6155"/>
<path d="M72.8856 24.8911C63.2583 21.9523 44.8396 28.0796 41.9297 39.5847C46.2016 34.5154 59.3114 34.8974 62.1439 36.646C55.8134 36.646 54.5752 47.4311 45.1182 47.0491C41.063 46.8728 46.0314 40.3635 52.6714 38.1447C42.5953 39.7463 39.608 44.801 40.5058 49.6793C40.941 52.0361 42.2416 54.1705 44.1768 55.7037C46.112 57.2368 48.5567 58.0698 51.0772 58.0546H65.2085V26.2282C67.5766 24.9792 70.3627 24.9792 72.8856 24.8911Z" fill="#1F6155"/>
<path d="M2.81701 102.591C2.03076 102.369 1.32049 101.953 0.758448 101.386C0.229664 100.811 -0.0423488 100.062 2.96636e-05 99.2997V98.9176H2.8944V99.1968C2.90234 99.4443 2.97603 99.6859 3.10862 99.8991C3.24121 100.112 3.4284 100.29 3.65282 100.416C4.30591 100.755 5.04592 100.913 5.78877 100.872C6.50856 100.916 7.22927 100.8 7.89377 100.534C8.08309 100.454 8.2446 100.324 8.35963 100.16C8.47467 99.9964 8.53853 99.8051 8.54384 99.6082C8.54753 99.4459 8.5101 99.2851 8.43468 99.1393C8.35926 98.9936 8.24807 98.8672 8.11046 98.7707C7.80421 98.5207 7.44543 98.3354 7.05796 98.227C6.64006 98.0801 6.05189 97.9332 5.30895 97.7421C4.43118 97.5397 3.56783 97.2845 2.72414 96.9781C2.07923 96.7472 1.50109 96.3746 1.03705 95.8908C0.569709 95.3777 0.321279 94.7174 0.340544 94.0394C0.326614 93.5253 0.464113 93.0177 0.737564 92.5738C1.01101 92.1299 1.40956 91.7673 1.88834 91.5267C3.09723 90.9057 4.46227 90.6109 5.8352 90.6745C7.17157 90.6209 8.49673 90.9265 9.65825 91.5561C10.147 91.8235 10.5495 92.2125 10.8223 92.6813C11.0951 93.15 11.2278 93.6806 11.206 94.2157V94.4214H8.24976V94.1863C8.2485 93.9697 8.18423 93.7577 8.06405 93.5736C7.94388 93.3895 7.77247 93.2405 7.56873 93.143C7.0104 92.8527 6.37809 92.7154 5.74234 92.7463C5.0966 92.7151 4.45162 92.8205 3.85403 93.0549C3.66692 93.1096 3.50235 93.2182 3.38311 93.3656C3.26387 93.513 3.19585 93.692 3.18848 93.8777C3.19321 94.0149 3.23215 94.149 3.30211 94.269C3.37207 94.3891 3.47105 94.4917 3.59091 94.5683C3.88515 94.777 4.21499 94.936 4.56601 95.0385C4.95812 95.1561 5.51533 95.303 6.23763 95.4793C7.12861 95.6887 8.00698 95.9438 8.86888 96.2434C9.5399 96.4814 10.1438 96.8637 10.6334 97.3601C10.8909 97.6152 11.0909 97.9175 11.2213 98.2484C11.3517 98.5794 11.4097 98.9321 11.3918 99.285C11.4258 99.8461 11.3 100.405 11.0276 100.904C10.7553 101.403 10.3464 101.824 9.84398 102.121C8.55925 102.78 7.10786 103.09 5.64947 103.017C4.68633 103.034 3.72764 102.889 2.81701 102.591Z" fill="#A2242C"/>
<path d="M11.7168 93.6133H14.4873L15.6018 97.3895C15.6791 97.654 15.7875 98.1095 15.9423 98.7561C16.097 99.4026 16.1744 99.8287 16.2054 100.034L16.453 98.9324C16.5769 98.4034 16.7007 97.9038 16.84 97.463L17.8925 93.6721H20.7404L21.8548 97.4777C21.9632 97.8304 22.087 98.3006 22.2263 98.9471L22.5049 100.137H22.5823C22.5823 99.9609 22.7061 99.5789 22.8299 99.0058C22.9538 98.4328 23.0931 97.9332 23.2014 97.5365L24.2694 93.7308H26.8078L23.7122 102.929H20.9262L19.7498 98.521C19.6415 98.1683 19.5486 97.7716 19.4558 97.3308C19.3629 96.89 19.301 96.6255 19.2855 96.4932H19.1772C19.1772 96.6255 19.1772 96.9047 19.0379 97.3161C18.8986 97.7275 18.8676 98.1389 18.7747 98.5063L17.5365 102.914H14.7969L11.7168 93.6133Z" fill="#A2242C"/>
<path d="M27.5198 90.1603H30.2129V92.3349H27.5198V90.1603ZM27.5198 93.6133H30.2129V102.856H27.5198V93.6133Z" fill="#A2242C"/>
<path d="M32.1477 102.224C31.7738 101.998 31.4676 101.685 31.2588 101.315C31.05 100.944 30.9456 100.528 30.9559 100.108V99.9169H33.5717V100.049C33.5683 100.236 33.624 100.42 33.7316 100.577C33.8391 100.735 33.9936 100.858 34.1753 100.931C34.6397 101.118 35.1412 101.208 35.6457 101.195C36.108 101.208 36.569 101.143 37.0078 101.004C37.3947 100.872 37.5804 100.666 37.5804 100.372C37.5787 100.208 37.5224 100.049 37.4196 99.9169C37.3167 99.7849 37.1726 99.6872 37.0078 99.6377C36.4219 99.4212 35.8155 99.2588 35.1968 99.1528C34.4905 99.0136 33.7929 98.837 33.1073 98.6238C32.5871 98.4405 32.1165 98.1494 31.7298 97.7716C31.338 97.3742 31.1268 96.8463 31.1416 96.3022C31.1297 95.8808 31.2405 95.4645 31.4616 95.099C31.6828 94.7335 32.0059 94.4329 32.3953 94.2304C33.3645 93.6844 34.4723 93.3999 35.5993 93.4076C36.6714 93.3599 37.7381 93.5776 38.6948 94.0394C39.056 94.2087 39.3603 94.4703 39.5736 94.7948C39.7869 95.1192 39.9006 95.4937 39.9021 95.8761V96.2728H37.3173C37.3128 96.1154 37.2646 95.9619 37.1776 95.8277C37.0907 95.6936 36.968 95.5836 36.822 95.5088C36.4269 95.3281 35.9911 95.2423 35.5528 95.259C35.1155 95.2406 34.6787 95.3056 34.2682 95.45C33.9586 95.5822 33.8038 95.7585 33.8038 95.9936C33.8111 96.1418 33.8673 96.284 33.9645 96.4001C34.0618 96.5161 34.1951 96.6002 34.3456 96.6402C34.9085 96.8289 35.4889 96.9666 36.0791 97.0516C36.8005 97.1915 37.5135 97.3681 38.215 97.5806C38.7521 97.7575 39.2393 98.049 39.639 98.4328C40.0629 98.8724 40.2856 99.4537 40.2581 100.049C40.2581 102.033 38.7103 102.988 35.5219 102.988C34.3421 103.057 33.1674 102.791 32.1477 102.224Z" fill="#A2242C"/>
<path d="M42.1774 102.224C41.7977 102.002 41.4854 101.69 41.271 101.319C41.0566 100.948 40.9476 100.531 40.9546 100.108V99.9168H43.5549V100.049C43.5588 100.237 43.6192 100.419 43.7289 100.576C43.8386 100.732 43.993 100.855 44.174 100.931C44.6385 101.118 45.14 101.208 45.6444 101.195C46.1067 101.208 46.5677 101.143 47.0065 101.004C47.3934 100.872 47.5792 100.666 47.5792 100.372C47.5774 100.208 47.5211 100.049 47.4183 99.9168C47.3154 99.7849 47.1713 99.6872 47.0065 99.6376C46.4206 99.4211 45.8142 99.2588 45.1956 99.1527C44.4892 99.0135 43.7916 98.8369 43.106 98.6238C42.583 98.4373 42.108 98.1467 41.713 97.7715C41.3269 97.3708 41.1165 96.8452 41.1249 96.3022C41.1162 95.8796 41.23 95.4629 41.4538 95.0975C41.6776 94.7322 42.0029 94.4322 42.394 94.2304C43.3922 93.7098 44.5222 93.4606 45.6599 93.5104C46.7347 93.4718 47.8016 93.6996 48.7555 94.1716C49.1167 94.3409 49.421 94.6025 49.6342 94.927C49.8475 95.2514 49.9612 95.6259 49.9627 96.0083V96.405H47.347C47.3424 96.2476 47.2942 96.0941 47.2073 95.9599C47.1203 95.8258 46.9977 95.7158 46.8517 95.6409C46.4566 95.4603 46.0207 95.3745 45.5825 95.3912C45.1451 95.3728 44.7083 95.4378 44.2978 95.5822C43.9883 95.7144 43.8335 95.8907 43.8335 96.1258C43.8407 96.274 43.897 96.4162 43.9942 96.5323C44.0915 96.6483 44.2248 96.7324 44.3752 96.7724C44.9381 96.9611 45.5185 97.0988 46.1088 97.1838C46.8302 97.3237 47.5432 97.5003 48.2447 97.7128C48.7818 97.8896 49.269 98.1812 49.6687 98.565C49.8765 98.7834 50.0368 99.0386 50.1404 99.316C50.244 99.5933 50.2888 99.8874 50.2723 100.181C50.2723 102.165 48.7245 103.12 45.6289 103.12C44.4085 103.167 43.2027 102.854 42.1774 102.224Z" fill="#A2242C"/>
<path d="M51.9903 102.459C51.659 102.231 51.3991 101.922 51.2383 101.565C51.0774 101.208 51.0218 100.816 51.0771 100.431C51.0397 99.9132 51.1673 99.3966 51.4433 98.9485C51.7194 98.5004 52.1311 98.1415 52.6249 97.9185C54.0991 97.3594 55.6829 97.1089 57.2683 97.1838V96.5373C57.2903 96.1962 57.1863 95.8584 56.9742 95.5822C56.8135 95.4571 56.6279 95.364 56.4285 95.3085C56.229 95.2529 56.0198 95.2361 55.8134 95.259C55.3755 95.224 54.9361 95.3054 54.5442 95.4941C54.4328 95.5532 54.339 95.6381 54.2713 95.7408C54.2037 95.8436 54.1644 95.9609 54.1573 96.0818V96.3463H51.526C51.5132 96.2143 51.5132 96.0815 51.526 95.9496C51.5097 95.5665 51.6034 95.1865 51.7969 94.8501C51.9905 94.5136 52.2767 94.2334 52.6249 94.0394C53.5629 93.5254 54.6396 93.2852 55.7205 93.3488C56.8377 93.2672 57.9523 93.5356 58.8935 94.1129C59.2432 94.3757 59.5213 94.7144 59.7045 95.1005C59.8876 95.4866 59.9705 95.9088 59.946 96.3316V100.387C59.9373 100.474 59.9495 100.561 59.9817 100.642C60.0139 100.724 60.0652 100.797 60.1317 100.857C60.2735 100.96 60.4489 101.012 60.627 101.004H61.1687V102.679C60.6814 102.881 60.1524 102.977 59.621 102.958C59.1558 102.973 58.6954 102.867 58.2899 102.65C57.9307 102.452 57.6649 102.131 57.5469 101.754H57.4386C57.0715 102.141 56.6234 102.451 56.1229 102.665C55.517 102.888 54.8684 102.988 54.2192 102.958C53.4416 102.994 52.6692 102.821 51.9903 102.459ZM56.6337 100.563C56.9922 100.151 57.1794 99.6284 57.16 99.094V98.8148C54.8228 98.8148 53.662 99.285 53.662 100.284C53.6577 100.416 53.6831 100.547 53.7365 100.669C53.7899 100.79 53.87 100.9 53.9715 100.99C54.2603 101.182 54.6098 101.276 54.9621 101.254C55.2875 101.273 55.6132 101.221 55.9139 101.101C56.2145 100.981 56.4821 100.797 56.6956 100.563H56.6337Z" fill="#1F6155"/>
<path d="M73.0558 93.6132H75.3465L75.5632 95.0826H75.7025C75.8818 94.6141 76.1732 94.1916 76.5538 93.8483C76.9392 93.5321 77.4381 93.369 77.9468 93.3928C78.168 93.3691 78.3912 93.3691 78.6124 93.3928L78.9683 93.481V95.8026H78.2254C77.8789 95.7724 77.5297 95.8132 77.2012 95.9222C76.8728 96.0312 76.5728 96.2059 76.3216 96.4344C75.8725 97.0144 75.6632 97.7307 75.7335 98.4475V102.856H73.0558V93.6132Z" fill="#1F6155"/>
<path d="M80.4852 101.856C79.6367 100.801 79.177 99.5105 79.177 98.183C79.177 96.8555 79.6367 95.5648 80.4852 94.5096C81.5947 93.6554 83.0082 93.2397 84.432 93.3488C85.8559 93.2397 87.2694 93.6554 88.3789 94.5096C89.2374 95.5607 89.7033 96.8529 89.7033 98.183C89.7033 99.513 89.2374 100.805 88.3789 101.856C87.2694 102.711 85.8559 103.126 84.432 103.017C83.0082 103.126 81.5947 102.711 80.4852 101.856ZM86.3358 100.387C86.7712 99.7952 86.9789 99.0793 86.924 98.3593V98.0654C86.9789 97.3455 86.7712 96.6295 86.3358 96.0377C86.0919 95.7971 85.7943 95.6115 85.4648 95.4945C85.1353 95.3775 84.7824 95.3322 84.432 95.3618C84.0837 95.329 83.7322 95.3729 83.4046 95.4901C83.0771 95.6074 82.7825 95.7948 82.5437 96.0377C82.1355 96.6388 81.9554 97.354 82.033 98.0654V98.3593C81.978 99.0793 82.1857 99.7952 82.6211 100.387C82.8599 100.63 83.1545 100.817 83.482 100.935C83.8095 101.052 84.1611 101.096 84.5094 101.063C84.8522 101.086 85.1962 101.037 85.5171 100.92C85.8379 100.804 86.128 100.622 86.3668 100.387H86.3358Z" fill="#1F6155"/>
<path d="M69.6507 100.696H65.0073C64.9234 100.702 64.839 100.693 64.7592 100.668C64.6793 100.642 64.6058 100.602 64.5429 100.549C64.4861 100.507 64.44 100.453 64.4078 100.392C64.3757 100.331 64.3584 100.264 64.3572 100.196C64.3566 100.12 64.3744 100.044 64.4093 99.9755C64.4442 99.9067 64.4952 99.8464 64.5584 99.7993C64.7311 99.7019 64.9306 99.6559 65.1311 99.6671H66.6789C67.84 99.7389 68.9936 99.4444 69.9602 98.8295C70.3311 98.563 70.6289 98.2154 70.8283 97.8164C71.0276 97.4174 71.1228 96.9786 71.1056 96.5373C71.1247 96.1444 71.0496 95.7525 70.8861 95.3911C70.7225 95.0297 70.4748 94.7082 70.1614 94.4508C70.1614 94.3626 69.6816 93.7308 70.1614 93.3047C70.6007 92.9201 71.1319 92.6428 71.7092 92.4966C71.7092 92.4966 70.6567 93.2459 70.5174 93.672C70.4396 93.8863 70.4396 94.119 70.5174 94.3333C71.0196 94.218 71.4763 93.9681 71.833 93.6133C72.0336 93.4058 72.1889 93.1626 72.2898 92.8978C72.3908 92.6329 72.4354 92.3517 72.4212 92.0704C72.0316 91.9703 71.6238 91.9513 71.2258 92.0148C70.8278 92.0782 70.4488 92.2225 70.115 92.4378C69.8776 92.6062 69.6902 92.83 69.5709 93.0874C69.4515 93.3449 69.4044 93.6273 69.434 93.9071C68.4982 93.6345 67.532 93.4668 66.5551 93.4076C65.3599 93.3357 64.172 93.6292 63.1654 94.2451C62.7817 94.5387 62.4773 94.9151 62.2777 95.3429C62.0781 95.7707 61.9889 96.2376 62.0177 96.7047C62.0464 97.1718 62.1923 97.6256 62.4431 98.0284C62.6938 98.4312 63.0423 98.7714 63.4595 99.0205C62.9741 99.1119 62.5213 99.3192 62.1439 99.623C61.9859 99.743 61.8581 99.895 61.7697 100.068C61.6814 100.241 61.6347 100.43 61.6331 100.622C61.6321 100.922 61.7279 101.216 61.9078 101.463C62.0877 101.71 62.3429 101.898 62.6392 102.003C61.5867 102.444 61.0914 103.061 61.0914 103.884C61.0907 104.168 61.1588 104.448 61.2903 104.703C61.4218 104.957 61.6132 105.18 61.8498 105.353C62.3565 105.756 63.0001 105.97 63.6607 105.956H68.5517C69.215 105.963 69.8729 105.843 70.4865 105.603C71.0393 105.399 71.5215 105.053 71.8795 104.604C72.2163 104.181 72.3959 103.665 72.3903 103.135C72.4036 102.803 72.3414 102.472 72.2078 102.166C72.0743 101.859 71.8725 101.583 71.6164 101.357C71.3524 101.127 71.0423 100.95 70.7045 100.836C70.3668 100.722 70.0083 100.675 69.6507 100.696ZM65.0073 95.4206C65.4161 95.1298 65.9218 94.989 66.4313 95.0239C66.9406 94.9903 67.4458 95.131 67.8552 95.4206C68.012 95.5645 68.1367 95.7368 68.2219 95.9274C68.3071 96.118 68.351 96.3229 68.351 96.53C68.351 96.737 68.3071 96.9419 68.2219 97.1325C68.1367 97.3231 68.012 97.4955 67.8552 97.6393C67.4458 97.9289 66.9406 98.0696 66.4313 98.0361C65.9218 98.071 65.4161 97.9301 65.0073 97.6393C64.6982 97.3447 64.5247 96.9458 64.5247 96.53C64.5247 96.1141 64.6982 95.7153 65.0073 95.4206ZM69.2018 104.105C68.9594 104.271 68.6646 104.354 68.366 104.34H64.7906C64.5209 104.351 64.2565 104.267 64.0477 104.105C63.9553 104.034 63.8808 103.944 63.8299 103.843C63.779 103.741 63.7529 103.629 63.7536 103.517C63.7522 103.405 63.7797 103.294 63.8337 103.194C63.8876 103.094 63.9664 103.008 64.0631 102.944C64.2679 102.785 64.5262 102.701 64.7906 102.709H68.5827C68.8467 102.703 69.1061 102.775 69.3256 102.914C69.4258 102.983 69.5066 103.073 69.5606 103.178C69.6146 103.284 69.6403 103.4 69.6352 103.517C69.6372 103.634 69.6069 103.751 69.5471 103.854C69.4874 103.957 69.4004 104.043 69.2947 104.105H69.2018Z" fill="#1F6155"/>
</g>
<defs>
<clipPath id="clip0_747_329">
<rect width="89.71" height="106" fill="white"/>
</clipPath>
</defs>
</svg>