<?xml version="1.0" standalone="no"?>
<!DOCTYPE svg PUBLIC "-//W3C//DTD SVG 1.1//EN" "http://www.w3.org/Graphics/SVG/1.1/DTD/svg11.dtd">
<svg xmlns="http://www.w3.org/2000/svg" width="200" height="44" viewBox="0 0 200 44" fill="none">
<path d="M8.6123 43.1788C12.8373 30.1041 10.3727 12.5141 8.6123 5.35352C31.336 15.9351 37.2866 34.9793 37.4214 43.1788H8.6123Z" fill="#193FB5"/>
<circle cx="10.6107" cy="24.1229" r="8.80211" fill="#FF8600"/>
<path d="M8.16074 21.1202C8.68353 21.8343 7.87323 22.6151 7.17902 22.0662C6.6554 21.352 7.46627 20.5705 8.16074 21.1202Z" fill="black"/>
<path d="M13.6158 21.1202C14.1386 21.8343 13.3283 22.6151 12.6341 22.0662C12.1105 21.352 12.9214 20.5705 13.6158 21.1202Z" fill="black"/>
<path d="M14.3742 25.2546C13.991 25.8548 13.445 26.3638 12.8036 26.7176C12.1621 27.0714 11.4271 27.2646 10.6903 27.2808C9.95287 27.2992 9.21673 27.1432 8.55119 26.8501C7.88528 26.5565 7.2861 26.1303 6.80371 25.6067C7.40454 25.9877 8.02503 26.3089 8.67705 26.5244C9.32724 26.7411 10.0049 26.8527 10.6798 26.837C11.3544 26.8218 12.0245 26.6776 12.6495 26.4056C13.276 26.1345 13.8501 25.7355 14.3742 25.2546Z" fill="black"/>
<rect width="7.89811" height="4.80548" fill="#FF8600"/>
<path d="M55.8193 36.4507C53.7507 36.4507 52.0909 35.7873 50.8401 34.4605C49.6134 33.1096 49 31.3366 49 29.1414V11.2664C49 11.1458 49.0361 11.0493 49.1082 10.977C49.2045 10.8805 49.3127 10.8322 49.433 10.8322H52.7524C52.8727 10.8322 52.9689 10.8805 53.0411 10.977C53.1373 11.0493 53.1854 11.1458 53.1854 11.2664V29.5757C53.1854 30.5406 53.4259 31.3246 53.907 31.9276C54.3881 32.5307 55.0255 32.8322 55.8193 32.8322C56.6131 32.8322 57.2505 32.5307 57.7316 31.9276C58.2127 31.3246 58.4532 30.5406 58.4532 29.5757V11.2664C58.4532 11.1458 58.4893 11.0493 58.5615 10.977C58.6577 10.8805 58.7659 10.8322 58.8862 10.8322H62.2056C62.3259 10.8322 62.4221 10.8805 62.4943 10.977C62.5905 11.0493 62.6386 11.1458 62.6386 11.2664V29.1414C62.6386 31.3366 62.0132 33.1096 60.7624 34.4605C59.5116 35.7873 57.8639 36.4507 55.8193 36.4507Z" fill="black"/>
<path d="M73.9875 17.3816C75.551 17.3816 76.7296 17.9123 77.5234 18.9737C78.3413 20.011 78.7502 21.4945 78.7502 23.4243V35.727C78.7502 35.8476 78.7021 35.9561 78.6058 36.0526C78.5337 36.125 78.4375 36.1612 78.3172 36.1612H74.9978C74.8775 36.1612 74.7692 36.125 74.673 36.0526C74.6009 35.9561 74.5648 35.8476 74.5648 35.727V23.75C74.5648 22.8816 74.3844 22.2061 74.0236 21.7237C73.6628 21.2412 73.1456 21 72.4721 21C71.7745 21 71.2333 21.2533 70.8484 21.7599C70.4636 22.2664 70.2711 22.966 70.2711 23.8586V35.727C70.2711 35.8476 70.223 35.9561 70.1268 36.0526C70.0547 36.125 69.9584 36.1612 69.8382 36.1612H66.5187C66.3985 36.1612 66.2902 36.125 66.194 36.0526C66.1218 35.9561 66.0858 35.8476 66.0858 35.727V18.1053C66.0858 17.9846 66.1218 17.8882 66.194 17.8158C66.2902 17.7193 66.3985 17.6711 66.5187 17.6711H69.8382C69.9584 17.6711 70.0547 17.7193 70.1268 17.8158C70.223 17.8882 70.2711 17.9846 70.2711 18.1053V18.8289C70.2711 18.9013 70.2952 18.9496 70.3433 18.9737C70.4155 18.9737 70.4876 18.9254 70.5598 18.8289C71.3776 17.864 72.5202 17.3816 73.9875 17.3816Z" fill="black"/>
<path d="M84.1426 15.1382C83.3969 15.1382 82.7835 14.8969 82.3025 14.4145C81.8214 13.932 81.5808 13.3169 81.5808 12.5691C81.5808 11.8213 81.8214 11.2061 82.3025 10.7237C82.7835 10.2412 83.3969 10 84.1426 10C84.8883 10 85.4896 10.2412 85.9466 10.7237C86.4277 11.2061 86.6683 11.8213 86.6683 12.5691C86.6683 13.3169 86.4277 13.932 85.9466 14.4145C85.4656 14.8969 84.8642 15.1382 84.1426 15.1382ZM82.5189 36.1612C82.3987 36.1612 82.2904 36.125 82.1942 36.0526C82.1221 35.9561 82.086 35.8476 82.086 35.727V18.1053C82.086 17.9846 82.1221 17.8882 82.1942 17.8158C82.2904 17.7193 82.3987 17.6711 82.5189 17.6711H85.8384C85.9587 17.6711 86.0549 17.7193 86.127 17.8158C86.2233 17.8882 86.2714 17.9846 86.2714 18.1053V35.727C86.2714 35.8476 86.2233 35.9561 86.127 36.0526C86.0549 36.125 85.9587 36.1612 85.8384 36.1612H82.5189Z" fill="black"/>
<path d="M97.4147 20.2039C97.4147 20.3246 97.3666 20.4331 97.2704 20.5296C97.1983 20.602 97.102 20.6382 96.9818 20.6382H94.7448C94.6245 20.6382 94.5644 20.6985 94.5644 20.8191V30.2993C94.5644 31.1436 94.7207 31.7346 95.0334 32.0724C95.3461 32.386 95.8152 32.5307 96.4406 32.5066H96.6931C96.8134 32.5066 96.9096 32.5548 96.9818 32.6513C97.078 32.7237 97.1261 32.8202 97.1261 32.9408V35.727C97.1261 35.8476 97.078 35.9561 96.9818 36.0526C96.9096 36.125 96.8134 36.1612 96.6931 36.1612H95.4664C93.8307 36.1612 92.5919 35.8596 91.75 35.2566C90.9322 34.6535 90.5233 33.5197 90.5233 31.8553V20.8191C90.5233 20.6985 90.4631 20.6382 90.3429 20.6382H89.08C88.9598 20.6382 88.8515 20.602 88.7553 20.5296C88.6831 20.4331 88.6471 20.3246 88.6471 20.2039V18.1053C88.6471 17.9846 88.6831 17.8882 88.7553 17.8158C88.8515 17.7193 88.9598 17.6711 89.08 17.6711H90.3429C90.4631 17.6711 90.5233 17.6107 90.5233 17.4901V13.5099C90.5233 13.3893 90.5594 13.2928 90.6315 13.2204C90.7277 13.1239 90.836 13.0757 90.9563 13.0757H94.1314C94.2516 13.0757 94.3479 13.1239 94.42 13.2204C94.5162 13.2928 94.5644 13.3893 94.5644 13.5099V17.4901C94.5644 17.6107 94.6245 17.6711 94.7448 17.6711H96.9818C97.102 17.6711 97.1983 17.7193 97.2704 17.8158C97.3666 17.8882 97.4147 17.9846 97.4147 18.1053V20.2039Z" fill="black"/>
<path d="M112.36 28.0197C112.36 28.1404 112.312 28.2489 112.216 28.3454C112.144 28.4178 112.048 28.4539 111.927 28.4539H103.954C103.833 28.4539 103.773 28.5143 103.773 28.6349V30.2632C103.773 31.011 103.978 31.6261 104.387 32.1086C104.795 32.591 105.325 32.8322 105.974 32.8322C106.527 32.8322 106.996 32.6634 107.381 32.3257C107.79 31.9638 108.055 31.5055 108.175 30.9507C108.247 30.7094 108.404 30.5888 108.644 30.5888L111.855 30.7336C111.976 30.7336 112.072 30.7818 112.144 30.8783C112.24 30.9507 112.276 31.0592 112.252 31.2039C112.084 32.8925 111.47 34.1952 110.412 35.1118C109.354 36.0044 107.874 36.4507 105.974 36.4507C104.002 36.4507 102.438 35.932 101.284 34.8947C100.153 33.8333 99.5878 32.398 99.5878 30.5888V23.2434C99.5878 21.4825 100.153 20.0713 101.284 19.0099C102.438 17.9243 104.002 17.3816 105.974 17.3816C107.947 17.3816 109.498 17.9243 110.629 19.0099C111.783 20.0713 112.36 21.4825 112.36 23.2434V28.0197ZM105.974 21C105.325 21 104.795 21.2412 104.387 21.7237C103.978 22.2061 103.773 22.8213 103.773 23.5691V25.1974C103.773 25.318 103.833 25.3783 103.954 25.3783H108.031C108.151 25.3783 108.211 25.318 108.211 25.1974V23.5691C108.211 22.7971 108.007 22.182 107.598 21.7237C107.189 21.2412 106.648 21 105.974 21Z" fill="black"/>
<path d="M123.502 11.2664C123.502 11.1458 123.538 11.0493 123.61 10.977C123.706 10.8805 123.814 10.8322 123.935 10.8322H127.254C127.374 10.8322 127.47 10.8805 127.543 10.977C127.639 11.0493 127.687 11.1458 127.687 11.2664V35.727C127.687 35.8476 127.639 35.9561 127.543 36.0526C127.47 36.125 127.374 36.1612 127.254 36.1612H123.935C123.814 36.1612 123.706 36.125 123.61 36.0526C123.538 35.9561 123.502 35.8476 123.502 35.727V35.2928C123.502 35.2204 123.478 35.1721 123.429 35.148C123.381 35.1239 123.333 35.136 123.285 35.1842C122.419 36.0285 121.337 36.4507 120.038 36.4507C118.426 36.4507 117.175 35.92 116.285 34.8585C115.395 33.7971 114.95 32.3739 114.95 30.5888V23.2434C114.95 21.4101 115.395 19.9748 116.285 18.9375C117.199 17.9002 118.45 17.3816 120.038 17.3816C120.591 17.3816 121.156 17.4901 121.734 17.7072C122.311 17.9002 122.828 18.2259 123.285 18.6842C123.333 18.7325 123.381 18.7445 123.429 18.7204C123.478 18.6963 123.502 18.648 123.502 18.5757V11.2664ZM121.337 32.8322C121.914 32.8322 122.395 32.6513 122.78 32.2895C123.165 31.9035 123.405 31.3969 123.502 30.7697V23.0625C123.405 22.4353 123.165 21.9408 122.78 21.5789C122.395 21.193 121.914 21 121.337 21C120.663 21 120.122 21.2412 119.713 21.7237C119.304 22.182 119.1 22.7971 119.1 23.5691V30.2632C119.1 31.0351 119.304 31.6623 119.713 32.1447C120.122 32.6031 120.663 32.8322 121.337 32.8322Z" fill="black"/>
<path d="M137.628 36.4507C135.584 36.4507 133.936 35.8355 132.685 34.6053C131.458 33.3509 130.845 31.6985 130.845 29.648V17.3092C130.845 15.2346 131.458 13.5943 132.685 12.3882C133.936 11.1579 135.584 10.5428 137.628 10.5428C139.697 10.5428 141.356 11.1579 142.607 12.3882C143.858 13.5943 144.483 15.2346 144.483 17.3092V17.7434C144.483 17.864 144.435 17.9726 144.339 18.0691C144.267 18.1656 144.171 18.2138 144.051 18.2138L140.695 18.3586C140.406 18.3586 140.262 18.2138 140.262 17.9243V17.0197C140.262 16.1754 140.021 15.4879 139.54 14.9572C139.059 14.4265 138.422 14.1612 137.628 14.1612C136.858 14.1612 136.233 14.4265 135.752 14.9572C135.271 15.4879 135.03 16.1754 135.03 17.0197V29.9737C135.03 30.818 135.271 31.5055 135.752 32.0362C136.233 32.5669 136.858 32.8322 137.628 32.8322C138.422 32.8322 139.059 32.5669 139.54 32.0362C140.021 31.5055 140.262 30.818 140.262 29.9737V29.0691C140.262 28.9485 140.298 28.852 140.37 28.7796C140.466 28.6831 140.575 28.6349 140.695 28.6349L144.051 28.7796C144.171 28.7796 144.267 28.8279 144.339 28.9243C144.435 28.9967 144.483 29.0932 144.483 29.2138V29.648C144.483 31.6985 143.858 33.3509 142.607 34.6053C141.356 35.8355 139.697 36.4507 137.628 36.4507Z" fill="black"/>
<path d="M153.757 17.3816C155.658 17.3816 157.197 17.9364 158.376 19.0461C159.554 20.1557 160.144 21.6151 160.144 23.4243V35.727C160.144 35.8476 160.096 35.9561 159.999 36.0526C159.927 36.125 159.831 36.1612 159.711 36.1612H156.391C156.271 36.1612 156.163 36.125 156.067 36.0526C155.994 35.9561 155.958 35.8476 155.958 35.727V35.0395C155.958 34.9671 155.934 34.9189 155.886 34.8947C155.838 34.8706 155.79 34.8947 155.742 34.9671C154.9 35.9561 153.673 36.4507 152.062 36.4507C150.691 36.4507 149.476 36.0647 148.417 35.2928C147.383 34.4967 146.866 33.0614 146.866 30.9868C146.866 28.8158 147.491 27.2719 148.742 26.3553C150.017 25.4386 151.737 24.9803 153.902 24.9803H155.778C155.898 24.9803 155.958 24.92 155.958 24.7993V23.8586C155.958 22.9901 155.742 22.3026 155.309 21.7961C154.876 21.2654 154.335 21 153.685 21C153.18 21 152.759 21.1689 152.422 21.5066C152.086 21.8202 151.881 22.2544 151.809 22.8092C151.785 23.0987 151.629 23.2434 151.34 23.2434H147.84C147.552 23.2434 147.419 23.0987 147.443 22.8092C147.564 21.1689 148.201 19.8542 149.356 18.8651C150.534 17.8761 152.001 17.3816 153.757 17.3816ZM153.216 32.977C153.938 32.977 154.575 32.7478 155.129 32.2895C155.682 31.8311 155.958 31.1919 155.958 30.3717V28.3092C155.958 28.1886 155.898 28.1283 155.778 28.1283H153.902C153.084 28.1283 152.422 28.3575 151.917 28.8158C151.412 29.25 151.16 29.8893 151.16 30.7336C151.16 31.4814 151.352 32.0482 151.737 32.4342C152.122 32.7961 152.615 32.977 153.216 32.977Z" fill="black"/>
<path d="M179.18 17.3816C180.743 17.3816 181.922 17.9364 182.716 19.0461C183.534 20.1316 183.943 21.6513 183.943 23.6053V35.727C183.943 35.8476 183.894 35.9561 183.798 36.0526C183.726 36.125 183.63 36.1612 183.51 36.1612H180.226C180.106 36.1612 179.998 36.125 179.901 36.0526C179.829 35.9561 179.793 35.8476 179.793 35.727V23.8947C179.793 22.9781 179.613 22.2664 179.252 21.7599C178.891 21.2533 178.398 21 177.773 21C177.099 21 176.57 21.2533 176.185 21.7599C175.8 22.2664 175.608 22.966 175.608 23.8586V35.727C175.608 35.8476 175.56 35.9561 175.464 36.0526C175.391 36.125 175.295 36.1612 175.175 36.1612H171.892C171.771 36.1612 171.663 36.125 171.567 36.0526C171.495 35.9561 171.459 35.8476 171.459 35.727V23.8947C171.459 22.9781 171.266 22.2664 170.881 21.7599C170.52 21.2533 170.039 21 169.438 21C168.764 21 168.235 21.2533 167.85 21.7599C167.466 22.2664 167.273 22.966 167.273 23.8586V35.727C167.273 35.8476 167.225 35.9561 167.129 36.0526C167.057 36.125 166.96 36.1612 166.84 36.1612H163.557C163.437 36.1612 163.328 36.125 163.232 36.0526C163.16 35.9561 163.124 35.8476 163.124 35.727V18.1053C163.124 17.9846 163.16 17.8882 163.232 17.8158C163.328 17.7193 163.437 17.6711 163.557 17.6711H166.84C166.96 17.6711 167.057 17.7193 167.129 17.8158C167.225 17.8882 167.273 17.9846 167.273 18.1053V18.6842C167.273 18.7566 167.297 18.8048 167.345 18.8289C167.393 18.8531 167.442 18.8289 167.49 18.7566C167.971 18.2741 168.512 17.9243 169.113 17.7072C169.715 17.4901 170.304 17.3816 170.881 17.3816C172.661 17.3816 173.972 18.1414 174.814 19.6612C174.886 19.7577 174.994 19.7215 175.139 19.5526C175.62 18.7807 176.221 18.2259 176.943 17.8882C177.689 17.5504 178.434 17.3816 179.18 17.3816Z" fill="black"/>
<path d="M194.913 17.3816C196.524 17.3816 197.775 17.9123 198.665 18.9737C199.555 20.011 200 21.4342 200 23.2434V30.5526C200 32.4101 199.555 33.8575 198.665 34.8947C197.775 35.932 196.524 36.4507 194.913 36.4507C194.359 36.4507 193.794 36.3542 193.217 36.1612C192.639 35.9441 192.122 35.6064 191.665 35.148C191.617 35.0998 191.569 35.0877 191.521 35.1118C191.473 35.136 191.449 35.1842 191.449 35.2566V42.5658C191.449 42.6864 191.401 42.7829 191.304 42.8553C191.232 42.9518 191.136 43 191.016 43H187.696C187.576 43 187.468 42.9518 187.372 42.8553C187.299 42.7829 187.263 42.6864 187.263 42.5658V18.1053C187.263 17.9846 187.299 17.8882 187.372 17.8158C187.468 17.7193 187.576 17.6711 187.696 17.6711H191.016C191.136 17.6711 191.232 17.7193 191.304 17.8158C191.401 17.8882 191.449 17.9846 191.449 18.1053V18.5395C191.449 18.6118 191.473 18.6601 191.521 18.6842C191.593 18.6842 191.665 18.636 191.737 18.5395C192.579 17.7675 193.638 17.3816 194.913 17.3816ZM195.851 23.5691C195.851 22.7971 195.646 22.17 195.237 21.6875C194.828 21.205 194.287 20.9638 193.614 20.9638C192.964 20.9638 192.435 21.205 192.026 21.6875C191.641 22.17 191.449 22.7971 191.449 23.5691V30.2632C191.449 31.0351 191.641 31.6623 192.026 32.1447C192.435 32.6031 192.964 32.8322 193.614 32.8322C194.287 32.8322 194.828 32.6031 195.237 32.1447C195.646 31.6623 195.851 31.0351 195.851 30.2632V23.5691Z" fill="black"/>
</svg>