<?xml version="1.0" encoding="utf-8"?>
<!-- Generator: Adobe Illustrator 27.9.0, SVG Export Plug-In . SVG Version: 6.00 Build 0)  -->
<svg version="1.1" id="Слой_1" xmlns="http://www.w3.org/2000/svg" xmlns:xlink="http://www.w3.org/1999/xlink" x="0px" y="0px"
	 viewBox="0 0 200 44" style="enable-background:new 0 0 200 44;" xml:space="preserve">
<style type="text/css">
	.st0{fill:#193FB5;}
	.st1{fill:#FF8600;}
	.st2{fill:#FFFFFF;}
</style>
<path class="st0" d="M8.61,43.18c4.23-13.07,1.76-30.66,0-37.83c22.72,10.58,28.67,29.63,28.81,37.83H8.61z"/>
<circle class="st1" cx="10.61" cy="24.12" r="8.8"/>
<path d="M8.16,21.12c0.52,0.71-0.29,1.49-0.98,0.95C6.66,21.35,7.47,20.57,8.16,21.12z"/>
<path d="M13.62,21.12c0.52,0.71-0.29,1.49-0.98,0.95C12.11,21.35,12.92,20.57,13.62,21.12z"/>
<path d="M14.37,25.25c-0.38,0.6-0.93,1.11-1.57,1.46c-0.64,0.35-1.38,0.55-2.11,0.56c-0.74,0.02-1.47-0.14-2.14-0.43
	c-0.67-0.29-1.27-0.72-1.75-1.24c0.6,0.38,1.22,0.7,1.87,0.92c0.65,0.22,1.33,0.33,2,0.31c0.67-0.02,1.34-0.16,1.97-0.43
	C13.28,26.13,13.85,25.74,14.37,25.25z"/>
<rect y="0" class="st1" width="7.9" height="4.81"/>
<path class="st2" d="M55.82,36.45c-2.07,0-3.73-0.66-4.98-1.99C49.61,33.11,49,31.34,49,29.14V11.27c0-0.12,0.04-0.22,0.11-0.29
	c0.1-0.1,0.2-0.14,0.32-0.14h3.32c0.12,0,0.22,0.05,0.29,0.14c0.1,0.07,0.14,0.17,0.14,0.29v18.31c0,0.96,0.24,1.75,0.72,2.35
	c0.48,0.6,1.12,0.9,1.91,0.9c0.79,0,1.43-0.3,1.91-0.9c0.48-0.6,0.72-1.39,0.72-2.35V11.27c0-0.12,0.04-0.22,0.11-0.29
	c0.1-0.1,0.2-0.14,0.32-0.14h3.32c0.12,0,0.22,0.05,0.29,0.14c0.1,0.07,0.14,0.17,0.14,0.29v17.87c0,2.2-0.63,3.97-1.88,5.32
	C59.51,35.79,57.86,36.45,55.82,36.45z"/>
<path class="st2" d="M73.99,17.38c1.56,0,2.74,0.53,3.54,1.59c0.82,1.04,1.23,2.52,1.23,4.45v12.3c0,0.12-0.05,0.23-0.14,0.33
	c-0.07,0.07-0.17,0.11-0.29,0.11H75c-0.12,0-0.23-0.04-0.32-0.11c-0.07-0.1-0.11-0.21-0.11-0.33V23.75c0-0.87-0.18-1.54-0.54-2.03
	C73.66,21.24,73.15,21,72.47,21c-0.7,0-1.24,0.25-1.62,0.76c-0.38,0.51-0.58,1.21-0.58,2.1v11.87c0,0.12-0.05,0.23-0.14,0.33
	c-0.07,0.07-0.17,0.11-0.29,0.11h-3.32c-0.12,0-0.23-0.04-0.32-0.11c-0.07-0.1-0.11-0.21-0.11-0.33V18.11
	c0-0.12,0.04-0.22,0.11-0.29c0.1-0.1,0.2-0.14,0.32-0.14h3.32c0.12,0,0.22,0.05,0.29,0.14c0.1,0.07,0.14,0.17,0.14,0.29v0.72
	c0,0.07,0.02,0.12,0.07,0.14c0.07,0,0.14-0.05,0.22-0.14C71.38,17.86,72.52,17.38,73.99,17.38z"/>
<path class="st2" d="M84.14,15.14c-0.75,0-1.36-0.24-1.84-0.72c-0.48-0.48-0.72-1.1-0.72-1.85c0-0.75,0.24-1.36,0.72-1.85
	C82.78,10.24,83.4,10,84.14,10c0.75,0,1.35,0.24,1.8,0.72c0.48,0.48,0.72,1.1,0.72,1.85c0,0.75-0.24,1.36-0.72,1.85
	C85.47,14.9,84.86,15.14,84.14,15.14z M82.52,36.16c-0.12,0-0.23-0.04-0.32-0.11c-0.07-0.1-0.11-0.21-0.11-0.33V18.11
	c0-0.12,0.04-0.22,0.11-0.29c0.1-0.1,0.2-0.14,0.32-0.14h3.32c0.12,0,0.22,0.05,0.29,0.14c0.1,0.07,0.14,0.17,0.14,0.29v17.62
	c0,0.12-0.05,0.23-0.14,0.33c-0.07,0.07-0.17,0.11-0.29,0.11H82.52z"/>
<path class="st2" d="M97.41,20.2c0,0.12-0.05,0.23-0.14,0.33c-0.07,0.07-0.17,0.11-0.29,0.11h-2.24c-0.12,0-0.18,0.06-0.18,0.18
	v9.48c0,0.84,0.16,1.44,0.47,1.77c0.31,0.31,0.78,0.46,1.41,0.43h0.25c0.12,0,0.22,0.05,0.29,0.14c0.1,0.07,0.14,0.17,0.14,0.29
	v2.79c0,0.12-0.05,0.23-0.14,0.33c-0.07,0.07-0.17,0.11-0.29,0.11h-1.23c-1.64,0-2.87-0.3-3.72-0.9c-0.82-0.6-1.23-1.74-1.23-3.4
	V20.82c0-0.12-0.06-0.18-0.18-0.18h-1.26c-0.12,0-0.23-0.04-0.32-0.11c-0.07-0.1-0.11-0.2-0.11-0.33v-2.1
	c0-0.12,0.04-0.22,0.11-0.29c0.1-0.1,0.2-0.14,0.32-0.14h1.26c0.12,0,0.18-0.06,0.18-0.18v-3.98c0-0.12,0.04-0.22,0.11-0.29
	c0.1-0.1,0.2-0.14,0.32-0.14h3.18c0.12,0,0.22,0.05,0.29,0.14c0.1,0.07,0.14,0.17,0.14,0.29v3.98c0,0.12,0.06,0.18,0.18,0.18h2.24
	c0.12,0,0.22,0.05,0.29,0.14c0.1,0.07,0.14,0.17,0.14,0.29V20.2z"/>
<path class="st2" d="M112.36,28.02c0,0.12-0.05,0.23-0.14,0.33c-0.07,0.07-0.17,0.11-0.29,0.11h-7.97c-0.12,0-0.18,0.06-0.18,0.18
	v1.63c0,0.75,0.2,1.36,0.61,1.85c0.41,0.48,0.94,0.72,1.59,0.72c0.55,0,1.02-0.17,1.41-0.51c0.41-0.36,0.67-0.82,0.79-1.38
	c0.07-0.24,0.23-0.36,0.47-0.36l3.21,0.14c0.12,0,0.22,0.05,0.29,0.14c0.1,0.07,0.13,0.18,0.11,0.33c-0.17,1.69-0.78,2.99-1.84,3.91
	c-1.06,0.89-2.54,1.34-4.44,1.34c-1.97,0-3.54-0.52-4.69-1.56c-1.13-1.06-1.7-2.5-1.7-4.31v-7.35c0-1.76,0.57-3.17,1.7-4.23
	c1.15-1.09,2.72-1.63,4.69-1.63c1.97,0,3.52,0.54,4.65,1.63c1.15,1.06,1.73,2.47,1.73,4.23V28.02z M105.97,21
	c-0.65,0-1.18,0.24-1.59,0.72c-0.41,0.48-0.61,1.1-0.61,1.85v1.63c0,0.12,0.06,0.18,0.18,0.18h4.08c0.12,0,0.18-0.06,0.18-0.18
	v-1.63c0-0.77-0.2-1.39-0.61-1.85C107.19,21.24,106.65,21,105.97,21z"/>
<path class="st2" d="M123.5,11.27c0-0.12,0.04-0.22,0.11-0.29c0.1-0.1,0.2-0.14,0.32-0.14h3.32c0.12,0,0.22,0.05,0.29,0.14
	c0.1,0.07,0.14,0.17,0.14,0.29v24.46c0,0.12-0.05,0.23-0.14,0.33c-0.07,0.07-0.17,0.11-0.29,0.11h-3.32c-0.12,0-0.23-0.04-0.32-0.11
	c-0.07-0.1-0.11-0.21-0.11-0.33v-0.43c0-0.07-0.02-0.12-0.07-0.14c-0.05-0.02-0.1-0.01-0.14,0.04c-0.87,0.84-1.95,1.27-3.25,1.27
	c-1.61,0-2.86-0.53-3.75-1.59c-0.89-1.06-1.34-2.48-1.34-4.27v-7.35c0-1.83,0.44-3.27,1.34-4.31c0.91-1.04,2.16-1.56,3.75-1.56
	c0.55,0,1.12,0.11,1.7,0.33c0.58,0.19,1.09,0.52,1.55,0.98c0.05,0.05,0.1,0.06,0.14,0.04c0.05-0.02,0.07-0.07,0.07-0.14V11.27z
	 M121.34,32.83c0.58,0,1.06-0.18,1.44-0.54c0.39-0.39,0.62-0.89,0.72-1.52v-7.71c-0.1-0.63-0.34-1.12-0.72-1.48
	c-0.39-0.39-0.87-0.58-1.44-0.58c-0.67,0-1.21,0.24-1.62,0.72c-0.41,0.46-0.61,1.07-0.61,1.85v6.69c0,0.77,0.2,1.4,0.61,1.88
	C120.12,32.6,120.66,32.83,121.34,32.83z"/>
<path class="st2" d="M137.63,36.45c-2.04,0-3.69-0.62-4.94-1.85c-1.23-1.25-1.84-2.91-1.84-4.96V17.31c0-2.07,0.61-3.71,1.84-4.92
	c1.25-1.23,2.9-1.85,4.94-1.85c2.07,0,3.73,0.62,4.98,1.85c1.25,1.21,1.88,2.85,1.88,4.92v0.43c0,0.12-0.05,0.23-0.14,0.33
	c-0.07,0.1-0.17,0.14-0.29,0.14l-3.36,0.14c-0.29,0-0.43-0.14-0.43-0.43v-0.9c0-0.84-0.24-1.53-0.72-2.06
	c-0.48-0.53-1.12-0.8-1.91-0.8c-0.77,0-1.4,0.27-1.88,0.8s-0.72,1.22-0.72,2.06v12.95c0,0.84,0.24,1.53,0.72,2.06
	c0.48,0.53,1.11,0.8,1.88,0.8c0.79,0,1.43-0.27,1.91-0.8c0.48-0.53,0.72-1.22,0.72-2.06v-0.9c0-0.12,0.04-0.22,0.11-0.29
	c0.1-0.1,0.21-0.14,0.33-0.14l3.36,0.14c0.12,0,0.22,0.05,0.29,0.14c0.1,0.07,0.14,0.17,0.14,0.29v0.43c0,2.05-0.62,3.7-1.88,4.96
	C141.36,35.84,139.7,36.45,137.63,36.45z"/>
<path class="st2" d="M153.76,17.38c1.9,0,3.44,0.55,4.62,1.66c1.18,1.11,1.77,2.57,1.77,4.38v12.3c0,0.12-0.05,0.23-0.15,0.33
	c-0.07,0.07-0.17,0.11-0.29,0.11h-3.32c-0.12,0-0.23-0.04-0.32-0.11c-0.07-0.1-0.11-0.21-0.11-0.33v-0.69
	c0-0.07-0.02-0.12-0.07-0.14c-0.05-0.02-0.1,0-0.14,0.07c-0.84,0.99-2.07,1.48-3.68,1.48c-1.37,0-2.59-0.39-3.64-1.16
	c-1.03-0.8-1.55-2.23-1.55-4.31c0-2.17,0.62-3.71,1.88-4.63c1.27-0.92,2.99-1.38,5.16-1.38h1.88c0.12,0,0.18-0.06,0.18-0.18v-0.94
	c0-0.87-0.22-1.56-0.65-2.06c-0.43-0.53-0.97-0.8-1.62-0.8c-0.51,0-0.93,0.17-1.26,0.51c-0.34,0.31-0.54,0.75-0.61,1.3
	c-0.02,0.29-0.18,0.43-0.47,0.43h-3.5c-0.29,0-0.42-0.14-0.4-0.43c0.12-1.64,0.76-2.95,1.91-3.94
	C150.53,17.88,152,17.38,153.76,17.38z M153.22,32.98c0.72,0,1.36-0.23,1.91-0.69c0.55-0.46,0.83-1.1,0.83-1.92v-2.06
	c0-0.12-0.06-0.18-0.18-0.18h-1.88c-0.82,0-1.48,0.23-1.98,0.69c-0.51,0.43-0.76,1.07-0.76,1.92c0,0.75,0.19,1.31,0.58,1.7
	C152.12,32.8,152.62,32.98,153.22,32.98z"/>
<path class="st2" d="M179.18,17.38c1.56,0,2.74,0.55,3.54,1.66c0.82,1.09,1.23,2.61,1.23,4.56v12.12c0,0.12-0.05,0.23-0.14,0.33
	c-0.07,0.07-0.17,0.11-0.29,0.11h-3.28c-0.12,0-0.23-0.04-0.32-0.11c-0.07-0.1-0.11-0.21-0.11-0.33V23.89
	c0-0.92-0.18-1.63-0.54-2.13c-0.36-0.51-0.85-0.76-1.48-0.76c-0.67,0-1.2,0.25-1.59,0.76c-0.38,0.51-0.58,1.21-0.58,2.1v11.87
	c0,0.12-0.05,0.23-0.14,0.33c-0.07,0.07-0.17,0.11-0.29,0.11h-3.28c-0.12,0-0.23-0.04-0.32-0.11c-0.07-0.1-0.11-0.21-0.11-0.33
	V23.89c0-0.92-0.19-1.63-0.58-2.13c-0.36-0.51-0.84-0.76-1.44-0.76c-0.67,0-1.2,0.25-1.59,0.76c-0.38,0.51-0.58,1.21-0.58,2.1v11.87
	c0,0.12-0.05,0.23-0.14,0.33c-0.07,0.07-0.17,0.11-0.29,0.11h-3.28c-0.12,0-0.23-0.04-0.33-0.11c-0.07-0.1-0.11-0.21-0.11-0.33
	V18.11c0-0.12,0.04-0.22,0.11-0.29c0.1-0.1,0.21-0.14,0.33-0.14h3.28c0.12,0,0.22,0.05,0.29,0.14c0.1,0.07,0.14,0.17,0.14,0.29v0.58
	c0,0.07,0.02,0.12,0.07,0.14c0.05,0.02,0.1,0,0.15-0.07c0.48-0.48,1.02-0.83,1.62-1.05c0.6-0.22,1.19-0.33,1.77-0.33
	c1.78,0,3.09,0.76,3.93,2.28c0.07,0.1,0.18,0.06,0.33-0.11c0.48-0.77,1.08-1.33,1.8-1.66C177.69,17.55,178.43,17.38,179.18,17.38z"
	/>
<path class="st2" d="M194.91,17.38c1.61,0,2.86,0.53,3.75,1.59c0.89,1.04,1.34,2.46,1.34,4.27v7.31c0,1.86-0.45,3.3-1.34,4.34
	c-0.89,1.04-2.14,1.56-3.75,1.56c-0.55,0-1.12-0.1-1.7-0.29c-0.58-0.22-1.1-0.55-1.55-1.01c-0.05-0.05-0.1-0.06-0.14-0.04
	c-0.05,0.02-0.07,0.07-0.07,0.14v7.31c0,0.12-0.05,0.22-0.15,0.29c-0.07,0.1-0.17,0.14-0.29,0.14h-3.32c-0.12,0-0.23-0.05-0.32-0.14
	c-0.07-0.07-0.11-0.17-0.11-0.29V18.11c0-0.12,0.04-0.22,0.11-0.29c0.1-0.1,0.2-0.14,0.32-0.14h3.32c0.12,0,0.22,0.05,0.29,0.14
	c0.1,0.07,0.15,0.17,0.15,0.29v0.43c0,0.07,0.02,0.12,0.07,0.14c0.07,0,0.14-0.05,0.22-0.14C192.58,17.77,193.64,17.38,194.91,17.38
	z M195.85,23.57c0-0.77-0.21-1.4-0.61-1.88s-0.95-0.72-1.62-0.72c-0.65,0-1.18,0.24-1.59,0.72c-0.38,0.48-0.58,1.11-0.58,1.88v6.69
	c0,0.77,0.19,1.4,0.58,1.88c0.41,0.46,0.94,0.69,1.59,0.69c0.67,0,1.21-0.23,1.62-0.69c0.41-0.48,0.61-1.11,0.61-1.88V23.57z"/>
</svg>
