<?xml version="1.0" standalone="no"?>
<!DOCTYPE svg PUBLIC "-//W3C//DTD SVG 20010904//EN"
 "http://www.w3.org/TR/2001/REC-SVG-20010904/DTD/svg10.dtd">
<svg version="1.0" xmlns="http://www.w3.org/2000/svg"
 width="5683.000000pt" height="742.000000pt" viewBox="0 0 5683.000000 742.000000"
 preserveAspectRatio="xMidYMid meet">

<g transform="translate(0.000000,742.000000) scale(0.100000,-0.100000)"
fill="#000000" stroke="none">
<path d="M1743 5445 c-78 -22 -125 -49 -177 -101 -95 -94 -175 -239 -202 -363
-28 -129 -37 -790 -25 -1719 16 -1152 25 -1308 91 -1494 190 -538 618 -939
1145 -1072 252 -63 509 -94 850 -103 702 -17 1293 119 1663 384 109 78 277
249 346 352 99 149 203 375 240 523 39 157 52 381 66 1153 20 1064 9 1897 -25
2030 -54 204 -214 362 -417 410 -82 19 -228 19 -303 0 -212 -56 -356 -241
-396 -511 -6 -41 -13 -537 -19 -1244 -5 -680 -13 -1232 -19 -1310 -14 -173
-36 -291 -66 -358 -64 -141 -295 -302 -507 -352 -214 -51 -651 -53 -873 -5
-152 33 -313 119 -435 232 -90 83 -127 178 -150 388 -14 126 -29 1034 -29
1815 -1 609 -10 830 -36 934 -22 83 -67 170 -128 246 -109 135 -191 170 -407
176 -98 3 -149 0 -187 -11z"/>
<path d="M6690 5440 c-181 -7 -192 -10 -286 -81 -134 -99 -204 -304 -175 -512
17 -118 35 -146 201 -297 l96 -87 884 -6 c826 -6 1255 -18 1272 -35 9 -9 -199
-239 -982 -1082 -836 -901 -1158 -1257 -1430 -1580 -139 -166 -164 -203 -197
-305 -36 -109 -37 -268 -4 -365 27 -78 88 -193 147 -276 96 -136 229 -179 634
-204 173 -11 1494 -27 2525 -31 l531 -2 89 60 c116 78 187 153 230 245 71 150
67 326 -11 480 -31 61 -69 104 -173 195 l-83 73 -787 0 c-955 1 -1491 15
-1491 39 0 18 489 559 1135 1256 573 618 914 994 1146 1265 243 284 257 308
280 476 26 198 -46 434 -180 586 -38 43 -185 158 -238 186 -16 9 -391 12
-1495 10 -810 -1 -1547 -4 -1638 -8z"/>
</g>
</svg>
