<?xml version="1.0" encoding="utf-8"?>
<!-- Generator: Adobe Illustrator 27.9.0, SVG Export Plug-In . SVG Version: 6.00 Build 0)  -->
<svg version="1.1" id="Слой_2" xmlns="http://www.w3.org/2000/svg" xmlns:xlink="http://www.w3.org/1999/xlink" x="0px" y="0px"
	 viewBox="0 0 1125.5 311.85" style="enable-background:new 0 0 1125.5 311.85;" xml:space="preserve">
<style type="text/css">
	.st0{fill:#007FE0;}
	.st1{fill:#FFFFFF;}
</style>
<g>
	<path class="st0" d="M46.91,137.97c0,0,0.69-11.29,11.12-11.18c10.43,0.11,10.78,11.18,10.78,11.18v48.78
		c0,0,0.61,14.5,19.72,13.43l3.44,0.06c0,0,13.22-0.06,16.43-13.97v-48.99c0,0,0.71-9.92,10.85-10.49
		c10.15-0.57,11.01,11.12,11.01,11.12v49.2c0,0,2.1,34.85-41.68,32.64l-1.82,0.1c0,0-38.48,3.53-40.2-32.36L46.91,137.97z"/>
	<path class="st0" d="M148.22,126.77c0,0-8.87,1.26-9.32,9.9c-0.46,8.64,9.32,10.55,9.32,10.55h37.76l-48.54,52.05
		c0,0-9.48,16.29,10.24,20.68h61.22c0,0,6.34-1.34,7.34-10.21l-0.31-1.3c0,0,0.54-6.11-6.65-8.33l-42.75,0.02
		c0,0-0.49-0.64-0.04-1.6l46.99-50.02c0,0,8.79-15.75-8.71-21.75H148.22z"/>
	<path class="st1" d="M289.62,129.33c0,0,8.41,0.15,9.32,9.71s-9.32,9.17-9.32,9.17l-29.35,0c0,0-22.55,1.6-23.46,26.37v2.06
		c0,0,2.06,20.79,23.85,24.31h30.5c0,0,6.73,1.68,6.88,9.02c0.15,7.34-6.11,9.1-7.49,9.25h-31.8c0,0-39.97-2.14-41.04-44.94
		c0,0,1.07-43.41,43.26-44.94H289.62z"/>
	<path class="st1" d="M255.76,164.8c0,0-9.02-0.23-9.63,9.48c0,0-0.38,7.49,7.26,9.17h38.37c0,0,6.84-1.45,7.24-9.17
		c0,0-0.44-9.02-8.24-9.48L255.76,164.8z"/>
	<path class="st1" d="M307.51,99.45c0,0,2.29-9.21,10.7-8.81c8.41,0.4,9.71,6.44,10.39,8.81l0.23,110.98c0,0-2.25,8.83-10.66,8.79
		c0,0-8.83,0.92-10.66-9.63V99.45z"/>
	<path class="st1" d="M354.77,100.11c0,0,0.4-9.85,11.04-9.47c0,0,9.52-0.33,10.23,9.47v29.07h11.88c0,0,7.26,1.64,7.07,9.1
		c0,0,0.46,8.06-7.07,9.13h-11.89v62.94c0,0-0.76,9.63-10.51,9.48c0,0-9.11,0.38-10.75-9.59v-62.87l-11.72,0.04
		c0,0-6.46,0-7.11-8.87c0,0,0.5-7.72,6.38-9.29l12.46-0.04L354.77,100.11z"/>
	<path class="st1" d="M466.61,129.33c0,0,8.41,0.15,9.32,9.71c0.92,9.55-9.32,9.17-9.32,9.17l-29.35,0c0,0-22.55,1.6-23.46,26.37
		v2.06c0,0,2.06,20.79,23.85,24.31h30.5c0,0,6.73,1.68,6.88,9.02c0.15,7.34-6.11,9.1-7.49,9.25h-31.8c0,0-39.97-2.14-41.04-44.94
		c0,0,1.07-43.41,43.26-44.94H466.61z"/>
	<path class="st1" d="M432.75,164.8c0,0-9.02-0.23-9.63,9.48c0,0-0.38,7.49,7.26,9.17h38.37c0,0,6.84-1.45,7.24-9.17
		c0,0-0.44-9.02-8.24-9.48L432.75,164.8z"/>
	<path class="st1" d="M1038.72,99.81c0,0,0.4-9.85,11.04-9.47c0,0,9.52-0.33,10.23,9.47v29.07h11.88c0,0,7.26,1.64,7.07,9.1
		c0,0,0.46,8.06-7.07,9.13h-11.89v62.94c0,0-0.76,9.63-10.51,9.48c0,0-9.11,0.38-10.75-9.59v-62.87l-11.72,0.04
		c0,0-6.46,0-7.11-8.87c0,0,0.5-7.72,6.38-9.29l12.46-0.04L1038.72,99.81z"/>
	<path class="st1" d="M485.45,141.18c0,0-2.81-6.94,3.27-11.06c6.08-4.13,13.53,0,13.53,0l18.46,26.6l18.63-26.66
		c0,0,6.36-5.5,12.9,0c6.54,5.5,4.07,12.11,4.07,12.11l-23.5,31.86l23.62,33.31c0,0,1.72,7.22-3.38,10.66
		c-5.1,3.44-9,2.18-12.27,1.66l-19.99-27.29l-18.71,26.6c0,0-6.42,4.59-13.99-0.69c-7.57-5.27-0.75-14.39-0.75-14.39l21.38-29.62
		L485.45,141.18z"/>
	<path class="st1" d="M633.65,129.26c0,0,7.41-0.08,8.25,9.44c0,0,0.96,7.3-7.45,9.4l-41.78,0.05c0,0-7.63,2.05-7.02,8.74
		c0,0-0.73,4.13,5.58,7.8h31.22c0,0,24.73,2.03,24.5,27.63c-0.23,25.61-25.07,26.98-25.07,26.98h-45.55c0,0-7.91-1.18-7.99-9.32
		c0,0-0.57-8.6,8.64-9.75h45.71c0,0,5.24-0.76,6.38-7.87c0,0-0.46-8.41-8.56-8.64c-8.1-0.23-31.45-0.15-31.45-0.15
		s-23.24-2.48-22.32-26.56c0,0-2.18-26.03,24.65-27.75L633.65,129.26z"/>
	<path class="st1" d="M703.8,129.23l-36,0.02c-10.55-0.57-10.26,9.57-10.26,9.57c1.03,8.2,8.48,9.34,8.48,9.34s16.24,0.04,32.87,0
		c16.62-0.04,16.82,14.14,16.82,14.14l-37.07,0.19c-26.03,2.06-25.34,28.66-25.34,28.66c1.83,27.63,24.19,28.13,24.19,28.13h59.16
		v-62.64C733.43,129.49,703.8,129.23,703.8,129.23z M715.36,199.96l-35.69,0.38c0,0-7.49-1.68-7.57-9.63
		c-0.08-7.95,7.26-9.48,7.26-9.48h36V199.96z"/>
	<path class="st1" d="M986.04,129.18l-36,0.02c-10.55-0.57-10.26,9.57-10.26,9.57c1.03,8.2,8.48,9.34,8.48,9.34s16.24,0.04,32.87,0
		c16.62-0.04,16.82,14.14,16.82,14.14l-37.07,0.19c-26.03,2.06-25.34,28.66-25.34,28.66c1.83,27.63,24.19,28.13,24.19,28.13h59.16
		v-62.64C1015.68,129.44,986.04,129.18,986.04,129.18z M997.6,199.91l-35.69,0.38c0,0-7.49-1.68-7.57-9.63
		c-0.08-7.95,7.26-9.48,7.26-9.48h36V199.91z"/>
	<path class="st1" d="M770.75,219.29c0,0-13.64,0-16.22,0c-2.58,0-5.79,0-5.79,0v-59.31c0,0,1.66-33.07,42.36-30.75
		c0,0,38.75-4.33,40.47,32.24v57.82h-21.44v-59.2c0,0-0.8-10.89-19.98-12.27c0,0-18.14-0.29-19.92,12.32L770.75,219.29z"/>
	<path class="st1" d="M928.22,175.34c0.46-51.59-43.68-48.27-43.68-48.27c-46.2-2.18-44.37,47.19-44.37,47.19
		c-0.46,51.43,44.37,47.17,44.37,47.17C931.43,221.66,928.22,175.34,928.22,175.34z M884.22,202.75c0,0-23.18,2.65-22.95-28.54
		c0,0-2.94-29.13,22.95-28.56c0,0,23.48-1.47,23.03,28.61C907.24,174.26,908.43,203.78,884.22,202.75z"/>
</g>
</svg>
