<svg width="293" height="44" viewBox="0 0 293 44" fill="none" xmlns="http://www.w3.org/2000/svg">
<path d="M65.044 38V29.54H67.9C69.268 29.54 70.324 29.904 71.068 30.632C71.812 31.352 72.184 32.396 72.184 33.764C72.184 35.132 71.812 36.18 71.068 36.908C70.324 37.636 69.268 38 67.9 38H65.044ZM66.028 37.16H67.828C70.036 37.16 71.14 36.028 71.14 33.764C71.14 31.508 70.036 30.38 67.828 30.38H66.028V37.16ZM73.9503 38V29.54H79.2903V30.368H74.9103V33.296H79.0383V34.124H74.9103V37.172H79.2903V38H73.9503ZM83.5043 38L79.8083 29.54H80.8643L83.9723 36.752L87.0683 29.54H88.1003L84.3923 38H83.5043ZM89.1378 38V29.54H94.4778V30.368H90.0978V33.296H94.2258V34.124H90.0978V37.172H94.4778V38H89.1378ZM96.1338 38V29.54H97.1178V37.136H101.426V38H96.1338ZM105.768 38.108C104.984 38.108 104.3 37.932 103.716 37.58C103.14 37.22 102.692 36.716 102.372 36.068C102.06 35.42 101.904 34.652 101.904 33.764C101.904 32.876 102.06 32.108 102.372 31.46C102.684 30.812 103.128 30.312 103.704 29.96C104.288 29.608 104.976 29.432 105.768 29.432C106.568 29.432 107.256 29.608 107.832 29.96C108.416 30.312 108.864 30.812 109.176 31.46C109.496 32.1 109.656 32.864 109.656 33.752C109.656 34.64 109.496 35.412 109.176 36.068C108.856 36.716 108.404 37.22 107.82 37.58C107.244 37.932 106.56 38.108 105.768 38.108ZM105.768 37.232C106.672 37.232 107.372 36.928 107.868 36.32C108.364 35.712 108.612 34.86 108.612 33.764C108.612 32.668 108.364 31.82 107.868 31.22C107.372 30.612 106.672 30.308 105.768 30.308C104.88 30.308 104.188 30.612 103.692 31.22C103.196 31.82 102.948 32.668 102.948 33.764C102.948 34.852 103.196 35.704 103.692 36.32C104.188 36.928 104.88 37.232 105.768 37.232ZM111.415 38V29.54H114.763C115.675 29.54 116.371 29.76 116.851 30.2C117.339 30.64 117.583 31.268 117.583 32.084C117.583 32.892 117.339 33.52 116.851 33.968C116.371 34.408 115.675 34.628 114.763 34.628H112.399V38H111.415ZM112.399 33.8H114.643C115.955 33.8 116.611 33.228 116.611 32.084C116.611 30.932 115.955 30.356 114.643 30.356H112.399V33.8ZM119.033 38V29.54H119.861L123.113 35.648L126.341 29.54H127.169V38H126.257V31.388L123.437 36.692H122.789L119.933 31.4V38H119.033ZM129.274 38V29.54H134.614V30.368H130.234V33.296H134.362V34.124H130.234V37.172H134.614V38H129.274ZM136.271 38V29.54H137.039L142.139 36.344V29.54H143.051V38H142.307L137.195 31.172V38H136.271ZM147.229 38V30.392H144.157V29.54H151.297V30.392H148.225V38H147.229ZM159.318 38.108C157.958 38.108 156.922 37.724 156.21 36.956C155.498 36.188 155.142 35.128 155.142 33.776C155.142 32.88 155.302 32.108 155.622 31.46C155.942 30.812 156.402 30.312 157.002 29.96C157.602 29.608 158.326 29.432 159.174 29.432C159.774 29.432 160.326 29.524 160.83 29.708C161.334 29.884 161.762 30.144 162.114 30.488L161.73 31.28C161.346 30.944 160.95 30.7 160.542 30.548C160.134 30.396 159.674 30.32 159.162 30.32C158.202 30.32 157.466 30.624 156.954 31.232C156.442 31.832 156.186 32.68 156.186 33.776C156.186 34.896 156.45 35.752 156.978 36.344C157.506 36.936 158.294 37.232 159.342 37.232C160.022 37.232 160.674 37.116 161.298 36.884V34.376H159.15V33.596H162.15V37.508C161.926 37.628 161.654 37.732 161.334 37.82C161.022 37.908 160.69 37.976 160.338 38.024C159.986 38.08 159.646 38.108 159.318 38.108ZM164.161 38V29.54H169.501V30.368H165.121V33.296H169.249V34.124H165.121V37.172H169.501V38H164.161ZM171.157 38V29.54H171.925L177.025 36.344V29.54H177.937V38H177.193L172.081 31.172V38H171.157ZM180.04 38V29.54H185.38V30.368H181V33.296H185.128V34.124H181V37.172H185.38V38H180.04ZM187.036 38V29.54H190.384C191.296 29.54 191.992 29.752 192.472 30.176C192.96 30.6 193.204 31.204 193.204 31.988C193.204 32.612 193.032 33.124 192.688 33.524C192.352 33.924 191.872 34.184 191.248 34.304C191.616 34.432 191.932 34.744 192.196 35.24L193.684 38H192.604L191.14 35.288C190.956 34.952 190.744 34.724 190.504 34.604C190.264 34.484 189.948 34.424 189.556 34.424H188.02V38H187.036ZM188.02 33.644H190.24C191.568 33.644 192.232 33.092 192.232 31.988C192.232 30.9 191.568 30.356 190.24 30.356H188.02V33.644ZM194.119 38L197.851 29.54H198.691L202.423 38H201.403L200.467 35.84H196.063L195.139 38H194.119ZM198.259 30.692L196.423 35.012H200.119L198.283 30.692H198.259ZM204.839 38V30.392H201.767V29.54H208.907V30.392H205.835V38H204.839ZM209.982 38V29.54H210.966V38H209.982ZM216.604 38.108C215.82 38.108 215.136 37.932 214.552 37.58C213.976 37.22 213.528 36.716 213.208 36.068C212.896 35.42 212.74 34.652 212.74 33.764C212.74 32.876 212.896 32.108 213.208 31.46C213.52 30.812 213.964 30.312 214.54 29.96C215.124 29.608 215.812 29.432 216.604 29.432C217.404 29.432 218.092 29.608 218.668 29.96C219.252 30.312 219.7 30.812 220.012 31.46C220.332 32.1 220.492 32.864 220.492 33.752C220.492 34.64 220.332 35.412 220.012 36.068C219.692 36.716 219.24 37.22 218.656 37.58C218.08 37.932 217.396 38.108 216.604 38.108ZM216.604 37.232C217.508 37.232 218.208 36.928 218.704 36.32C219.2 35.712 219.448 34.86 219.448 33.764C219.448 32.668 219.2 31.82 218.704 31.22C218.208 30.612 217.508 30.308 216.604 30.308C215.716 30.308 215.024 30.612 214.528 31.22C214.032 31.82 213.784 32.668 213.784 33.764C213.784 34.852 214.032 35.704 214.528 36.32C215.024 36.928 215.716 37.232 216.604 37.232ZM222.251 38V29.54H223.019L228.119 36.344V29.54H229.031V38H228.287L223.175 31.172V38H222.251Z" fill="white"/>
<path d="M64.018 19L69.76 6.31H71.65L77.392 19H75.052L73.792 16.066H67.6L66.358 19H64.018ZM70.678 8.812L68.392 14.23H73L70.714 8.812H70.678ZM78.7805 19V6.31H84.2885C85.6805 6.31 86.7545 6.646 87.5105 7.318C88.2665 7.978 88.6445 8.908 88.6445 10.108C88.6445 11.056 88.3985 11.842 87.9065 12.466C87.4145 13.078 86.7065 13.492 85.7825 13.708C86.3945 13.9 86.8985 14.362 87.2945 15.094L89.4185 19H86.8805L84.6845 14.95C84.4685 14.554 84.2105 14.284 83.9105 14.14C83.6225 13.996 83.2505 13.924 82.7945 13.924H81.0845V19H78.7805ZM81.0845 12.214H83.8925C85.5725 12.214 86.4125 11.53 86.4125 10.162C86.4125 8.806 85.5725 8.128 83.8925 8.128H81.0845V12.214ZM93.8288 19V8.236H89.4728V6.31H100.489V8.236H96.1328V19H93.8288ZM101.949 19V6.31H104.253V19H101.949ZM107.011 19V6.31H115.309V8.146H109.315V11.728H114.931V13.564H109.315V19H107.011ZM117.118 19V6.31H119.422V19H117.118ZM128.085 19.18C126.765 19.18 125.631 18.916 124.683 18.388C123.747 17.848 123.027 17.092 122.523 16.12C122.019 15.136 121.767 13.978 121.767 12.646C121.767 11.314 122.019 10.162 122.523 9.19C123.027 8.218 123.747 7.468 124.683 6.94C125.631 6.4 126.765 6.13 128.085 6.13C128.937 6.13 129.741 6.262 130.497 6.526C131.265 6.79 131.895 7.168 132.387 7.66L131.631 9.496C131.091 9.04 130.539 8.71 129.975 8.506C129.411 8.29 128.805 8.182 128.157 8.182C126.873 8.182 125.895 8.572 125.223 9.352C124.551 10.12 124.215 11.218 124.215 12.646C124.215 14.074 124.551 15.178 125.223 15.958C125.895 16.738 126.873 17.128 128.157 17.128C128.805 17.128 129.411 17.026 129.975 16.822C130.539 16.606 131.091 16.27 131.631 15.814L132.387 17.65C131.895 18.13 131.265 18.508 130.497 18.784C129.741 19.048 128.937 19.18 128.085 19.18ZM134.398 19V6.31H136.702V19H134.398ZM138.092 19L143.834 6.31H145.724L151.466 19H149.126L147.866 16.066H141.674L140.432 19H138.092ZM144.752 8.812L142.466 14.23H147.074L144.788 8.812H144.752ZM152.855 19V6.31H155.159V17.038H161.243V19H152.855Z" fill="white"/>
<path d="M167.814 19V6.31H170.118V19H167.814ZM172.876 19V6.31H174.604L181.426 15.166V6.31H183.568V19H181.858L175.018 10.108V19H172.876ZM189.401 19V8.236H185.045V6.31H196.061V8.236H191.705V19H189.401ZM197.521 19V6.31H205.963V8.146H199.735V11.638H205.567V13.474H199.735V17.164H205.963V19H197.521ZM208.261 19V6.31H210.565V17.038H216.649V19H208.261ZM218.368 19V6.31H220.672V17.038H226.756V19H218.368ZM228.476 19V6.31H230.78V19H228.476ZM239.64 19.18C238.236 19.18 237.048 18.916 236.076 18.388C235.116 17.86 234.384 17.11 233.88 16.138C233.376 15.166 233.124 14.014 233.124 12.682C233.124 11.338 233.382 10.18 233.898 9.208C234.414 8.224 235.158 7.468 236.13 6.94C237.102 6.4 238.266 6.13 239.622 6.13C240.51 6.13 241.344 6.262 242.124 6.526C242.904 6.778 243.552 7.132 244.068 7.588L243.294 9.388C242.73 8.944 242.154 8.626 241.566 8.434C240.978 8.242 240.33 8.146 239.622 8.146C238.278 8.146 237.258 8.536 236.562 9.316C235.878 10.096 235.536 11.218 235.536 12.682C235.536 14.158 235.89 15.28 236.598 16.048C237.306 16.816 238.356 17.2 239.748 17.2C240.144 17.2 240.546 17.17 240.954 17.11C241.374 17.038 241.788 16.936 242.196 16.804V13.852H239.28V12.142H244.122V18.244C243.534 18.532 242.838 18.76 242.034 18.928C241.23 19.096 240.432 19.18 239.64 19.18ZM246.792 19V6.31H255.234V8.146H249.006V11.638H254.838V13.474H249.006V17.164H255.234V19H246.792ZM257.532 19V6.31H259.26L266.082 15.166V6.31H268.224V19H266.514L259.674 10.108V19H257.532ZM276.901 19.18C275.581 19.18 274.447 18.916 273.499 18.388C272.563 17.848 271.843 17.092 271.339 16.12C270.835 15.136 270.583 13.978 270.583 12.646C270.583 11.314 270.835 10.162 271.339 9.19C271.843 8.218 272.563 7.468 273.499 6.94C274.447 6.4 275.581 6.13 276.901 6.13C277.753 6.13 278.557 6.262 279.313 6.526C280.081 6.79 280.711 7.168 281.203 7.66L280.447 9.496C279.907 9.04 279.355 8.71 278.791 8.506C278.227 8.29 277.621 8.182 276.973 8.182C275.689 8.182 274.711 8.572 274.039 9.352C273.367 10.12 273.031 11.218 273.031 12.646C273.031 14.074 273.367 15.178 274.039 15.958C274.711 16.738 275.689 17.128 276.973 17.128C277.621 17.128 278.227 17.026 278.791 16.822C279.355 16.606 279.907 16.27 280.447 15.814L281.203 17.65C280.711 18.13 280.081 18.508 279.313 18.784C278.557 19.048 277.753 19.18 276.901 19.18ZM283.214 19V6.31H291.656V8.146H285.428V11.638H291.26V13.474H285.428V17.164H291.656V19H283.214Z" fill="#FFCB20"/>
<path d="M27.4106 0H22.2776C27.1369 10.5057 37.4304 32.6875 39.73 37.3688C42.0297 42.0502 47.1217 42.8783 49.3802 42.7072H54C49.6882 33.7072 40.3665 14.1468 37.5741 7.90494C34.7817 1.66312 29.635 0.0342205 27.4106 0Z" fill="#FFCB20"/>
<path d="M37.0608 42.7072L17.0418 0.307983L4.92776 26.1787C9.19848 25.3574 13.1407 28.6426 14.5779 30.3878L17.0418 25.0494C17.8289 26.692 19.9779 31.2502 22.2776 36.3422C24.5772 41.4342 29.4639 42.7072 31.6198 42.7072H37.0608Z" fill="white"/>
<path d="M37.0608 42.7072L17.0418 0.307983L4.92776 26.1787C9.19848 25.3574 13.1407 28.6426 14.5779 30.3878L17.0418 25.0494C17.8289 26.692 19.9779 31.2502 22.2776 36.3422C24.5772 41.4342 29.4639 42.7072 31.6198 42.7072H37.0608Z" fill="url(#paint0_linear_201_183)"/>
<circle cx="5.3384" cy="37.6768" r="5.3384" fill="#FFCB20"/>
<defs>
<linearGradient id="paint0_linear_201_183" x1="5.27313" y1="4.95894" x2="37.5887" y2="5.49528" gradientUnits="userSpaceOnUse">
<stop stop-color="#937FDA"/>
<stop offset="1" stop-color="white"/>
</linearGradient>
</defs>
</svg>
