<svg width="103" height="98" viewBox="0 0 103 98" fill="none" xmlns="http://www.w3.org/2000/svg">
<g clip-path="url(#clip0_73_231)">
<path d="M50.9792 1.18555C25.1476 1.18555 26.7607 11.8402 26.7607 11.8402L26.7895 22.8782H51.44V26.1924H16.9984C16.9984 26.1924 0.46875 24.4094 0.46875 49.1998C0.468748 73.9902 14.8962 73.1111 14.8962 73.1111H23.5066V61.6074C23.5066 61.6074 23.0425 47.8851 37.7036 47.8851H62.1525C62.1525 47.8851 75.8889 48.0963 75.8889 35.2584V14.0313C75.8889 14.0313 77.9744 1.18555 50.9792 1.18555ZM37.3869 8.60817C39.8394 8.60817 41.8217 10.4935 41.8217 12.8262C41.8217 15.1589 39.8394 17.0442 37.3869 17.0442C34.9343 17.0442 32.9521 15.1589 32.9521 12.8262C32.9521 10.4935 34.9343 8.60817 37.3869 8.60817Z" fill="url(#paint0_linear_73_231)"/>
<path d="M51.7129 97.4626C77.5445 97.4626 75.9314 86.808 75.9314 86.808L75.9026 75.7699H51.2521V72.4557H85.6937C85.6937 72.4557 102.223 74.2387 102.223 49.4483C102.223 24.6579 87.7959 25.5371 87.7959 25.5371H79.1855V37.0408C79.1855 37.0408 79.6496 50.763 64.9884 50.763H40.5395C40.5395 50.763 26.8032 50.5518 26.8032 63.3897V84.6168C26.8032 84.6168 24.7177 97.4626 51.7129 97.4626ZM65.3052 90.04C62.8527 90.04 60.8704 88.1546 60.8704 85.822C60.8704 83.4893 62.8527 81.6039 65.3052 81.6039C67.7577 81.6039 69.74 83.4893 69.74 85.822C69.74 88.1546 67.7577 90.04 65.3052 90.04Z" fill="url(#paint1_linear_73_231)"/>
</g>
<defs>
<linearGradient id="paint0_linear_73_231" x1="10.2476" y1="9.84541" x2="58.1726" y2="59.7306" gradientUnits="userSpaceOnUse">
<stop stop-color="#387EB8"/>
<stop offset="1" stop-color="#366994"/>
</linearGradient>
<linearGradient id="paint1_linear_73_231" x1="41.199" y1="40.3357" x2="92.7847" y2="91.6072" gradientUnits="userSpaceOnUse">
<stop stop-color="#FFE052"/>
<stop offset="1" stop-color="#FFC331"/>
</linearGradient>
<clipPath id="clip0_73_231">
<rect width="102" height="97.0146" fill="white" transform="translate(0.46875 0.806641)"/>
</clipPath>
</defs>
</svg>
