<?xml version="1.0" standalone="no"?>
<!DOCTYPE svg PUBLIC "-//W3C//DTD SVG 20010904//EN"
 "http://www.w3.org/TR/2001/REC-SVG-20010904/DTD/svg10.dtd">
<svg version="1.0" xmlns="http://www.w3.org/2000/svg"
 width="1364.000000pt" height="178.000000pt" viewBox="0 0 1364.000000 178.000000"
 preserveAspectRatio="xMidYMid meet">

<g transform="translate(0.000000,178.000000) scale(0.100000,-0.100000)"
fill="#000000" stroke="none">
<path d="M3696 1761 c-15 -10 -37 -32 -47 -47 -18 -28 -19 -61 -19 -754 0
-689 1 -726 19 -753 51 -79 150 -86 217 -16 l29 30 0 741 0 740 -44 39 c-36
32 -51 39 -85 39 -23 0 -53 -8 -70 -19z"/>
<path d="M4305 1761 c-70 -43 -70 -42 -73 -267 l-3 -204 -81 0 c-78 0 -81 -1
-114 -34 -28 -28 -34 -42 -34 -75 0 -90 51 -131 164 -131 l66 0 0 -402 c0
-382 1 -405 20 -435 39 -64 111 -88 175 -57 76 36 75 28 75 487 l0 407 68 0
c82 0 130 21 156 70 25 48 15 103 -25 141 -27 25 -38 28 -112 31 l-82 3 -5
200 c-5 218 -8 230 -64 264 -41 26 -91 27 -131 2z"/>
<path d="M12959 1741 l-44 -39 -5 -203 -5 -204 -82 -5 c-76 -5 -85 -8 -114
-36 -25 -25 -31 -40 -31 -76 -2 -87 52 -128 166 -128 l65 0 3 -414 3 -414 25
-27 c68 -75 165 -68 223 15 15 22 17 63 17 432 l0 408 68 0 c84 0 130 21 155
72 24 48 14 99 -25 138 -26 27 -35 29 -111 32 l-82 3 -5 200 c-4 166 -8 204
-22 224 -27 38 -70 61 -114 61 -34 0 -49 -7 -85 -39z"/>
<path d="M10815 1306 c-129 -25 -204 -66 -287 -153 -55 -59 -78 -102 -109
-203 -21 -65 -24 -96 -24 -230 0 -223 35 -335 141 -449 97 -106 221 -151 410
-151 185 0 306 42 404 140 111 111 154 238 154 455 0 100 -5 159 -17 205 -52
198 -175 326 -358 376 -80 21 -232 26 -314 10z m239 -248 c25 -8 59 -31 88
-59 69 -69 91 -149 86 -307 -3 -102 -7 -124 -31 -177 -50 -107 -106 -145 -224
-153 -94 -6 -152 11 -207 59 -80 70 -118 216 -97 373 19 142 83 237 177 266
44 13 161 12 208 -2z"/>
<path d="M404 1300 c-30 -12 -62 -56 -75 -103 -7 -27 -9 -155 -7 -381 4 -319
5 -345 25 -399 44 -117 134 -205 248 -242 89 -29 242 -40 358 -27 219 24 339
105 398 267 21 56 22 81 27 405 2 230 0 359 -7 386 -15 57 -59 95 -117 102
-63 7 -107 -17 -134 -73 -19 -39 -20 -61 -20 -373 0 -368 -2 -380 -61 -424
-50 -37 -92 -48 -189 -48 -97 0 -139 11 -189 48 -59 44 -61 56 -61 424 0 310
-1 334 -20 373 -11 22 -33 48 -49 58 -31 18 -92 22 -127 7z"/>
<path d="M1565 1301 c-44 -19 -70 -60 -70 -113 0 -44 4 -53 37 -84 l38 -34
261 0 c145 0 259 -4 257 -9 -1 -5 -138 -153 -303 -330 -165 -177 -308 -339
-317 -359 -24 -52 -22 -98 7 -147 46 -80 45 -80 500 -83 l401 -3 34 23 c70 47
74 148 9 202 l-31 26 -274 0 c-152 0 -274 4 -274 9 0 5 133 152 296 327 163
175 303 333 310 351 29 69 4 160 -57 204 l-34 24 -385 2 c-212 1 -394 -2 -405
-6z"/>
<path d="M5982 1299 c-42 -8 -89 -53 -97 -90 -12 -51 12 -97 154 -294 84 -116
139 -201 134 -207 -4 -7 -69 -99 -144 -205 -83 -116 -141 -207 -144 -227 -9
-45 16 -101 57 -126 41 -25 104 -26 141 -1 15 10 75 87 133 172 58 85 109 158
113 162 5 4 54 -59 110 -140 121 -177 119 -174 151 -196 51 -35 146 -10 181
47 40 65 31 88 -109 283 -70 98 -137 192 -150 209 l-22 32 150 207 c137 190
150 212 150 250 0 72 -59 125 -140 125 -25 0 -53 -8 -68 -19 -15 -10 -74 -89
-132 -175 -58 -85 -109 -155 -115 -155 -5 0 -57 69 -115 155 -57 85 -112 162
-121 170 -24 21 -77 32 -117 23z"/>
<path d="M2940 1274 c-215 -46 -389 -222 -435 -439 -50 -237 49 -471 255 -604
111 -72 164 -83 409 -89 234 -5 276 1 310 45 33 41 29 114 -8 155 l-29 33
-224 5 c-217 5 -225 6 -283 33 -162 75 -238 250 -181 417 14 41 35 71 80 116
91 91 112 96 394 103 l234 6 23 28 c51 58 37 148 -27 187 -30 18 -49 20 -243
19 -140 0 -232 -5 -275 -15z"/>
<path d="M5190 1274 c-161 -34 -313 -152 -384 -296 -135 -274 -49 -583 206
-749 109 -70 163 -81 407 -87 234 -5 276 1 310 45 33 41 29 114 -8 155 l-29
33 -224 5 c-217 5 -225 6 -283 33 -162 75 -238 250 -181 417 14 41 35 71 80
116 91 91 112 96 394 103 l234 6 23 28 c52 59 39 147 -27 187 -30 18 -50 20
-243 19 -140 0 -232 -5 -275 -15z"/>
<path d="M7182 1279 c-97 -19 -186 -90 -234 -188 -32 -66 -33 -224 -1 -293 29
-63 96 -134 158 -166 49 -26 55 -27 285 -32 161 -3 242 -9 257 -18 60 -34 72
-114 24 -163 l-29 -29 -289 0 c-171 0 -303 -4 -326 -11 -71 -19 -104 -132 -56
-192 35 -45 70 -49 399 -45 363 5 370 7 467 103 53 53 64 71 84 134 17 57 20
87 16 135 -10 103 -34 154 -101 222 -90 90 -113 96 -387 103 -246 7 -250 7
-275 67 -22 52 5 115 58 133 19 7 134 11 300 11 l270 0 34 34 c28 28 34 42 34
75 0 23 -7 56 -16 72 -28 55 -54 59 -356 58 -150 -1 -292 -5 -316 -10z"/>
<path d="M8142 1274 c-76 -39 -85 -156 -15 -201 24 -16 58 -19 273 -23 239 -5
246 -6 302 -32 60 -28 85 -57 98 -112 l8 -35 -262 -3 c-258 -3 -262 -3 -317
-29 -75 -35 -134 -96 -172 -177 -28 -60 -32 -77 -32 -157 0 -80 4 -97 32 -157
38 -81 97 -142 172 -177 l56 -26 398 -3 397 -3 0 390 c0 251 -4 409 -11 443
-31 147 -131 248 -292 296 -39 11 -119 16 -327 19 -243 3 -279 2 -308 -13z
m666 -767 l3 -118 -247 3 -246 3 -24 28 c-13 15 -27 40 -30 54 -11 41 16 104
55 130 34 23 39 23 260 21 l226 -3 3 -118z"/>
<path d="M9600 1280 c-205 -33 -329 -150 -359 -340 -6 -37 -11 -226 -11 -432
l0 -368 140 0 140 0 0 381 c0 421 1 426 64 473 47 35 101 49 193 48 108 0 185
-34 220 -97 22 -39 23 -45 23 -422 l0 -383 140 0 140 0 0 363 c0 199 -5 393
-10 432 -25 167 -117 275 -283 327 -71 23 -304 33 -397 18z"/>
<path d="M11733 1275 c-43 -18 -66 -57 -66 -111 0 -37 5 -51 31 -77 l32 -32
248 -6 c198 -5 256 -9 292 -23 54 -20 88 -50 106 -93 28 -66 39 -63 -225 -63
-211 0 -246 -2 -304 -20 -86 -27 -155 -88 -199 -178 -31 -62 -33 -74 -33 -167
0 -93 2 -105 33 -167 38 -77 92 -130 171 -167 l56 -26 398 -3 397 -3 0 363 c0
200 -5 394 -10 433 -28 187 -147 305 -346 340 -110 20 -536 20 -581 0z m657
-765 l0 -120 -236 0 -236 0 -34 34 c-28 28 -34 42 -34 75 0 55 21 94 62 114
27 14 71 17 256 17 l222 0 0 -120z"/>
<path d="M2912 820 c-68 -42 -78 -137 -20 -192 l30 -28 263 0 263 0 30 30 c57
57 47 149 -20 190 -31 19 -50 20 -273 20 -223 0 -242 -1 -273 -20z"/>
<path d="M5162 820 c-68 -42 -78 -133 -21 -190 l31 -30 263 0 263 0 31 30 c57
57 47 148 -21 190 -31 19 -50 20 -273 20 -223 0 -242 -1 -273 -20z"/>
</g>
</svg>
